<svg xmlns="http://www.w3.org/2000/svg" width="428.569" height="252.961" viewBox="0 0 428.569 252.961">
  <g id="Group_727" data-name="Group 727" transform="translate(-722.999 -188)">
    <path id="Path_37" data-name="Path 37" d="M225.834,136.858c0,3.725-29.161,6.745-65.133,6.745s-65.131-3.02-65.131-6.745,29.161-6.745,65.131-6.745,65.133,3.02,65.133,6.745" transform="translate(803.325 297.357)" fill="#989797"/>
    <path id="Path_38" data-name="Path 38" d="M136.146,44.913s-10.4-4.6-5.279-13.831c7.106-12.817,19.172-3.512,15.478,11.542-3.061,12.475-8.772,20.562-21.392,40.859-24.569,39.517-37.4,49.575-41.7,71.56-7.953,40.647,31.708,70.419,81.489,70.328,51.576-.092,98.648-34.435,79.849-87.077-4.807-13.463-22.395-48.359-45.863-86.7-18.129-29.615-39.994-60-63.565-49.459-19.912,8.91-20.118,28.047-14.832,35.711,7.71,11.179,15.812,7.066,15.812,7.066" transform="translate(792.119 188)" fill="#eb5353"/>
    <path id="Path_39" data-name="Path 39" d="M143.979,78.814c0,5.2-1.6,9.425-5.4,9.425-4.4,0-5.4-4.22-5.4-9.425s1-9.425,5.4-9.425c4,0,5.4,4.22,5.4,9.425" transform="translate(834.936 246.32)" fill="#262626"/>
    <path id="Path_40" data-name="Path 40" d="M138.513,72.944a2.071,2.071,0,1,1-2.071-2.069,2.07,2.07,0,0,1,2.071,2.069" transform="translate(835.937 247.569)" fill="#fff"/>
    <path id="Path_41" data-name="Path 41" d="M118.422,78.858c0,5.229,1.6,9.469,5.424,9.469,4.423,0,5.424-4.24,5.424-9.469s-1-9.469-5.424-9.469c-4.021,0-5.424,4.24-5.424,9.469" transform="translate(822.531 246.32)" fill="#262626"/>
    <path id="Path_42" data-name="Path 42" d="M120.859,72.962a2.079,2.079,0,1,0,2.08-2.08,2.08,2.08,0,0,0-2.08,2.08" transform="translate(824.58 247.575)" fill="#fff"/>
    <path id="Path_43" data-name="Path 43" d="M133.188,98.74c14.418-1.031,19.384-12.407,31.016-16.128,11.1-3.552,15.508,4.342,15.2,14.267-.311,8.683-3.882,15.039-11.786,19.85-18.346,11.166-36.441,6.979-42.8-1.861-4.947-6.878-2.481-15.353,8.374-16.128" transform="translate(825.852 256.706)" fill="#2a5063"/>
    <path id="Path_44" data-name="Path 44" d="M155.835,105.14c-2.273-3.644-6.972-6.155-12.416-6.155-6.664,0-12.226,3.755-13.568,8.759,7.136,2.076,16.362,1.734,25.984-2.6" transform="translate(832.137 271.195)" fill="#4791b2"/>
    <path id="Path_45" data-name="Path 45" d="M163.953,82.611c-11.63,3.721-16.6,15.1-31.016,16.128-5.678.4-9.039,2.925-10.266,6.213,12.666.583,22.5-2.845,34.923-9.626,6.49-3.541,12.335-9.215,13.32-13.4a14.3,14.3,0,0,0-6.961.686" transform="translate(826.103 256.708)" fill="#fff"/>
    <path id="Path_46" data-name="Path 46" d="M137.787,139.808c-5.31.727-38.529,4.888-31.967-8.672,3.62-7.877,12.318-5.794,15.593-4.531,8.021,1.98,10.391,4.638,17.28,11.809" transform="translate(811.222 293.377)" fill="#c14048"/>
    <path id="Path_47" data-name="Path 47" d="M133.859,138.4c6.893-7.167,9.265-9.821,17.288-11.8,3.276-1.259,11.976-3.337,15.589,4.544,6.552,13.566-26.663,9.381-31.973,8.648" transform="translate(835.506 293.379)" fill="#c14048"/>
    <path id="Path_48" data-name="Path 48" d="M86.391,100.52c10.3,1.73,15.234,15.16,4.211,11.753-1.476,7.782-1.161,19.255-12.125,15.447-8.676-3.322-4.073-19.277.609-24.865,2.689-3.206,7.3-2.336,7.3-2.336" transform="translate(784.853 272.394)" fill="#c14048"/>
    <path id="Path_49" data-name="Path 49" d="M176.41,82.68c-6.823-6.959-3.177-19.807,3.274-11.185,5.385-5.063,11.448-13.9,17.634-5,4.725,7.272-7.509,16.789-14.111,18.436-3.79.944-6.8-2.247-6.8-2.247" transform="translate(868.19 240.69)" fill="#c14048"/>
    <path id="Path_50" data-name="Path 50" d="M80.6,111.757c0,1.548-12.112,2.8-27.051,2.8s-27.053-1.253-27.053-2.8,12.112-2.8,27.053-2.8,27.051,1.253,27.051,2.8" transform="translate(745.27 279.575)" fill="#989797"/>
    <g id="Group_668" data-name="Group 668">
      <path id="Path_79" data-name="Path 79" d="M103.429,101.9c-6.287,1.921-8.273,10.712-1.667,7.684,1.557,4.737,2.3,11.928,8.834,8.652,5.144-2.783.966-12.37-2.415-15.475-1.94-1.782-4.752-.861-4.752-.861" transform="translate(805.085 273.447)" fill="#c14048"/>
      <g id="Group_667" data-name="Group 667">
        <path id="Path_75" data-name="Path 75" d="M138.251,120.63c0,2.347-18.364,4.248-41.017,4.248s-41.017-1.9-41.017-4.248,18.364-4.248,41.017-4.248,41.017,1.9,41.017,4.248" transform="translate(770.249 285.817)" fill="#989797"/>
        <path id="Path_76" data-name="Path 76" d="M63.119,68.247s-7.075-1.1-5.464-7.553c2.232-8.954,11.089-5.262,11.3,4.5.171,8.087-1.984,13.938-6.351,28.342-8.5,28.042-14.667,36.25-13.7,50.324,1.787,26.021,30.765,37.667,61.032,29.5,31.358-8.463,54.394-37.025,34.378-65.983-5.118-7.406-21.5-25.765-42.029-45.261C86.423,47.05,68.171,32.129,55.551,42.386c-10.66,8.665-7.666,20.339-3.2,24.14,6.513,5.544,10.77,1.721,10.77,1.721" transform="translate(763.577 220.779)" fill="#eb5353"/>
        <path id="Path_77" data-name="Path 77" d="M82.8,122.487c-3.344.458-24.263,3.079-20.131-5.461,2.279-4.962,7.758-3.65,9.819-2.855,5.052,1.248,6.545,2.921,10.883,7.437" transform="translate(775.223 283.31)" fill="#c14048"/>
        <path id="Path_78" data-name="Path 78" d="M80.33,121.6c4.34-4.513,5.834-6.186,10.886-7.428,2.063-.793,7.542-2.1,9.817,2.86,4.126,8.543-16.791,5.908-20.135,5.448" transform="translate(790.516 283.312)" fill="#c14048"/>
        <path id="Path_80" data-name="Path 80" d="M55.755,107.577c5.98,1.377,8.405,9.431,2.058,7.045-1.139,4.513-1.36,11.256-7.658,8.636C45.18,121,48.443,111.8,51.388,108.69a4.845,4.845,0,0,1,4.367-1.114" transform="translate(762.992 278.311)" fill="#c14048"/>
        <path id="Path_81" data-name="Path 81" d="M71.775,91.984c1.163,4.487,4.2,8.843,9.127,9.4a8.334,8.334,0,0,0,8.75-5.659,12.5,12.5,0,0,0-.4-8.14c-.342-.966-1.89-.55-1.544.425,1.248,3.515,1.39,7.986-1.875,10.478a7.073,7.073,0,0,1-8.8-.449,12.358,12.358,0,0,1-3.716-6.479.8.8,0,0,0-1.544.425" transform="translate(783.301 261.151)" fill="#262626"/>
        <path id="Path_82" data-name="Path 82" d="M78,85.724c-.433-2.359-1.945-4.73-4.467-5.17a4.66,4.66,0,0,0-5.1,2.669,6.5,6.5,0,0,0-.153,4.351.8.8,0,0,0,1.544-.425,5.672,5.672,0,0,1-.25-1.686c0-.109,0-.217.009-.326,0-.048.044-.392.022-.252a4.762,4.762,0,0,1,.169-.716c.017-.052.138-.359.07-.2.035-.083.075-.166.116-.245.052-.1.109-.2.167-.289.029-.048.212-.3.1-.156a3.705,3.705,0,0,1,.434-.464c.061-.055.125-.11.191-.162-.145.114.142-.092.193-.123.07-.042.142-.083.214-.121.046-.024.333-.153.142-.075a3.862,3.862,0,0,1,.585-.186c.1-.024.2-.042.3-.059-.18.029.02,0,.094-.006a5.162,5.162,0,0,1,.653.009c.191.011-.1-.029.131.02.1.022.208.042.311.07.083.022.166.048.247.075.061.02.123.042.184.066.158.061-.118-.061.05.024a4.962,4.962,0,0,1,.528.3c.035.022.3.217.175.12.092.075.182.153.269.236a4.008,4.008,0,0,1,.937,1.281,7.065,7.065,0,0,1,.587,1.87.806.806,0,0,0,.985.56.819.819,0,0,0,.56-.985" transform="translate(780.14 255.644)" fill="#262626"/>
        <path id="Path_83" data-name="Path 83" d="M86.151,82.8c-.876-2.323-2.74-4.432-5.4-4.424a4.663,4.663,0,0,0-4.52,3.585,6.606,6.606,0,0,0,.674,4.32.808.808,0,0,0,1.1.287.819.819,0,0,0,.287-1.1,6.319,6.319,0,0,1-.526-1.592c-.013-.068-.026-.136-.035-.2.006.035.015.134,0-.028-.011-.129-.02-.26-.024-.39,0-.1,0-.2,0-.3,0-.061.007-.121.013-.184,0-.024.028-.243.013-.144-.009.063.033-.179.048-.239q.039-.168.088-.331c.031-.1.064-.19.1-.283.05-.121-.085.167.013-.02.029-.057.055-.116.087-.173a3.782,3.782,0,0,1,.309-.484c-.114.151.063-.068.1-.1.077-.085.156-.166.241-.243.033-.031.228-.193.156-.136s.131-.092.169-.118a4.163,4.163,0,0,1,.541-.294c-.188.086.112-.039.155-.053.079-.026.158-.05.239-.07.1-.026.2-.048.3-.068l.123-.02c-.2.031-.009,0,.037,0a5.083,5.083,0,0,1,.6,0c.053,0,.34.046.142.013q.179.028.353.072a2.8,2.8,0,0,1,1.073.466,2.561,2.561,0,0,0,.23.153c.1.079.2.164.291.248a5.24,5.24,0,0,1,.606.657c-.059-.077.026.039.031.044.059.085.118.169.173.256.092.142.179.285.26.434a7.011,7.011,0,0,1,.414.9.821.821,0,0,0,.985.559.807.807,0,0,0,.56-.985" transform="translate(786.96 253.871)" fill="#262626"/>
      </g>
    </g>
    <path id="Path_51" data-name="Path 51" d="M43.35,73.569s-4.318-1.91-2.192-5.744c2.95-5.325,7.962-1.459,6.429,4.793-1.272,5.181-3.644,8.54-8.886,16.971C28.5,106,23.169,110.179,21.382,119.31c-3.3,16.881,13.17,29.247,33.846,29.21,21.421-.039,40.973-14.3,33.165-36.167-2-5.591-9.3-20.085-19.049-36.009-7.529-12.3-16.612-24.922-26.4-20.542-8.269,3.7-8.356,11.648-6.16,14.831,3.2,4.644,6.567,2.936,6.567,2.936" transform="translate(740.616 234.155)" fill="#eb5353"/>
    <path id="Path_52" data-name="Path 52" d="M46.6,87.65c0,2.163-.663,3.915-2.242,3.915-1.829,0-2.244-1.752-2.244-3.915s.414-3.915,2.244-3.915c1.662,0,2.242,1.752,2.242,3.915" transform="translate(758.399 258.377)" fill="#262626"/>
    <path id="Path_53" data-name="Path 53" d="M44.333,85.212a.86.86,0,1,1-.86-.86.859.859,0,0,1,.86.86" transform="translate(758.816 258.896)" fill="#fff"/>
    <path id="Path_54" data-name="Path 54" d="M35.989,87.668c0,2.172.666,3.933,2.253,3.933,1.837,0,2.253-1.761,2.253-3.933s-.416-3.933-2.253-3.933c-1.671,0-2.253,1.761-2.253,3.933" transform="translate(753.248 258.377)" fill="#262626"/>
    <path id="Path_55" data-name="Path 55" d="M37,85.218a.863.863,0,1,0,.863-.863.863.863,0,0,0-.863.863" transform="translate(754.099 258.898)" fill="#fff"/>
    <path id="Path_56" data-name="Path 56" d="M44.032,112.982c-2.2.3-16,2.03-13.277-3.6,1.5-3.272,5.117-2.407,6.477-1.883,3.331.823,4.316,1.927,7.176,4.9" transform="translate(748.551 277.921)" fill="#c14048"/>
    <path id="Path_57" data-name="Path 57" d="M42.4,112.4c2.862-2.976,3.848-4.078,7.18-4.9,1.362-.523,4.975-1.386,6.475,1.886,2.722,5.634-11.074,3.9-13.279,3.593" transform="translate(758.636 277.923)" fill="#c14048"/>
    <path id="Path_58" data-name="Path 58" d="M63.3,93.17c-4.147,1.268-5.455,7.064-1.1,5.067,1.027,3.125,1.517,7.868,5.827,5.707,3.394-1.835.637-8.157-1.592-10.205A3.425,3.425,0,0,0,63.3,93.17" transform="translate(773.012 266.175)" fill="#c14048"/>
    <path id="Path_59" data-name="Path 59" d="M22.059,96.4c3.944.909,5.544,6.221,1.356,4.645-.751,2.978-.9,7.426-5.05,5.7-3.28-1.485-1.128-7.553.814-9.607a3.2,3.2,0,0,1,2.88-.734" transform="translate(737.01 268.949)" fill="#c14048"/>
    <path id="Path_60" data-name="Path 60" d="M34.937,91.72c-.088,7.813,11.179,10.38,16.189,5.5A6.235,6.235,0,0,0,52.9,91.908c-.083-.666-1.139-.675-1.056,0,.88,7.2-9.583,8.286-13.793,4.579a6.1,6.1,0,0,1-2.056-4.767.529.529,0,0,0-1.056,0" transform="translate(752.364 264.66)" fill="#262626"/>
    <path id="Path_61" data-name="Path 61" d="M48.992,105.928c0,1.073-10.134,1.944-22.636,1.944S3.72,107,3.72,105.928s10.136-1.944,22.636-1.944,22.636.871,22.636,1.944" transform="translate(726.126 275.396)" fill="#989797"/>
    <path id="Path_62" data-name="Path 62" d="M17.771,82.942s-3-1.325-1.52-3.985c2.047-3.694,5.523-1.012,4.459,3.326-.882,3.593-2.529,5.924-6.164,11.772C7.467,105.442,3.771,108.34,2.532,114.675c-2.293,11.711,9.136,20.291,23.479,20.266,14.862-.028,28.426-9.924,23.01-25.091-1.386-3.88-6.453-13.934-13.216-24.983C30.581,76.335,24.281,67.578,17.49,70.616c-5.739,2.567-5.8,8.082-4.275,10.29,2.223,3.221,4.557,2.036,4.557,2.036" transform="translate(724.881 246.834)" fill="#eb5353"/>
    <path id="Path_63" data-name="Path 63" d="M20.029,92.711c0,1.5-.46,2.717-1.557,2.717-1.268,0-1.555-1.217-1.555-2.717s.287-2.717,1.555-2.717c1.152,0,1.557,1.217,1.557,2.717" transform="translate(737.218 263.638)" fill="#262626"/>
    <path id="Path_64" data-name="Path 64" d="M18.453,91.018a.6.6,0,1,1-.6-.6.6.6,0,0,1,.6.6" transform="translate(737.507 263.998)" fill="#fff"/>
    <path id="Path_65" data-name="Path 65" d="M12.664,92.723c0,1.507.462,2.728,1.563,2.728,1.275,0,1.563-1.22,1.563-2.728S15.5,90,14.227,90c-1.158,0-1.563,1.22-1.563,2.728" transform="translate(733.644 263.639)" fill="#262626"/>
    <path id="Path_66" data-name="Path 66" d="M13.367,91.024a.6.6,0,1,0,.6-.6.6.6,0,0,0-.6.6" transform="translate(734.235 263.999)" fill="#fff"/>
    <path id="Path_67" data-name="Path 67" d="M10.624,109.656c-1.325-.793-4.84-9.5-.519-9.088,2.492.184,2.8,2.742,2.794,3.755.272,2.365.622,5.626-1.2,5.626a2.922,2.922,0,0,1-1.077-.293" transform="translate(729.738 272.513)" fill="#c14048"/>
    <path id="Path_68" data-name="Path 68" d="M21,109.476c1.325-.793,4.84-9.5.519-9.088-2.492.184-2.8,2.742-2.794,3.755-.272,2.365-.622,5.626,1.2,5.626A2.921,2.921,0,0,0,21,109.476" transform="translate(738.55 272.362)" fill="#c14048"/>
    <path id="Path_69" data-name="Path 69" d="M29.16,99.388c-2.706,1.316-2.976,5.431-.206,3.591,1.042,2.032,1.888,5.229,4.609,3.283,2.128-1.625-.444-5.661-2.194-6.823a2.374,2.374,0,0,0-2.209-.052" transform="translate(745.692 271.316)" fill="#c14048"/>
    <path id="Path_70" data-name="Path 70" d="M4.784,100.272c2.544,1.189,2.858,5.025.245,3.35-.94,1.91-1.686,4.907-4.253,3.131-2.008-1.485.331-5.29,1.947-6.4a2.22,2.22,0,0,1,2.061-.079" transform="translate(723 272.087)" fill="#c14048"/>
    <path id="Path_71" data-name="Path 71" d="M24.408,100.663c.145-5.365-7.826-6.889-11.214-3.773a4.022,4.022,0,0,0-1.242,3.471c.052.462.786.467.733,0-.556-4.91,6.882-5.221,9.62-2.851a3.921,3.921,0,0,1,1.371,3.153.366.366,0,0,0,.733,0" transform="translate(733.021 268.088)" fill="#262626"/>
    <path id="Path_72" data-name="Path 72" d="M17.336,93.965c0-.832-1.174-1.507-2.625-1.507s-2.625.675-2.625,1.507,1.174,1.507,2.625,1.507,2.625-.675,2.625-1.507" transform="translate(733.159 265.709)" fill="#eb5353"/>
    <path id="Path_73" data-name="Path 73" d="M21.585,93.965c0-.832-1.174-1.507-2.625-1.507s-2.625.675-2.625,1.507,1.174,1.507,2.625,1.507,2.625-.675,2.625-1.507" transform="translate(736.73 265.709)" fill="#eb5353"/>
    <path id="Path_74" data-name="Path 74" d="M14.063,92.6c-.53-.179-3.193-.337-2.516.672.44.8,1.962-.285,2.457-.5" transform="translate(732.613 265.714)" fill="#6fc6d5"/>
    <path id="Path_84" data-name="Path 84" d="M199.257,91.034a5.239,5.239,0,0,1,6.009-6.136c4.233.773,8.475,2.753,12.628,4.113a46.288,46.288,0,0,0,42.747-7.872A46.287,46.287,0,0,0,277.218,40.96a46.292,46.292,0,0,0-24.76-35.724A50.473,50.473,0,0,0,227.565.162c-15.948.733-31.765,8.994-40.03,22.654s-7.87,32.53,2.271,44.862c2.527,3.074,4.423,5.726,3.263,9.534-.926,3.039-4.216,4.231-3.681,7.362.418,2.446,4.263,5.652,5.242,7.931,1.551,3.611-12.234,9.9-14.444,12.315s5.253,4.656,9.2,1.84c2.882-2.056,10.13-3.992,11.043-7.362a60.568,60.568,0,0,0-1.174-8.264" transform="translate(874.104 188.088)" fill="#fff"/>
    <path id="Path_85" data-name="Path 85" d="M203.962,35.971h-.633a1.156,1.156,0,0,1-.847-.352,1.358,1.358,0,0,1-.421-1.033V29.448h-7.134v6.523h-.7a1.282,1.282,0,0,1-.821-.328,1.434,1.434,0,0,1-.4-1.056V21.8h1.033a.822.822,0,0,1,.609.234.98.98,0,0,1,.283.729v4.927h7.134V21.8h.915a1.1,1.1,0,0,1,.681.258.924.924,0,0,1,.305.7Z" transform="translate(885.214 206.32)" fill="#636262"/>
    <path id="Path_86" data-name="Path 86" d="M205.161,29.953h-2.628a3.081,3.081,0,0,0,1.009,2.183,3.387,3.387,0,0,0,2.393.845,4.55,4.55,0,0,0,3.239-1.1h.094v.8a1.6,1.6,0,0,1-.893,1.408,5.1,5.1,0,0,1-2.7.587,4.67,4.67,0,0,1-3.591-1.526,5.346,5.346,0,0,1-1.408-3.8,5.97,5.97,0,0,1,1.432-4.176,4.555,4.555,0,0,1,3.543-1.572,4.027,4.027,0,0,1,2.792,1.056,3.42,3.42,0,0,1,1.244,2.65,2.2,2.2,0,0,1-.893,2.019,7.294,7.294,0,0,1-3.635.633m-2.628-1.877-.024.445,2.417-.046a9.12,9.12,0,0,0,2.464-.258.8.8,0,0,0,.539-.821,2.07,2.07,0,0,0-.611-1.526,2.5,2.5,0,0,0-1.852-.657,2.756,2.756,0,0,0-2.113.915,2.8,2.8,0,0,0-.821,1.947" transform="translate(891.666 207.83)" fill="#636262"/>
    <path id="Path_87" data-name="Path 87" d="M211.989,34.7v.611q0,1.055-1.456,1.055-3.238,0-3.237-3.167V21.414h.563c.843,0,1.268.469,1.268,1.408V32.983a1.5,1.5,0,0,0,1.688,1.713Z" transform="translate(897.228 205.998)" fill="#636262"/>
    <path id="Path_88" data-name="Path 88" d="M215.622,34.7v.611q0,1.055-1.456,1.055-3.238,0-3.237-3.167V21.414h.563c.843,0,1.268.469,1.268,1.408V32.983a1.5,1.5,0,0,0,1.688,1.713Z" transform="translate(900.281 205.998)" fill="#636262"/>
    <path id="Path_89" data-name="Path 89" d="M215.582,25.133a4.559,4.559,0,0,1,3.615-1.526,4.477,4.477,0,0,1,3.449,1.456,5.515,5.515,0,0,1,1.336,3.847,6.44,6.44,0,0,1-1.314,4.226,4.359,4.359,0,0,1-3.471,1.524,4.691,4.691,0,0,1-3.545-1.478,5.433,5.433,0,0,1-1.408-3.872,6.113,6.113,0,0,1,1.338-4.176m3.779,7.791a2.4,2.4,0,0,0,2.065-1.009,4.218,4.218,0,0,0,.7-2.582q0-4.011-3.217-4.012a2.511,2.511,0,0,0-2.063.963,4.159,4.159,0,0,0-.777,2.65,4.339,4.339,0,0,0,.869,2.91,2.933,2.933,0,0,0,2.418,1.08" transform="translate(903.067 207.841)" fill="#636262"/>
    <path id="Path_90" data-name="Path 90" d="M221.739,33.509a1.516,1.516,0,0,1,1.08-.423,1.426,1.426,0,0,1,1.055.423,1.453,1.453,0,0,1,.423,1.079,1.333,1.333,0,0,1-.423,1.056,1.426,1.426,0,0,1-1.055.423,1.516,1.516,0,0,1-1.08-.423,1.4,1.4,0,0,1-.444-1.056,1.473,1.473,0,0,1,.444-1.079m1.807-2.089h-.421q-1.176,0-1.2-1.408l-.28-8.33h.915q1.267,0,1.268,1.406Z" transform="translate(908.994 206.223)" fill="#636262"/>
    <g id="Group_726" data-name="Group 726">
      <rect id="Rectangle_18" data-name="Rectangle 18" width="428.568" height="252.961" transform="translate(723 188)" fill="none"/>
    </g>
  </g>
</svg>
