<svg xmlns="http://www.w3.org/2000/svg" width="374.923" height="230.622" viewBox="0 0 374.923 230.622">
  <g id="Group_726" data-name="Group 726" transform="translate(-1992 -2314.365)" opacity="0.03">
    <path id="Path_56" data-name="Path 56" d="M2480.259,2348.911c-1.025-1.007-2.087-2.022-1.441-3.724.528-1.407-1.143-2.279-3.194-2.469-2.022-.19-2.057.5-2.139,1.775-.076,1.116-1.188.317-1.482-.047-1.051-1.306-2.636-1.453-4.4-1.441a20.508,20.508,0,0,1-2.753-.237c-5.261-.678-10.528-1.566-15.774.361.452.481.614,1.171,1.494,1.6.522.252,1,.826.518,1.322a1.619,1.619,0,0,1-1.635.054c-1.768-1.7-3.443-.279-5.17-.023-1.462.217-2.818.224-3.936,1.349a3.01,3.01,0,0,1-3.53-.217c-3.072-3.143-4.515-3.43-8.608-1.294-1.163.609-1.874.484-3.266.124a12.083,12.083,0,0,1-5.135-2.213c-.538-.473-1.452-.213-2.173-.031-2.438.62-5.008.454-7.491.771-.641.085-1.311-.353-1.915.085,1.163.662-.863,1.705.528,2.422.518.268,1.823.787.782,1.387-.66.376-.767,2.12-2.529.927-.34-.229-1.188-.256-1.407.07-1.056,1.6-2.417.725-3.631.236a.782.782,0,0,0-.112,1.023c.254.624,1.188,1.379-.239,1.755-.986.263-2.1-.279-2.214-.93-.274-1.5-1.254-1.043-2.58-.391.381-.636.781-.977.69-1.209-.838-2.236-5.866-3.922-8.8-3.008a.96.96,0,0,0-.788.857c-.3,1.829-2.98,3.015-4.474,1.768-2.163-1.807-3.8-.442-5.672-.109-.295.055-.67.356-.824.292-1.071-.465-2.234-.051-3.453-.345-2.458-.593.107,1.794-1.519,2.136-.27.058-.437.375-.666.569a.743.743,0,0,1-.868.155c-.188-.143-.3-.581-.168-.7,1.386-1.2.838-2.818,1.635-4.163.981-1.655,1.351-3.445-1.041-4.647-2.088-1.054-4.149-2.341-7.039-1.217a4.463,4.463,0,0,1-4.3-1.027,3.386,3.386,0,0,0-2.28-.907c-1.24.008-1.387.884-1.585,1.519a2.611,2.611,0,0,0,.619,2.4c.549.686.178.848-.269,1.527-1.178,1.775-2.9,1.81-4.871,1.876-.436.015-1.1.127-1.03.4.314,1.3-1.209,1.31-2.027,1.787-3.351,1.942-3.631,3.562-.8,5.507a17.994,17.994,0,0,1-3.56,1.426c-.762.326-2.366.058-2.209.907a3.205,3.205,0,0,0,2.1,2.679c2.7.674,4.362,1.867,5.023,4.054-1.25-.046-1.92-.449-1.712-1.411.1-.492.178-1.1-.614-.961-1.483.264-2.341-.585-3.5-.864-.975-.237-2.905-.764-2.58.213.589,1.752-1.844.283-1.553,1.155a3.043,3.043,0,0,0,.548.825c.265.337,1.188.2,1.061.973-2.859-.3-2.229-2.659-3.783-3.667-.005,1.942-1.28,4.077,1.65,5.484.1.046.112.24.117.364.092,2.05.513,3.8,4.418,2.511-1.553.934-2.544,1.655-1.051,2.981.427.38,0,1.344-.092,2.034-.076.512-.482.845-1.208.725-.681-.112-.651-.585-.5-.934a3.314,3.314,0,0,0-.112-2.632c-.365-.926-1.782-1.306-2.036-2.364-.6-2.5-3.377-4.38-3.489-7.081-.04-.985-1.549-1.844-2.468-1.768a1.9,1.9,0,0,0-1.711,2.237,3.65,3.65,0,0,1-.117,2.3c-.5,1-1.091,1.771.229,2.751.889.667.021,2.275,2.072,2.535.269.031.671.5.625.732-.1.519-.782.407-1.229.353a14.81,14.81,0,0,1-3.728-1.14,6.61,6.61,0,0,0-3.941-.112c-1.158.3.178,1.2.112,1.865-.07.682-.746,1.236-.893.98-.9-1.515-1.53-.093-2.256.066-1.295.283-2.59.57-3.885.852-.66-1.763-1.563-.515-2.483-.151a13.5,13.5,0,0,0-4.083,2.539c-.874.795-2.214.543-2.148.108.355-2.407-1.93-1.849-3.905-2.143,1.422,1.2,1,2.7,2.117,3.888.625.67-.218,1.112-1.351.933-2.118-.337-3.356,1.159-3.271,1.993.224,2.17-1.02,1.519-2.417,1.085-.437-.14-.894-.512-1.29-.032-.31.365-.081.7.259,1.043.3.3,1.34.151.9.961a2.761,2.761,0,0,1-2.955-1.322c-1.051-1.407-1.382-3.151-3.611-3.988,2.6.492,4.9,1.365,7.552,1.128a2.438,2.438,0,0,0,2.174-1.4c.431-.817.162-1.488-.717-2.069a18.379,18.379,0,0,0-6.586-2.72c-1.94-.368-3.783-1.531-6.029-1.02-.157.035-1.386.1-.8-.717.218-.3,1.6-.573.167-1.027-1.32-.414-2.955-1.256-4.012-.689-.812.438-1.483.012-2.047.372a.838.838,0,0,0-1.4.07c-.609,1.569-2.885,1.287-4.165,2.225-.873.636-2.351,1.062-3.144,1.954-1.97,2.228-4,4.387-5.093,7.05a9.852,9.852,0,0,1-5.577,5.135c-3.291,1.349-3.56,1.752-2.423,4.559a1.257,1.257,0,0,1,.122,1.115c-.564,1.116-.472,2.089,1.107,2.767,1.671.717,2.6-.011,3.692-.833,1.072-.806,2.118-1.058,2.7.484a40.8,40.8,0,0,0,1.945,3.926c.462.915.813.891,2.149.457,2.534-.821,2.788-2.216,2.824-3.883a1.857,1.857,0,0,1,.9-1.485c.99-.767,1.736-1.713.381-2.79-1.777-1.411-1.829-3.5.076-4.69,1.736-1.085,3.4-2.039,3.047-4.042-.082-.493.4-1.147,1.345-1.225a2.5,2.5,0,0,1,2.108.392c.569.6.335,1.205-.213,1.779a29.226,29.226,0,0,1-2.184,2.368c-1.773,1.5-.96,3.275-.2,4.585a3.628,3.628,0,0,0,4.8,1.058,18.065,18.065,0,0,1,3.667-.636,1.435,1.435,0,0,1,1.493.5c.6.686-.487.613-.777.9a2.308,2.308,0,0,1-2.478.434,3.449,3.449,0,0,0-3.209.713c-.731.636-.025,1.256.594,1.837s.264,1.361-.676,1.132c-3.331-.814-2.651,1.178-2.915,2.353-.213.968-.36,1.941-1.889,1.914-3.413-.058-6.379,1.9-9.929,1.2a4.536,4.536,0,0,1-2.61-.931c-.681-.725.035-1.233.538-1.705s.955-.822.106-1.352a1.716,1.716,0,0,0-2.036.135c-1.077.7-.894,1.5-.35,2.407.741,1.244.838,2.221-1.625,2.477-1.346.14-3,.221-3.763,1.589-1.828,3.255-5.668,4.539-9.786,5.476-.534.12-1.27-.008-1.326.651-.041.492.462.662.944.771a3.652,3.652,0,0,1,3.246,3.658c.183,2.074-.051,2.361-2.813,2.295-1.671-.039-3.342-.271-5.013-.275-1.7,0-3.235.174-2.478,2.086a2.89,2.89,0,0,1-.173,2.666c-.868,1.291-.99,2.594.372,3.562,1.147.814,3.032.907,4.042,1.989,1.707-1.151,4.063-.458,5.912-1.214,1.158-.469,2.108-1.581,1.894-2.128-.676-1.725.894-2.372,2.1-3.084s2.164-1.349,2.179-2.609c.01-.875,1.041-1.151,1.808-.844a4.627,4.627,0,0,0,4.464-.706c1.631-1,2.447-.442,3.438.62a13.279,13.279,0,0,0,4.972,3.458c1.691.662,4.067,1.379,3.042,3.569a.388.388,0,0,0,.361.589,1.38,1.38,0,0,0,.848-.336,1.2,1.2,0,0,0,.345-1.466c-1.072-1.849.609-1.4,2.386-1.217-2.808-1.96-6.2-2.7-8.115-4.894-.656-.744-2.067-1.322-.656-2.159a2.808,2.808,0,0,1,2.793.616c.874,1.558,2.671,2.031,4.358,2.655.9.333,1.853.794,1.884,1.449.107,2.435,3.144,3.69,3.813,5.876a1.463,1.463,0,0,0,1.59,1.043c.965-.093.792-1.027,1.468-1.43.863-.508-.031-.783-.432-.973-1.27-.593-.584-1.5-.711-2.267,1.5.182,2.067-1.814,3.835-.965,1.254.6,1.244,1.794,1.381,2.624.427,2.617,2.54,4.039,6.267,3.082a2.045,2.045,0,0,1,1.625.1,3.466,3.466,0,0,0,3.494,0c1.362-.6,1.97-.4,2.255.973.407,2-1.072,3.445-1.864,5.1a1.29,1.29,0,0,1-1,.454c-2.595-.613-5.149.236-7.694.07a28.612,28.612,0,0,1-7.511-1.589c-2.6-.907-3.891-.291-4.256,1.868-.182,1.066-.863,1.186-2.306.783-3.2-.892-5.414-3.333-9.308-3.221-.889.027-3.342-.531-1.62-2.438.914-1.011-.645-2.953-1.935-2.736a57.393,57.393,0,0,1-8.908.543c-3.372.031-5.749,2.4-9.269,1.9-1.762-.248-3.808-.512-4.4,1.527-.076.26-.792.446-1.25.6-2.087.713-2.977,2.015-3.037,3.67a2.715,2.715,0,0,1-2.016,2.5c-4.119,1.473-5.957,4.415-8.136,7.143-.539.671-.975,1.485-.457,2.209,1.463,2.054.894,4.07-.178,6.011a2.887,2.887,0,0,0,.58,3.566c2.163,1.848,4.829,3.344,5.957,5.806a.739.739,0,0,0,.36.264c3.326,1.5,6.181,4.279,10.787,2.321a.451.451,0,0,1,.243-.035c3.4.776,6.384-.224,9.461-1.131,1.554-.458,3.566-.635,4.414.907.691,1.26,1.747,1.349,3.209,1.248,3.454-.237,3.971.423,3.393,3.054-.35,1.6-2.245,3.446.339,4.922,4.033,2.3,4.414,5.826,5.374,9.139a2.3,2.3,0,0,1-1.016,2.57,5.078,5.078,0,0,0-.752,7.162,14.05,14.05,0,0,1,2.981,7.282,3.95,3.95,0,0,0,1.1,2.74c2.346,2.092,2.925,4.627,3.184,7.173a1.927,1.927,0,0,0,2.464,1.562c2.712-.558,5.617-.267,8.177-.9,5.647-1.38,8.872-4.821,11.152-8.825.422-.744.387-1.624,1.564-2.108,3.022-1.233,3.336-1.938,2.4-4.419-.233-.62-.929-1.271.158-1.914a33.8,33.8,0,0,1,4.57-2.729c3.829-1.542,5.281-5.507,3.2-8.445-1.223-1.725-1.864-3.961-1.041-5.5,1.778-3.341,5.261-5.895,9.188-7.961,4.692-2.476,6.628-6.317,8.755-10.077.117-.209.005-.512-.04-.763a.619.619,0,0,0-.864-.477c-2.352,1.132-5.317.175-7.583,1.252-2.133,1.012-2.707-.314-3.494-1.171-.356-.383-.167-1.065-.208-1.62a2.119,2.119,0,0,0,1.813.372c2.184-.833,4.739-.791,6.866-1.825a62.268,62.268,0,0,1,5.83-2.461,17.322,17.322,0,0,0,7.841-5.147c1.65-1.988,1.3-3.081-1.727-3.744a2.909,2.909,0,0,1-2.285-1.844c-.24-.489.254-1.376-.859-1.388-.888-.008-.513.841-.843,1.248a4.113,4.113,0,0,1-3.392,1.678c-1.894.062-1.666-.926-2.016-1.713-.127-.287-.356-.81-.762-.508-1.26.95-1.249,0-1.529-.523a5.432,5.432,0,0,0-2.006-2.178c-.97-.6-1.62-1.6-.366-2.295a1.846,1.846,0,0,1,2.555.938c1,1.678,3.144,2.3,5.053,2.95,1.869.632,3.926-.434,6.216,1.136,2.026,1.4,6.024,1.147,9.238.76,1.945-.233,6.892,1.7,7.745,3.027,1.7,2.635,2.153,2.76,5.4,1.3.055,5.608,4.3,9.987,6.907,14.825.543,1.011,1.071,1.539,2.667.341a5.675,5.675,0,0,0,2.4-5.674,3.209,3.209,0,0,1,1.575-3.062c2.636-1.981,5.815-3.585,7.547-6.217a1.767,1.767,0,0,1,1.244-.57c1.554.031,2.991.043,3.981-1.14a.78.78,0,0,1,1.214.21c.264,1.539,1.94,2.3,2.885,3.433.711.857,2.295,1.376,2.082,2.845-.269,1.83.534,2.109,2.626,1.163.756-.336,1.7-.941,1.991-.015.564,1.806,2.2,3.353,2.082,5.306-.147,2.318-.365,4.635,2.433,6.329.736.446.776,1.26.949,1.961.554,2.2,2.742,3.74,6,4.085-.97-1.248-1.777-2.418-1.691-3.841.025-.411-.543-.98-1.046-1.252a11.657,11.657,0,0,1-4.479-3.961c-.64-.984-.818-3.833.112-4.635a.639.639,0,0,1,.823-.159c2.6,1.469,5.607,2.616,6.826,5.147,1.483-.837,2.95-1.686,4.449-2.5a2.527,2.527,0,0,0,1.508-3.05,6.316,6.316,0,0,0-3.687-4.411c-1.437-.678-2.473-1.81-2.163-3.221a3.1,3.1,0,0,1,2.564-2.17,3.04,3.04,0,0,1,3.373,1.263c-.062-1.008.649-1.2,1.554-1.442a41.669,41.669,0,0,0,7.13-2.237c3.875-1.875,4.5-5.325,6.135-8.278.6-1.1-1.265-1.341-1.088-2.027.656-2.473-1.594-3.922-3.372-5.356-1.254-1.012-1.238-1.616-.366-2.6a3.79,3.79,0,0,1,2.458-1.225c.458-.062.752-.307.732-.678-.021-.275-.325-.6-.605-.508-1.218.4-2.473-.7-3.788.28s-1.859-.6-2.743-.954c-.822-.33-.624-1.128.462-1.453.691-.21.432-.884.849-1.109.93-.5,1.01-1.953,2.346-1.721,1.792.313.178,1.539.589,2.3.107.2.015.465.015.706.853.023,1.006-.512,1.437-.783a3.669,3.669,0,0,1,3.205-.713c1.295.368.8,1.151.888,1.791.061.387,0,.988.513.973,3.341-.108,2.311,2.035,2.956,3.279.289.562-.264,1.825.975,1.508,1.163-.295,3.728.248,3.26-1.953a5.916,5.916,0,0,0-2.463-3.721c-1.783-1.26-3.007-2.365-.513-3.915.661-.407.208-1.1.254-1.663a2.725,2.725,0,0,1,2.783-2.492c2.463.388,3-.693,3.722-1.841a15.738,15.738,0,0,0,1.8-3.391c.868-2.713,2.229-5.457.6-8.256a4.019,4.019,0,0,1-.629-2.814c.31-1.593-.98-2.79-2.077-3.736-.8-.694-2.4-2.527-4.373-.562-.2.2-1.925.666-2.352-.523-.106-.3-.289-.694-.786-.636-2.032.233-1.56-.593-1.128-1.457a22.022,22.022,0,0,0,2.615-6.787c.239-1.8,1.245-2.938,3.753-3.189,2.052-.21,4.1-.384,5.693-1.705.66-.547,2.438-.477,2.788.038,1.762,2.616,2.676-.7,4.068-.275.092.027.417-.485.025-.613-2.062-.667-.873-1.767-.776-2.782.142-1.422-.137-2.945,2.209-3.5,2.3-.547,2.514,1.341,3.813,1.985,1.667-1.57.183-3.8,1.555-5.511a7.58,7.58,0,0,1,.853,7.088c-.6,1.682-.147,3.655-1.057,5.19a5.652,5.652,0,0,0-.731,4.325c1.077,4.48,5.652,7.562,8.232,11.507a20.562,20.562,0,0,0,.858-6.708,1.527,1.527,0,0,1,.717-1.585c1.2-.635.94-1.163.091-1.853-.781-.635-1.387-1.918-.518-2.189,2.047-.639.381-1.485.132-1.558-1.782-.527-.884-2.775-3.519-2.922-.945-.054-.193-4.485.574-5.279.635-.658,1.422.244,1.615-.24,1.025-2.6,3.062-1.7,5.185-.749a7.427,7.427,0,0,1,.762-4.491c.665-1.469,1.137-3.155,3.306-3.93.661-.241,1.9.36,1.96-.706.05-.845-.716-1.434-1.544-1.887-1.783-.977-3.083-2.446-5.541-2.907,2.753-1.2,2.722-2.306-.02-5.724,1.345.248,2.691.786,3.413-.5a1.772,1.772,0,0,1,1.168.043c1.108.922,2.388.256,3.545.244C2480.661,2350.322,2481.413,2350.039,2480.259,2348.911ZM2292.1,2420.2c.615-.667,1.712-.369,2.387-.764C2293.953,2420.465,2293.917,2420.461,2292.1,2420.2Zm5.536-1.16c-.742.419-2.057.241-3.113.337h-.005c-1.666-.973-2.732-1.976-1.086-3.627a12.211,12.211,0,0,0,1.447-2.625c.939-1.573,2.6-1.17,4.205-.821.325.07.29.24.279.535-.041,1.209,1.077,1.741,2.458,1.283.741-.244,1.487-.48,2.28-.74-.5-.581-1.092-.066-1.589-.171-.6-.127-1.189-.321-1.254-.814-.062-.457.584-.655,1.026-.678,1.478-.081,2.412-1.213,3.89-1.186.716.523-.132.651-.29.935-.843,1.535-1.173,2.833,1.671,3.437a14.283,14.283,0,0,1,3.124,1.589c.883.438,1.335,1.059,1.082,1.8-.269.771-1.2,1.047-2.179,1.058a11.628,11.628,0,0,1-4.444-.512C2302.617,2417.856,2300.158,2417.62,2297.635,2419.042Zm13.534,30.01c-2.219-2.135-1.493-5.356-4.992-6.747.076-2.361-3.2-3.636-3.24-5.945a2.5,2.5,0,0,1,3.128.984c1.523,2.461,4.424,4.186,5.551,6.98.609,1.5,2.4,3.174,4.139,4.465,1.93,1.422,1.234,3.4,2.082,5.035A30.136,30.136,0,0,1,2311.169,2449.051Zm15.657-24.571a9.113,9.113,0,0,1-4.931-1.2c-1.55-.787-.549-2.313,0-3.336.35-.652.3-.745-.28-1.143a20.506,20.506,0,0,1-4.6-4.918.864.864,0,0,1,.03-1.26c1.62-1.225,3.22-2.539,5.688-2.651,1.021-.082,1.96-.21,2.148.833.163.887-.431,1.113-1.5,1.38-1.641.415-1.747,2.062,0,3.042a3.682,3.682,0,0,1,2.184,2.581c.229,1.93,2.214,3.2,2.839,4.96C2328.807,2423.9,2328.5,2424.348,2326.826,2424.48Z" transform="translate(-139.341 -4.03)" fill="#8e8d8b"/>
    <path id="Path_57" data-name="Path 57" d="M2121.2,2548.23c-.652.554-.84-.061-1.3-.235-.918-.348-1.189-1.677-2.907-1.062-.49.175-1.744-1-2.658-1.566.573-.5.95.292,1.368.058-.277-2.825-3.147-4.758-4.354-7.427,1.569.073,1.248,1.123,2.4,1.676-.843-1.791-1.45-3.318-2.29-4.758-.373-.64-.478-1.193.005-1.68,1.454-1.465.929-3.188,1.124-4.816.023-.2.049-.542-.062-.583-3.836-1.4-.511-4.607-2.6-6.476-.813-.726.395-1.344.646-2,1.081-2.83.6-5.676.617-8.552.028-4.207.423-8.415.422-12.64,0-2.453-1.528-4.021-3.846-4.733-5.081-1.563-6.616-5.236-8.914-8.492-1.021-1.447-1.683-2.975-3.686-3.953a1.867,1.867,0,0,1-.376-3.027c.6-.694.986-.959.268-1.936-1.021-1.391.366-3,1.436-3.928,1.036-.9,2.167-1.862,3.137-2.793,1.271-1.22.276-2.864-.013-4.31-.1-.51-.584-.964-.791-1.471-.219-.534-.428-1.123-1.249-1.058a1.448,1.448,0,0,0-1.408.978c-.079.457-.476,1.015-.771.742-1.333-1.239-3.457-.943-5.055-2.06-3.133-2.188-5.055-5.975-10.4-5.758-.622.025-1.293-.784-1.949-1.2-1.411-.892-2.811-1.769-4.811-1.118a3.983,3.983,0,0,1-2.445-.32,35.342,35.342,0,0,1-6.712-2.336c-2.048-1.125-5.033-1.578-4.309-4.621.259-1.085-.81-2.623-2-3.584-2.26-1.828-3.316-4.284-5.384-6.213a9.573,9.573,0,0,1-1.537-2.74c-.307-.572-.682-1.268-1.592-1-1.081.313-.829,1.217-.376,1.7,2.488,2.661,3.124,6.022,5.356,8.771.106.13-.011.375-.264.693-.979-1.2-3.42-1.488-3.067-3.493a.432.432,0,0,0-.13-.382c-3.875-2.879-3.756-7.18-5.994-10.64a2.547,2.547,0,0,0-1.487-1.315c-2.563-.681-2.9-2.5-3.277-4.205-.369-1.65-1.439-3.138-1.514-4.85-.162-3.709,1.436-7.073,3.093-10.428a4.513,4.513,0,0,0,.6-3.507c-.346-1.108,0-1.963,1.84-1.182a2.259,2.259,0,0,0,1.374.244.815.815,0,0,0,.173-1.289c-1.008-1.122-1-2.84-3.041-3.358l.033.028a3.118,3.118,0,0,1-1.195-4.049c.576-1.525-1.53-2.961-1.53-4.62a3.071,3.071,0,0,1,.346-2.085c.976-1.4-.688-.71-1.539-.859,1.338-.684,1.1-1.588.828-2.482-.117-.384-.552-.792-.457-1.117.633-2.162-.619-2.985-3.158-3.031-.74-.014-.893-.534-1.071-.986-.893-2.266-2.638-3.7-5.651-4.356a4.235,4.235,0,0,1-2.767-2.348c-.381-.928-1.355-.51-1.966-.817-.558-.281-.471.593-.629,1a1.868,1.868,0,0,1-1.687,1.252c-1.59.246-3.11.776-5.122,1.307l3.032-3.884c-2.506.359-3.2,2.533-5.41,2.442.263,2.882-3.213,2.685-4.992,3.907a45.1,45.1,0,0,1-6.752,3.382c-1.723.794-3.994.833-6.467,1.292,2.262-2.216,5.448-2.357,7.834-3.629a12.245,12.245,0,0,0,3.907-2.765c.934-1.145.708-.93-.76-1.678-1.174-.6-4.181-.678-2.471-3.021.455-.624.034-1.187-1.13-.915a1,1,0,0,1-1.271-.7c-.767-1.623.843-5.681,2.908-6.241,2.352-.638,4.307-2.1,7.111-1.927,1.578.1,1.822-1.359,1.858-2.283.043-1.087-1.044-.526-1.837-.511a11.569,11.569,0,0,1-3.17-.436c-1.147-.309-1.595-1.038-.839-1.9.734-.838.853-1.565-.273-2.208,1.714-1.208,3.879-1.1,5.7-1.724.458-.158,1.641-.29,1.412.53-.214.759-.236,1.289.771,1.261,1.168-.033,2.088-1.029,1.77-1.641-.754-1.451.135-2.878-.391-4.295-.85-2.29.044-3.094,2.956-2.821a4.924,4.924,0,0,0,3.055-.777,34.983,34.983,0,0,1,5.927-2.332c2.107-.762,4.383-.059,6.176-1.162.389-.239,1-.131,1.094.171.425,1.406,2.944,1.655,2.844,3.335-.013.221.253.633.445.655,3.08.36,4.5,2.919,7.623,3.506a6.746,6.746,0,0,1,4,3.03c.725,1.477,2.151,2.344,3.291,3.575,1.855-2.617,5.309-2.619,8.156-2.841,1.176-.092,2.547,1.245,3.513-.639a2.119,2.119,0,0,1,.073,2.068c-.094.343.029.947.173.906,1.4-.4,2.419.5,3.58.573a2.641,2.641,0,0,1,2.361,1.115,6.025,6.025,0,0,0,4.257,2.589c1.014.13,1.484.526,1.636,1.279.171.846-.535.9-1.311,1.114-1.261.346-.688.878.042,1.249a5.668,5.668,0,0,0,3.207.391c2.2-.25,3.2.284,2.643,2.14-.041.134.2.322.4.608,1.181-.789.726-2.534,2.66-2.713.138-.013.43-.289.014-.411-.51-.148-1.435-.14-.885-.809.651-.791,1.862-.418,2.829-.493.742-.057.859.423,1.007.933.9,3.093,4.484,4.106,7.7,2.2a1.3,1.3,0,0,1,1.569-.04c.71.517,1.4,1.037.363,2.114,1.074-.468,1.689-.754,2.323-1.009,2.14-.861,2.638-2.417,1.283-4.047-.955-1.149-.246-3.451,1.665-4.705.714-.469,1.264-1.582,2.385-1.192,1.274.443,1.141,1.62.957,2.513-.281,1.36.709,3.026-1.693,3.952.83.475,2.967.111,1.415,1.53a.66.66,0,0,0,.246,1.079c.86.318.538-1.014,1.677-.621.654.6.671,1.372-.089,2.194-.518.559-.224,1.007.392,1.376a1.254,1.254,0,0,0,1.708-.378c.914-.955,1.777-1.942,2.611-2.942.388-.465.283-1.347,1.368-1.2a4.022,4.022,0,0,1,2.87,2.032,1.141,1.141,0,0,1-.648,1.713c-.946.315-1.262.726-1.181,1.52.211,2.06-3.071,3.9-5.388,2.895-1.1-.48-.957-.462-1.56.4a23.522,23.522,0,0,1-4.023,3.78,2.7,2.7,0,0,1-2,.669,3.135,3.135,0,0,0-3.085,1.575c-.555.841-2.469,1.158-3.595,1.945-1.976,1.38-3.782,2.857-4.664,4.893-.082.189-.034.43-.163.584-1.294,1.548,2.154,1.148,1.608,2.569-.36.935-.413,1.964,1.75,2.181,2.538.254,3.466,2.626,5.657,3.527.435.179.8.7,1.183.688,3.762-.127,2.861,1.685,2.246,3.357a2.066,2.066,0,0,0,.377,2.484c.6.545.923,1.518,2.329,1.166,1.313-.329,1.119-1.141,1.138-1.915a7.067,7.067,0,0,0,.048-1.611c-.341-1.6.638-2.348,2.389-2.98,3.125-1.129,3.813-2.986,2.3-5.442-.214-.349-.8-.718-.364-1.068,2.314-1.851,2.537-4.234,2.831-6.619.051-.417.489-.709.985-.855,1.066-.316,5.659,1.254,6.2,2.1.447.692.726,1.461,1.952,1.622.774.1,1.119.5.611,1.18a4.86,4.86,0,0,0-.513,1.319,2.377,2.377,0,0,0,1.626,3.013c.919.338,2.3-.574,3.068-1.407.637-.694,1.142-1.466,1.89-2.445.756,2.32,2.1,4.428,1.941,6.462-.2,2.584,1.262,3.686,3.729,4.585.215.078.51.235.538.383.1.542-1.037.3-.89.714.1.272,1.108-.168,1.185.41s.688.457,1.051.658a.875.875,0,0,1,.4,1.254c-.511,1.281.052,2.755-1.309,3.942-.257.225.058,1.883,1.557,1.735,1.273-.125,1.7-.106,1.44,1.035a1.255,1.255,0,0,0,.531,1.33.929.929,0,0,1-.127,1.613c-.741.5-1.158-.431-1.526-.452-2.311-.128-4.29-1.58-7.027-.687,1.076-2.44,3.483-3.776,4.33-5.85a2.524,2.524,0,0,0-2.59.423,5.052,5.052,0,0,1-4.422,1c-3.522-.551-6.785-.586-9.242,2,.511.271,1.05-.11,1.615-.224s1.151-.225,1.735-.3a1.932,1.932,0,0,1,1.785.551c.266.312.017.6-.25.9-1.585,1.754-.718,3.485,2,3.984.564.1,1.2,0,1.636.631-1.712,1.23-4.441.878-6.062,2.386-.5.468-1.223-.214-1.006-.845.161-.469.614-.874.817-1.52-1.718,1.158-3.994,1.1-5.817,1.936-1.185.544-2.224,1.353-1.4,2.6.493.746-.1.781-.685.872-.989.155-1.981.34-2.982.4-1.147.069-1.92.383-2.173,1.347-.394,1.5-2.49,2.249-2.543,4.076-.023.8-.956-.318-1.483-.555-.323.608.1,1.167.15,1.746a2.5,2.5,0,0,1-1.966,3.055c-2.17.705-3.67,2.262-5.719,3.2-1.82.836-1.51,2.422-1.23,3.836.236,1.189.616,2.359.837,3.548a1.477,1.477,0,0,1-1,1.885c-1.054.263-1.307-.656-1.608-1.243-.5-.969-1.167-1.848-1.022-3.041.134-1.094-.559-1.933-2.4-1.853-1.434.063-2.742-.714-4.27-.739-1.831-.031-3.583-.244-2.452,2.158a27.057,27.057,0,0,1-3.13-.75c-2.243-.85-4.047-.191-6.177.524-2.4.8-3.1,1.721-2.915,3.745.107,1.139-.9,2.385-1.238,3.635-.593,2.21.532,4.024,2.192,5.549,1.987,1.825,6.693,1,7.88-1.219.663-1.24,3.514-2.412,5.05-2.056,1.261.292.594.814.293,1.374-.831,1.548-1.572,3.127-2.355,4.692-.656,1.31.207,1.522,1.552,1.346a16.055,16.055,0,0,1,3.751-.063c2.142.213,2.417,1.077,1.886,2.494a15,15,0,0,0-.6,2.36c-.407,2.056,2.082,3.808,4.518,3.1,1.37-.4,2.733-.684,3.766.211a1.466,1.466,0,0,0,2.507-.335c1.33-2.577,4.987-2.041,6.782-3.777,1.1.769-.8,1.236.159,1.669.882.4,1.293-.211,1.737-.752.562-.686,1.144-.221,1.677.119a9.978,9.978,0,0,0,8.069,1.207,2.784,2.784,0,0,1,2.768.845c1.786,1.587,4.238,2.748,6.27,4.232a4.113,4.113,0,0,0,2.38.536c4.383.046,7.7,2.14,8.625,5.358.223.772-.791,1.14-.917,1.843,3.366.517,6.713.975,9.53,2.716a5.085,5.085,0,0,0,2.454.258c4.042-.143,6.839,1.98,9.966,3.459,1.9.9,1.626,2.384,1.019,3.78a8.317,8.317,0,0,1-2.338,2.615c-1.981,1.74-3.253,3.621-3.127,6.147.132,2.624-1.369,5.042-2.564,7.449a2.4,2.4,0,0,1-2.085,1.017c-2.342-.105-3.9,1.173-5.731,1.9-1.949.774-3.366,1.944-2.71,4.04.386,1.236-2.468,5.325-3.94,5.613-.995.194-.47.644-.618.927-1.005,1.924-1.643,4.066-5.231,3.788-1.652-.128-1.459.987-1.18,1.686.876,2.189.42,3.015-2.332,3.661a7.622,7.622,0,0,1-1.472.278c-1.661.05-2.562.723-2.466,2.02.078,1.05-.408,1.56-1.687,1.5-.625-.03-1,.135-1.162.554-.2.512.21.7.784.805.833.149.954.825.429,1.017-2.7.985-1.145,3.441-2.763,4.834-.512.44-.615,1.528.894,1.9,1.209.3,1.1,1.192.505,1.814a9.853,9.853,0,0,0-1.851,2.774c-.356.76-1.714,1.359-.8,2.275,1.423,1.431,1.186,3.729,3.848,4.517.8.235,1.957.1,2.258,1.053A44.648,44.648,0,0,1,2121.2,2548.23Z" transform="translate(-0.692 -4.518)" fill="#8e8d8b"/>
    <path id="Path_58" data-name="Path 58" d="M2193.753,2336.838c-.058-1.074-.088-1.742-.131-2.409-.057-.9-.813-2.281,1.293-1.428.637.258,1.17-.7,1.355-1.508.365-1.585,1.306-2.053,2.632-1.024a1.91,1.91,0,0,0,2.956-.414c1.117-1.576,2.519-1.49,3.98-1.059,2.106.621,4.308,1.122,6.1,2.59-.729.971-1.611.478-2.3,1.1,2.329-.43,3.483,1.328,5.005,2.381.619.428,1.58.819,1.475,1.576-.124.885-1.179,1.058-1.974,1.344-1.755.634-3.566.2-5.541.126.643,1.108,2.093.292,2.314,1.4.068.34-.439.8-.695,1.218,1.03.281,1.894.465,2.554-.8a1.415,1.415,0,0,1,2.219-.185c.946.807-.385.97-.61,1.468-.552,1.223-2.017,1.424-2.939,2.635,2.365-.169,4.131-1.342,5.912-2.231a3.372,3.372,0,0,1,4.15.348c1.232,1.023,1.192,2.2-.187,2.762-1.252.511-1.8,2.282-3.49,1.865.339,1.194-.65,1.725-1.161,2.55-1.223,1.975-2.622,3.825-3.153,6.25-.277,1.26-.823,2.559-1.124,3.88-.169.744.432.721.869.905,1.02.428.765,1.23.4,1.9-.5.909-1.024.173-1.392-.172-.938-.882-1.363.012-1.816.514-.611.677-.179,1.006.416,1.569.625.593.766,1.678,1.177,2.519.863,1.758-.694,1.3-1.44,1.735-.659.38-.559.957.3,1.207a.61.61,0,0,1,.34,1c-.327.476-.705.213-1.038-.1-.368-.35-.821-.78-1.209-.122a1.3,1.3,0,0,0-.014,1.176c.528.632,1.446,1.118.471,2.019a1.914,1.914,0,0,1-2.566.057c-.867-.634-1.87-1.333-2.548-.229a2.553,2.553,0,0,0,.662,3.258,5.546,5.546,0,0,1,2.228,4.6c-.013.589.33,1.533-1.005,1.585-.972.038-1.6,0-1.926-1.013-.194-.606-.189-1.681-.923-1.6a5.964,5.964,0,0,0-2.934,1.217c-.6.485.045.994.7,1.17,1.5.405,3,.827,4.553,1.256-2.824,3.157-6.6,4.041-10.406,4.658a5.736,5.736,0,0,0-3.99,2.352,5.2,5.2,0,0,1-5.129,2.434c-2.021-.223-4.6,1.917-4.932,3.9-.1.6-.1,1.2-.586,1.583-2.212,1.753-2.924,4.371-3.99,6.787-.257.582-.252,1.314-1.163,1.422a1.614,1.614,0,0,1-1.823-1.027,2.277,2.277,0,0,0-2.257-1.6,2.17,2.17,0,0,1-1.655-1.3c-.273-2.469-2.112-4.551-1.493-7.323.183-.818-.358-2.272-.583-3.434-.863-4.437-.172-5.9,3.672-8.664.967-.7,1.526-1.958,2.477-3.235a6.731,6.731,0,0,1-3.174-1.532c-.411-.4-1.149-.75-.8-1.4.422-.792,1.2-.4,1.775-.1a9.758,9.758,0,0,1,1.447,1.136c.342-1.023-.259-1.826-.441-2.662-.145-.667-.331-1.991-1.555-.744a.724.724,0,0,1-1.113-.044c-.455-.412-.356-.786-.051-1.311,1.409-2.429,2.617-4.917.994-7.748,1.9-1.682-.525-3.454.124-5.276.505-1.417-2.458-3.806-4.456-3.619-1.229.115-2.334-.574-3.666-.134-.721.24-2-1.253-1.676-1.817.71-1.252.084-1.816-.425-2.756-.45-.833.543-1.233,1.167-1.1,1.224.269,2.412-.465,3.723-.005a5.835,5.835,0,0,1-4.044-3.112c-.769-1.463-.488-2.414.958-2.637,1.993-.308,3.914-1.32,5.947-.985,1.855.306,2.539-.889,3.409-2.032.511-.669.344-1.167-.357-1.349-2-.518-.912-1.639-.2-2.01,1.728-.905,2.976-3.047,5.514-2.139,1.062.38,1.285-.792,1.509-1.593.286-1.027.427-2.02,1.993-1.244.852.423.284-1.335,1.4-1.287a10.759,10.759,0,0,0,4.217-.26c.844-.3,1,.576.7,1.355a1.962,1.962,0,0,0,1.465,2.613c1.362.363,1.427-.953,1.467-2,.023-.584.141-1.383.708-1.5.789-.16,1.066.6,1.295,1.274A3.957,3.957,0,0,0,2193.753,2336.838Z" transform="translate(-61.613 -2.293)" fill="#8e8d8b"/>
    <path id="Path_59" data-name="Path 59" d="M2492.051,2604.184c-1.042.3-1.219,1.176-2.12.839l1.8-3.676-.286-.216c-.9.807-1.785,1.624-2.7,2.413-.278.241-.378.9-.925.575a1.324,1.324,0,0,1-.407-.83c-.877-4.428-4.6-6.509-8.846-5.008-2.856,1.008-6.146,1.015-8.243,3.753-.2.259-.961.174-1.444.113a7.174,7.174,0,0,0-5.264,1.322,3.369,3.369,0,0,1-3.323.654c-1.372-.591-2.819-1.082-1.394-3.261,1.291-1.974.613-4.485.276-6.671-.26-1.687-.877-3.422-1.251-5.1s.509-3.582.528-5.391c.036-3.285,2.656-4.11,4.863-4.86,1.792-.608,3.514-1.557,5.492-1.743,1.649-.155,2.264-1.675,2.8-2.976.669-1.621.6-1.508,2.2-1.795.6-.107,1.191-1.053,1.5-1.744a8.5,8.5,0,0,1,2.5-2.764,1.565,1.565,0,0,1,2.577.14c.937,1.127,1.747,1.456,2.585-.418.652-1.458,2.323-2.393,3.451-3.474,2.62-2.508,4.5,1.008,6.714-.053,1.012-.484.881.614.568,1.24-1.713,3.422-1.724,3.42,1.323,5.439.485.321.99.614,1.492.908,3.041,1.78,3.088,1.672,4.113-1.875.739-2.557-.167-5.477,1.774-7.746.138.07.393.124.41.219.6,3.406,3.839,5.652,4.119,9.137.2,2.457,1.286,3.941,3.27,5.439,1.518,1.146,2.172,3.439,3.2,5.229.206.359.254.893.548,1.1,3.328,2.36,2.618,6.05,2.184,9a16.58,16.58,0,0,1-3.878,9.105,18.774,18.774,0,0,0-4.386,8.433c-.288,1.291-.816,2-2.139,1.967a3.631,3.631,0,0,0-2.478,1.1c-1,.841-1.98,2-3.086.067-.172-.3-.675-.313-1.149-.2-3.576.814-5.745-.8-5.9-4.588C2493.063,2606.544,2491.127,2605.963,2492.051,2604.184Z" transform="translate(-175.794 -92.302)" fill="#8e8d8b"/>
    <path id="Path_60" data-name="Path 60" d="M2183.663,2321.615c-.295,1.351-1.692,1.767-2.865,2.255-1.016.426-2.905-.447-2.626,2,.051.436-1.7,1.153-2.676,1.609a16.2,16.2,0,0,0-5.526,3.8c-1.483,1.676-3.788,1.021-5.805,1.585.915.807,1.087,1.5-.3,1.859,1.077,1.955-1.1,2.463-1.64,3.7a.863.863,0,0,1-.971.614c-2.335-.451-2.483,2.443-4.3,2.8-.107.02-.233.624-.178.66,1.214.721,1.219,1.772,0,2.042-1,.223-2.219,2.316-3.484-.02-.33-.6-2.255-1.006-2.95-.615-1.372.767-2.179.015-3.144-.462-.686-.34-1.884-.254-1.787-1.4a2.147,2.147,0,0,1,2.153-1.828c1.473-.066,2.214-.27,1.661-1.945a.893.893,0,0,1,.747-1.133.972.972,0,0,1,1.127.788c.2.614.153,1.371,1.524,1.722-1.179-1.087,1-2.712-1.61-3.444-1.031-.289.686-2.392,1.371-2.483,3.4-.452,3.611-2.448,3.144-5.165a1.8,1.8,0,0,1,1.143-2.067c.924-.264,1.595.361,2.087,1.072a10.765,10.765,0,0,1,.752,1.529c.645-.594-.457-2.113,1.2-2.1,2.433.757,2.813.661,3.641-.965-1.061.147-2.092.284-3.124.427-1.549-.671-3.331-.609-4.748-1.793-.894-.746-1.372-1.4-.991-2.539.3-.9.706-1.7-.092-2.708-.462-.584.371-1.173.991-1.472a5.325,5.325,0,0,1,2.981-.422c1.2.244,2.012,1.453,2.428-.812.163-.9,1.2-1.508,1.93-.065.619,1.239,1.32,1.051,1.579-.138.254-1.157,1.229-1.29,1.945-1.656,1.757-.888,3.8-.279,5.622-.365,3.408-.162,6.78,1.463,9.533,3.641A3.907,3.907,0,0,1,2183.663,2321.615Z" transform="translate(-54.341)" fill="#8e8d8c"/>
    <path id="Path_61" data-name="Path 61" d="M2144.591,2371.154c.054,1.664-.091,2.088-2.085,1.7-2.954-.575-5.406-2.007-7.965-3.3-1.174-.6-1.633-1.619-.453-2.75.146-.14.492-.277.474-.35-1.091-4.508,2.758-5.828,5.194-8.045a2.441,2.441,0,0,1,.922-.407c.854-.265,1.822-.351,2.292.489.63,1.128-.565,1.377-1.206,1.8-2.17,1.444-2.179,1.429-1.726,4.081.724-3.015,2.555-4.019,4.86-4.5,2.08-.435,2.54-.051,2.024,1.941-.127.49-.24.985-.405,1.462-.576,1.67.315,1.924,1.668,1.76,2.949-.355,3.41.085,3.8,3.025.1.775-.529,3.091,1.8,1.491.368-.254.645.141.782.427.536,1.116-.671,1.255-1.728,2.074a5.764,5.764,0,0,1,3.26.74c.833.4,1.046.82.412,1.51-.6.649-.793,1.03.38.753.474-.112.55.242.663.556-1.413.375.206,2.154-1.63,2.917-1.719.714-.177,2.77.918,3.367,1.732.945,1.934,3.093,3.743,3.94.713.334-.293,1.014-.671,1.526-.871,1.181-2.824,1.212-2.948,3.149-1.474-.65-1.315-2.008-1.855-2.954-.3-.528-.684-1.444-1.4-1.19-.455.161-.807,1.022-.924,1.624a2.5,2.5,0,0,0,.479,2.139c1.573,1.965,1.636,3.943-.2,5.789l-2.965-2.471c-.4.835.187,1.305.385,1.852.264.729,1.393,1.484.451,2.192-.715.538-1.849-.232-2.177-.8-.962-1.665-3.5-1.893-3.409-4.732.062-1.922-2.5-2.361-4.365-2.613-.953-.129-2.465.2-2.155-1.295.242-1.17,1.228-1.946,2.894-1.184,1.491.681,3.213.675,3.64-1.663a2.29,2.29,0,0,1,1.694-1.718,2.647,2.647,0,0,0,1.989-2.872,3.61,3.61,0,0,0-2.324-3.264c-1.157-.345-.408-.386-.418-1.011A8.255,8.255,0,0,0,2144.591,2371.154Z" transform="translate(-49.421 -6.938)" fill="#8e8d8b"/>
    <path id="Path_62" data-name="Path 62" d="M2101.618,2351.706c.719-.13,1.52-.943,2.115-.348.79.788-.73,1.287-.616,2.151,1.27-.233,2.746-.994,2.6,1.456-.06.992.439.958,2.2-.539,1.039,1.575-.278,3-.5,4.707,1.85-.847,1.793-2.437,2.275-3.706.316-.834.347-2.042,1.687-1.691s1.509,1.434,1.158,2.634a16.449,16.449,0,0,1-1.355,4.031c-1.468,2.288-.109,3.762.861,5.409.357.6.837,1.032.349,1.771-.5.762-.975.2-1.512.063-1.179-.29-1.222-.2-.912.938a1.1,1.1,0,0,1-1.145,1.53c-.812-.005-1.961-.1-2.375-.626-1.982-2.506-4.334-1.453-6.629-.907a8.73,8.73,0,0,1-3,.271,3.981,3.981,0,0,1-1.082-.417c.885-2.348-1.318-3.14-2.172-4.639-.808-1.418.313-2.5,2.067-2.3a6.491,6.491,0,0,1,2.661.747c.494.295,1.2.715,1.5-.056.292-.741-.383-1.264-1.027-1.471-.794-.256-1.676-.243-2.465-.507s-2.005-.285-1.756-1.671c.226-1.264,1.285-.769,2.043-.906.216-.039.424-.122.708-.206-.479-.978-2.558-1.046-1.934-1.938.915-1.307,1.96-3.021,4.061-2.944A2.137,2.137,0,0,1,2101.618,2351.706Z" transform="translate(-35.066 -5.872)" fill="#8f8e8c"/>
    <path id="Path_63" data-name="Path 63" d="M2517.591,2556.439c-2.419-.225-4.616-.555-6.262-2.826-1.542-2.129-2.908-1.826-4.415.6-.4.635-.88.609-1.5.54-2.577-.291-4.707-1.116-5.676-3.859-.562-1.589-1.729-2.87-3.549-2.784-1.619.076-2.724-2.34-4.534-.813-.235-.328-.708-.7-.662-.979.245-1.489-.731-2.127-1.728-2.819-.7-.481-.174-.829.208-1.148a2.471,2.471,0,0,1,2.567-.4c1,.314,1.466.827,1.308,1.8-.178,1.1.649,1.564,1.3,1.958.966.587,1.279-.567,1.7-1.042a3.232,3.232,0,0,1,4.2-.937,47.314,47.314,0,0,0,6.984,2.18c2.495.619,3.507,3.323,5.924,3.979-1.373,3.216,2.035,3.457,3.155,5.126C2516.923,2555.478,2517.736,2555.558,2517.591,2556.439Z" transform="translate(-180.758 -73.832)" fill="#8f8e8c"/>
    <path id="Path_64" data-name="Path 64" d="M2453.788,2537.542c1.044-1.018,2.752-2.124,3.644-3.694,1.064-1.875,3.215-2.666,4-4.758.4-1.058,1.523-.366,1.788.213.383.84,2.468.645,1.45,2.173-1.295,1.946-1.423,3.7.353,5.378.319.3.529.455.143.967a15.243,15.243,0,0,0-2.85,5.968c-.246,1.125-.878,2.31-2.531,1.316-.435-.262-1.132-.08-1.708-.115-3.691-.228-5.624-1.722-6.544-5.212C2451.183,2538.454,2451.169,2537.158,2453.788,2537.542Z" transform="translate(-174.762 -69.838)" fill="#8f8e8c"/>
    <path id="Path_65" data-name="Path 65" d="M2341.936,2564.295a6.966,6.966,0,0,1,1.392,6.422c-.771,3.831-2.276,7.411-3.192,11.169-.466,1.915-1.336,3.135-3.309,3.64a2.081,2.081,0,0,1-2.417-.863,5.235,5.235,0,0,1-.583-5.516,5.618,5.618,0,0,0,.767-4.7,2.855,2.855,0,0,1,2.152-3.677C2339.521,2569.872,2341.28,2567.832,2341.936,2564.295Z" transform="translate(-116.898 -82.193)" fill="#8f8e8c"/>
    <path id="Path_66" data-name="Path 66" d="M2331.225,2378.263a14.334,14.334,0,0,1-3.134-2.117c-2.4-1.691-2.216-2.993-1.229-5.121.744-1.6-.175-3.705,1.4-5.134a.983.983,0,0,0,.291-.688c-.193-3.3,2.744-4.346,4.476-6.253a1.566,1.566,0,0,1,1.355-.576,3.68,3.68,0,0,0,4.07-1.858,1.584,1.584,0,0,1,2.03-.6c.955.375.951,1.259,1.04,2.119.11,1.066-.594,1.119-1.337,1.423a15.3,15.3,0,0,0-9.838,11.776,5.544,5.544,0,0,0,1.766,5.538c.364.316.851.627.613,1.258C2332.443,2378.772,2331.917,2378.39,2331.225,2378.263Z" transform="translate(-115.137 -6.612)" fill="#8e8d8c"/>
    <path id="Path_67" data-name="Path 67" d="M2147.752,2330.2c-.449-1.282-2.434-.995-2.055-2.214.532-1.711.906-3.839,2.593-4.708,1.271-.654,1.381-2.838,3.339-2.378a.621.621,0,0,0,.2-.386c-.016-.426-1.512-1.061.113-1.215.8-.076,1.1.815,1.078,1.468-.061,1.79-.045,3.441,1.487,4.8.451.4.2,1.491-.275,2.123a1.4,1.4,0,0,0-.152,1.783c.369.659.4,1.781-.427,1.97-1.712.387-2.658,1.677-3.894,2.65a3.493,3.493,0,0,1-3.673.543c-1.155-.5-.956-1.611-.933-2.611C2145.184,2330.376,2146.406,2330.148,2147.752,2330.2Z" transform="translate(-52.407 -0.787)" fill="#8f8e8c"/>
    <path id="Path_68" data-name="Path 68" d="M2493.221,2453.61c3.488,2.816,1.833,6.444,2.1,9.733a.646.646,0,0,1-.043.25c-.413,1.2,1.472,3.017-.384,3.529a15.97,15.97,0,0,1-3.436,1.033c-.491.024-1.13-.438-1.173.694-.02.541-.387,1.664-1.368,1.511-1.1-.173-.705-1.372-1.124-2.2-.829.306-1.64.673-2.49.9-1.34.364-2.554.606-1.492,2.512.352.633.066,1.656-.029,2.49-.077.679-.295,1.407-1.206,1.309-.815-.089-.679-.862-.787-1.4-.14-.7.418-1.739-1.052-1.665-.313.016-.245-.637-.042-.864,1.771-1.967,2.522-5.111,5.957-5.177.412-.008.984-.052,1.2-.313,1.09-1.305,1.749-2.707,3.537-3.7,1.747-.971,1.53-3.882.827-6.076A2.122,2.122,0,0,1,2493.221,2453.61Z" transform="translate(-179.417 -45.833)" fill="#8e8e8c"/>
    <path id="Path_69" data-name="Path 69" d="M2100.581,2350.667l-2.2.841c-3.06-1.248-4.7,1.358-6.271,2.876-1.275,1.234-2.612,1.067-3.875,1.617-.466.2-1-.045-.825-.519.467-1.237-1.37-2.282-.233-3.484,1.381-1.459,2.792-2.889,4.211-4.312.411-.411,1.044-.692.982-1.377-.116-1.295.626-1.432,1.681-1.586C2097.988,2344.145,2100.543,2346.422,2100.581,2350.667Z" transform="translate(-15.137 -4.833)" fill="#8f8e8c"/>
    <path id="Path_70" data-name="Path 70" d="M2426.66,2531.147c1.589.432,3.1.542,4.49,2,2.152,2.269,5.385,3.667,7.087,6.165,1.587,2.331,5,4.021,4.035,7.8-.185.725-.3,1.171-1.091,1.414-.747.229-1.1,0-1.724-.42-3.267-2.19-5.12-5.49-6.941-8.751a18.246,18.246,0,0,0-5.191-6.33A1.446,1.446,0,0,1,2426.66,2531.147Z" transform="translate(-149.81 -70.761)" fill="#8e8d8c"/>
    <path id="Path_71" data-name="Path 71" d="M2250.369,2437.643c1.808-.7,1.214-2.821,2.763-3.7.547-.312-.158-1.679-.66-1.953-2.526-1.382-2.322-3.728-2.262-5.972a2.125,2.125,0,0,1,1.682-2.234c.438-.077,1.513-.355,1.084.658-.9,2.118,1.763.5,1.73,1.8-.027,1.026-1.581,1.866-.7,2.724,2.049,1.993,2.407,5.271,5.229,6.649a.925.925,0,0,1,.146,1.535c-1,.682.44,2.747-1.712,2.707a27.34,27.34,0,0,0-7.663,1.248l2.38-2.664Z" transform="translate(-88.318 -35.68)" fill="#8f8e8c"/>
    <path id="Path_72" data-name="Path 72" d="M2145.778,2350.834h3.264c1.648,0,2.795.7,2.67,2.453a2.841,2.841,0,0,1-3.624,2.487,17.266,17.266,0,0,0-5.014-.874c-1.606-.107-2.795-1.165-4.159-1.767-1.425-.63-.847-2.043-.156-3.037,1.082-1.554,1.893-2.879-.6-3.918-.9-.377-.855-1.545-1.064-2.412-.084-.347.251-.595.633-.619.979-.064,2.145.083,2.3,1.094.254,1.7,2.711.725,2.709,2.527,0,.356.619.65.283,1.114-1.2,1.659-.878,2.292,1.537,2.926a8.491,8.491,0,0,0,1.22.141Z" transform="translate(-49.944 -4.593)" fill="#8f8e8c"/>
    <path id="Path_73" data-name="Path 73" d="M2276.178,2352.587c.483-.61-.171-1.6.646-1.833.7-.2,1.145.509,1.623.986,1.218,1.216,1.6,3.233,4.517,3.718-3.029.841-2.42,2.87-2.9,4.388-.493,1.569-.827,3.188-1.331,5.184a31.5,31.5,0,0,1-2.342-2.563c-.418-.572-1.729-1.318.018-2,.384-.15.221-.428-.211-.616-1.954-.851-2.458-2.924-3.508-4.495-.617-.925-1.724-2.353-.249-3.438C2273.679,2351.012,2274.972,2351.624,2276.178,2352.587Z" transform="translate(-95.915 -5.804)" fill="#8f8e8c"/>
    <path id="Path_74" data-name="Path 74" d="M2112.717,2345.626a36.067,36.067,0,0,1-3.958-.849c-.443-.147-1.168-.565-.96-1.294.168-.589.777-.574,1.281-.5,1.415.2.446-.768.631-1.078.786-1.323,1.925-2.778,3.536-2.648,1.145.092,1.705,1.564,1.9,2.818a6.286,6.286,0,0,1,.133,1.242c-.022.523-.121,1,.6,1.144.639.13.8-.3,1.169-.664,1.186-1.2.59-3.712,3.045-3.963.792.657-.32,1.26-.158,1.988.2.885-1.276,2.68,1.351,1.927.518-.149.788.527.7,1.084-.215,1.4-3.1,3.328-4.518,2.826a4.708,4.708,0,0,0-4.34.288,2.247,2.247,0,0,1-1.219.239c-.907-.044-2.171.055-2.228-1.118-.055-1.156,1.2-.841,1.971-.989A7.81,7.81,0,0,0,2112.717,2345.626Z" transform="translate(-39.833 -3.973)" fill="#8f8e8c"/>
    <path id="Path_75" data-name="Path 75" d="M2547.316,2621.093c.212.808-.406,1.24-.733,1.81-1.911,3.335-4.886,5.9-6.576,9.447-.617,1.294-1.756,3.062-4.224,1.541-1.585-.977-1.488-1.578-.7-2.729a12.657,12.657,0,0,1,3.7-4.038c2.613-1.619,4.2-4.21,5.624-6.882.26-.489.384-1.771,1.175-.953C2546.144,2619.878,2547.9,2619.49,2547.316,2621.093Z" transform="translate(-188.039 -101.409)" fill="#8f8e8c"/>
    <path id="Path_76" data-name="Path 76" d="M2549.9,2601.722a3.986,3.986,0,0,1,2.213,3.154c.154,1.659,1.888,2.35,2.706,3.669.618,1,1.389-.425,2.273-.517a1.866,1.866,0,0,1-.169,2.286c-1.665,1.964-2.089,4.561-3.544,6.606-.389.546-.6,1.622-1.616,1.183-1.3-.559-.085-1.206.054-1.817.093-.4.35-1.1.229-1.174-2.362-1.47-.914-3.037-.309-4.72a4.784,4.784,0,0,0-.621-4.1A6.727,6.727,0,0,1,2549.9,2601.722Z" transform="translate(-190.484 -98.647)" fill="#908f8e"/>
    <path id="Path_77" data-name="Path 77" d="M2229.849,2405.6c-.674-.893-1.661-.213-1.751-.953-.088-.721.633-1.1,1.253-1.427a.909.909,0,0,1,1.427.534c.44,1.761.519.652,1.411.2,1.424-.719,3.324-.543,5.028-.65,1.224-.078.889,1.231,1.258,1.828a1.965,1.965,0,0,1-.833,2.392,7.738,7.738,0,0,1-7.968,1.19c-.32-.13-.76-.464-.382-.586C2231.5,2407.415,2225.714,2405.844,2229.849,2405.6Z" transform="translate(-80.893 -28.354)" fill="#8f8f8d"/>
    <path id="Path_78" data-name="Path 78" d="M2433.534,2335.712l-.661-3.361c1.361.839,3.613-.478,3.792,2.256.12,1.833-1.189,1.382-2.214,1.344-.154.951.813.706,1.132,1.292-.938.692-2.171.925-2.924,2.032-1.06,1.557-2.187.1-3.3-.239-1.643-.5-1.87-2.069-2.6-3.245-.4-.641.043-1.36.339-1.917.913-1.716,2.01,1.944,3.062-.076.729-1.4,1.338-1.166,2.487.874A11.359,11.359,0,0,0,2433.534,2335.712Z" transform="translate(-148.827 -2.872)" fill="#908f8d"/>
    <path id="Path_79" data-name="Path 79" d="M2120.542,2364.571c-.947-1.541-.826-3.477-2.153-4.817a1.508,1.508,0,0,1,.356-2.029c.677-.431.984.107,1.423.553.86.872,1.123.178,1.19-.614.262-3.109,1.015-3.611,3.956-2.439,1.6.638.141,1.56-.149,1.868-.593.63-1.1.918-.6,1.962a2.852,2.852,0,0,1-1.889,4.2C2121.789,2363.475,2121.431,2364.332,2120.542,2364.571Z" transform="translate(-43.091 -6.431)" fill="#8f8e8c"/>
    <path id="Path_80" data-name="Path 80" d="M2479.225,2538.4c-.867,2.159-2.15,1.881-3.285,1.97-.793.062-2.1-.4-2.173.635-.1,1.41,1.442.562,2.316,1.125-2.152,1.376-2.157,3.076-.534,4.832.724.783-.247.609-.387.665-.6.236-1.256,1.229-1.855.019-.318-.641-.582-1.31-.918-2.075a6.45,6.45,0,0,0-.588,3.025.746.746,0,0,1-.757.816.6.6,0,0,1-.692-.585c.238-2.245-.76-4.34.136-6.811,1.038-2.86,2.954-2.86,5.043-2.93A7.062,7.062,0,0,0,2479.225,2538.4Z" transform="translate(-177.753 -72.241)" fill="#8f8e8d"/>
    <path id="Path_81" data-name="Path 81" d="M2485.024,2415.34c3.469,4.153,4.837,9.558,8.465,13.684-.907.192-1.372-1.217-2.1-.481-.565.573-.169,1.453-.094,2.192a5.19,5.19,0,0,0,1.8,2.964c.5.526,1.31.818,1.034,1.843-.89-.495-1.92-1.517-2.321.845C2490.711,2428.774,2486.027,2422.7,2485.024,2415.34Z" transform="translate(-180.135 -33.189)" fill="#908f8e"/>
    <path id="Path_82" data-name="Path 82" d="M2493.365,2442.287c2.441.71,3.117,3.883,5.937,2.875.162-.058.97,1.094,1.125,1.764.17.738-.7.746-1.2.982-.364.17-.93.4-.977.673-.281,1.646-1.111,1.139-2.118.73-1.435-.582-1.54-.5-1.273,1.065.107.624-.3.694-.558.921-.371.327-.681.326-.873-.275-.287-.893-1.334-1.69-.415-2.715C2494.6,2446.533,2494.211,2444.577,2493.365,2442.287Z" transform="translate(-181.351 -41.114)" fill="#908f8e"/>
    <path id="Path_83" data-name="Path 83" d="M2128.713,2362.077c-.752-.028-1.156-.288-.852-.936.6-1.286.641-2.747,1.406-4,1.618-2.65,4.124-3.1,6.418-1.06.366.326.621.74.24,1.03-1.446,1.1-2.17,3.452-4.553,2.945-.884-.188-.922.343-1.277.751A15.1,15.1,0,0,1,2128.713,2362.077Z" transform="translate(-46.399 -6.457)" fill="#8f8e8c"/>
    <path id="Path_84" data-name="Path 84" d="M2365.833,2329.774c1.715.64,4.218.757,3.647,3.3-.3,1.336,1.99,2.514.262,3.273-1.687.74-3.378-.608-4.857-1.449a2.644,2.644,0,0,1-1.279-3.5C2364.051,2330.171,2364.9,2330,2365.833,2329.774Z" transform="translate(-126.734 -2.46)" fill="#8f8e8c"/>
    <path id="Path_85" data-name="Path 85" d="M2288.98,2350.5c.1,1.554-2.861,3.844-4.04,3.256a9.671,9.671,0,0,1-3.745-2.665c-.653-.87-.93-1.429.015-2.185.6-.48.763-1.476,1.929-.264.842.875,2.75-.383,4.041.533C2287.831,2349.632,2288.847,2349.676,2288.98,2350.5Z" transform="translate(-98.639 -5.38)" fill="#908f8e"/>
    <path id="Path_86" data-name="Path 86" d="M2109.111,2337.572c-.477-.867.51-1.328.223-2.012-.54-.2-.759.234-.951.555-1.1,1.838-2.41,2.529-4.521,1.363-.908-.5-1.016-1.132-.368-1.379,3-1.145,5.179-4.168,8.8-3.882.412.033.931-.651,1.2.223a1.088,1.088,0,0,1-.3,1.119C2112,2335.011,2110.964,2336.6,2109.111,2337.572Z" transform="translate(-38.056 -2.815)" fill="#8e8e8c"/>
    <path id="Path_87" data-name="Path 87" d="M2130.65,2396a8.786,8.786,0,0,1-1.354.64c-.714.2-1.575,1.458-2.1.344-.371-.789-1.394-2.137.176-3.064a5.241,5.241,0,0,0,.887-.888c.864-.864,1.19-2.252,2.557-2.625.042,1.541,1.591,2.277,1.953,3.635a8.789,8.789,0,0,1,.349,2.22c0,.661,1.594,1.409.04,1.932-.924.312-1.533-.4-1.743-1.329A.959.959,0,0,0,2130.65,2396Z" transform="translate(-45.923 -24.377)" fill="#8f8f8d"/>
    <path id="Path_88" data-name="Path 88" d="M2243.86,2439.692c-.853-.181-2-.286-1.034-1.818.224-.353.759-.86.671-1.006-1.292-2.141.807-2.808,1.673-4,.787-1.085,1.847-.779,2.688-.3.747.425,1.585,1.182.409,2.146-.366.3-.29.731-.327,1.149A4.38,4.38,0,0,1,2243.86,2439.692Z" transform="translate(-85.409 -37.734)" fill="#908f8d"/>
    <path id="Path_89" data-name="Path 89" d="M2132.793,2333.816c.273-1.221-.771-1.732-1.7-2.245-.627-.347-.905-1.277-.493-1.258,2.308.107,1.548-1.531,1.859-2.691.408-1.526,1.675-1.024,2.346-.391,2.15,2.028,1.466,6.7-1.077,8.029a1.118,1.118,0,0,1-.924.055C2132.256,2334.977,2132.473,2334.462,2132.793,2333.816Z" transform="translate(-47.161 -1.956)" fill="#908f8d"/>
    <path id="Path_90" data-name="Path 90" d="M2126.8,2345.159c.354-.7,1.48-.59,1.643-1.67.079-.526.479-1.271,1.075-.188.265.481.626.572.768-.13.509-2.514,1.807-.529,2.508-.283,1.267.444.636,1.445.1,2.146-.85,1.118-1.765,2.191-2.719,3.224a1.92,1.92,0,0,1-2.351.15c-.831-.372-.576-1.128-.164-1.688C2128.729,2345.264,2126.483,2346.165,2126.8,2345.159Z" transform="translate(-45.976 -4.398)" fill="#908f8e"/>
    <path id="Path_91" data-name="Path 91" d="M2475.171,2517.565a5.043,5.043,0,0,0-4.294-1.995c-1.138.019-1.428-1.084-1.951-1.777-1.468-1.946-.084-3.845.348-5.707.208-.9,1.336-.228,2.033-.416.732-.2.36.688.438,1.1a4.528,4.528,0,0,1-.389,3.591c-.562.886-.683,2.109,1.139,2.087C2474.191,2514.431,2474.938,2515.473,2475.171,2517.565Z" transform="translate(-177.46 -62.191)" fill="#929290"/>
    <path id="Path_92" data-name="Path 92" d="M2445.992,2553.547c.67-.506,1.238-1.234,1.571-1.139,3.065.868,6.458.457,9.256,2.05.724.413,2.832.087,2.229,1.653-.5,1.3-2-.014-3.082.091-1.749.17-3.332-1.03-5.147-.968C2449.1,2555.292,2447.707,2554.26,2445.992,2553.547Z" transform="translate(-173.904 -75.823)" fill="#8f8e8d"/>
    <path id="Path_93" data-name="Path 93" d="M2379.419,2334.281c-.013.7-3.34,3.814-3.9,3.581-.687-.284-.847-1.028-1-1.659-.333-1.361.007-2.846-.816-4.137a.777.777,0,0,1,.365-1.076c1.445-.318,2.449.843,3.683,1.266A2.439,2.439,0,0,1,2379.419,2334.281Z" transform="translate(-130.048 -2.646)" fill="#908f8e"/>
    <path id="Path_94" data-name="Path 94" d="M2511.184,2627.043c-.66,2.47-1.092,4.552-3.5,5.7-1.6.764-1.84-.082-1.938-1.114a36.5,36.5,0,0,1,.02-4.255c.016-.755.631-1.277,1.092-.765C2508.091,2627.984,2509.488,2627.1,2511.184,2627.043Z" transform="translate(-183.434 -102.588)" fill="#90908e"/>
    <path id="Path_95" data-name="Path 95" d="M2108.314,2496.163c1.974-2.175,4.073-2.494,7.293-.647,2.523,1.447,4.783,3.349,7.644,5.4-2.292.376-3.575,1.043-5.092-1.26C2116.007,2496.382,2112.481,2495.06,2108.314,2496.163Z" transform="translate(-40.055 -57.598)" fill="#919190"/>
    <path id="Path_96" data-name="Path 96" d="M2472.987,2526.323c.758-1.5,1.462-2.555,3.017-2.375a1.158,1.158,0,0,0,1.04-.433c.569-.492.992-1.715,1.946-.982,1.137.873,1.173,2.4,1.127,3.673-.035.949-.985,1.687-1.957,1.97a1.177,1.177,0,0,1-1.47-.726C2476.253,2525.071,2474.753,2525.66,2472.987,2526.323Z" transform="translate(-178.213 -66.43)" fill="#929290"/>
    <path id="Path_97" data-name="Path 97" d="M2362.69,2328.258a3.977,3.977,0,0,1-2.592-3.361,2.345,2.345,0,0,1,1.405-2.656c.589-.2,3.916,3.122,3.925,3.767C2365.436,2326.521,2363.571,2328.219,2362.69,2328.258Z" transform="translate(-125.372 -1.256)" fill="#91908e"/>
    <path id="Path_98" data-name="Path 98" d="M2125.9,2504.786c1.222-.3,3.6.046,1.369-2.454,2.852.1,5.452-.015,7.3,2.739C2131.619,2505.044,2128.905,2506.384,2125.9,2504.786Z" transform="translate(-45.778 -59.763)" fill="#929290"/>
    <path id="Path_99" data-name="Path 99" d="M2150.905,2362.643c-.27-1.18-.021-2.056,1.4-1.955,1.818.13,2.546,1.363,2.735,3.014.065.559-.063.862-.8.863C2151.729,2364.568,2150.928,2364.157,2150.905,2362.643Z" transform="translate(-54.025 -7.395)" fill="#8e8d8c"/>
    <path id="Path_100" data-name="Path 100" d="M2050.525,2428.093c-.046,1.292,1.05,2.022,1.491,3.068.174.411.484,1.019.029,1.391-.475.388-.985.01-1.292-.371-1.382-1.72-3.649-2.812-4.076-5.556,1.47.534,2.543,1.387,3.88,1.5Z" transform="translate(-8.73 -35.875)" fill="#90908e"/>
    <path id="Path_101" data-name="Path 101" d="M2402.368,2527.182c.095,1.517-.368,2.294-1.588,2.44-1.129.135-1.544-.552-1.391-1.521.2-1.282-.192-3.289,1.366-3.482S2401.826,2526.519,2402.368,2527.182Z" transform="translate(-138.388 -67.059)" fill="#908f8e"/>
    <path id="Path_102" data-name="Path 102" d="M2114.829,2374.528c1.839-.425,1.629-3.115,3.533-2.174,1.037.512,2.2,2.156,1.064,3.367C2117.753,2377.5,2116.727,2375.211,2114.829,2374.528Z" transform="translate(-41.824 -9.227)" fill="#919090"/>
    <path id="Path_103" data-name="Path 103" d="M2123.784,2333.287c-1.18.977-.875,3.625-3.316,2.977a1.406,1.406,0,0,1-.939-2.016C2120.4,2332.125,2122.193,2333.213,2123.784,2333.287Z" transform="translate(-43.343 -2.966)" fill="#979695"/>
    <path id="Path_104" data-name="Path 104" d="M2138.974,2337.155c.293-1.1.378-2.687,1.808-2.571,1.076.087,1.589,1.487,1.418,2.63-.152,1.017-.622,1.848-2.042,1.631C2139,2338.669,2138.71,2338.189,2138.974,2337.155Z" transform="translate(-49.918 -3.227)" fill="#929290"/>
    <path id="Path_105" data-name="Path 105" d="M2470.108,2497.927c-1.728-2.611-1.652-4.283.168-5.82.31-.261.579-.677,1.064-.416a.964.964,0,0,1,.42,1.3C2471.216,2494.606,2470.678,2496.223,2470.108,2497.927Z" transform="translate(-177.554 -56.665)" fill="#959595"/>
    <path id="Path_106" data-name="Path 106" d="M2442.041,2333.458c1.754,0,2.979-.014,4.2.007.607.01,1.288.182,1.342.845a1.191,1.191,0,0,1-1.119,1.176A4.281,4.281,0,0,1,2442.041,2333.458Z" transform="translate(-153.324 -3.048)" fill="#8f8f8d"/>
    <path id="Path_107" data-name="Path 107" d="M2134.5,2349.421c.768.016,1.46.235,1.4,1.081a2.493,2.493,0,0,1-2.08,2.2c-1.1.25-.943-.8-1.073-1.519C2132.469,2349.67,2133.59,2349.652,2134.5,2349.421Z" transform="translate(-47.809 -5.597)" fill="#8d8d8b"/>
    <path id="Path_108" data-name="Path 108" d="M2144.927,2649.823c1.777-1.7,4.023-.544,6.005-.99-.839.867-2.128.855-3.039,1.871C2147.011,2651.689,2145.7,2650.915,2144.927,2649.823Z" transform="translate(-52.127 -106.169)" fill="#b4b4b3"/>
    <path id="Path_109" data-name="Path 109" d="M2278.5,2471.311c1.922-.417,3.224-1.237,4.434-.15.275.248.379,1.664-.2,1.776C2281.3,2473.213,2280.2,2472.218,2278.5,2471.311Z" transform="translate(-97.509 -49.603)" fill="#989897"/>
    <path id="Path_110" data-name="Path 110" d="M2016.061,2398.994c-.781-.025-1.115-.488-1.094-.969.076-1.813,1.924-1.434,2.886-2.166.294-.224,1.065.193.941.522C2018.3,2397.7,2016.727,2397.931,2016.061,2398.994Z" transform="translate(-3.667 -25.888)" fill="#989898"/>
    <path id="Path_111" data-name="Path 111" d="M2451.972,2503.924c.918,0,1.312.34,1.119,1.086-.24.926-.677,1.786-1.75,1.9a1.086,1.086,0,0,1-1.267-1.22C2450.161,2504.476,2451.094,2504.084,2451.972,2503.924Z" transform="translate(-174.554 -60.242)" fill="#909090"/>
    <path id="Path_112" data-name="Path 112" d="M2272.489,2468.537a11.405,11.405,0,0,1-.263-1.735c.018-.808-.929-1.764.335-2.408.386-.2.805-.411,1.093.02a4.133,4.133,0,0,1,.255,2.658C2273.877,2467.735,2273.3,2467.988,2272.489,2468.537Z" transform="translate(-94.991 -47.723)" fill="#949494"/>
    <path id="Path_113" data-name="Path 113" d="M2160.387,2638.674c.587-.037,1,.166.928.661-.2,1.375-1.476,1.4-2.441,1.735-.561.192-.674-.318-.617-.76C2158.421,2638.989,2159.706,2639.16,2160.387,2638.674Z" transform="translate(-56.48 -104.547)" fill="#adadad"/>
    <path id="Path_114" data-name="Path 114" d="M2486.154,2474.9c-.628-.132-.928-.438-.961-.856-.117-1.505,1.265-1.235,2.057-1.617a.639.639,0,0,1,.921.53C2488.262,2474.5,2485.991,2473.391,2486.154,2474.9Z" transform="translate(-180.161 -50.172)" fill="#8f8f8e"/>
    <path id="Path_115" data-name="Path 115" d="M2272.963,2462.691c-.672-.294-.67-.914-.618-1.466.057-.6.386-1.21,1.074-1.1.655.1.478.782.394,1.224C2273.714,2461.873,2273.71,2462.528,2272.963,2462.691Z" transform="translate(-95.079 -46.285)" fill="#aaaaa9"/>
    <path id="Path_116" data-name="Path 116" d="M2298.261,2476.106c1.168-1.137,1.917-.443,2.624-.6a1.332,1.332,0,0,1,1.447.461C2301.1,2477.251,2299.925,2475.986,2298.261,2476.106Z" transform="translate(-104.166 -51.02)" fill="#a2a2a2"/>
    <path id="Path_117" data-name="Path 117" d="M2315.738,2476.319a1.778,1.778,0,0,1-2.266,1.045c-.3-.1-.6-.474-.313-.78C2313.876,2475.833,2314.75,2476.038,2315.738,2476.319Z" transform="translate(-109.025 -51.245)" fill="#9b9b9b"/>
    <path id="Path_118" data-name="Path 118" d="M2119.848,2504.689a2.141,2.141,0,0,1,2.568.307c.37.344-.019.652-.3.743A1.783,1.783,0,0,1,2119.848,2504.689Z" transform="translate(-43.418 -60.23)" fill="#a5a5a5"/>
    <path id="Path_119" data-name="Path 119" d="M1992,2405.72c.659-.931,1.266-1.524,2.313-1.177a.685.685,0,0,1,.124.619A2.367,2.367,0,0,1,1992,2405.72Z" transform="translate(0 -28.545)" fill="#9e9e9e"/>
    <path id="Path_120" data-name="Path 120" d="M2137.763,2505.92c1.073-1.027,1.827-.974,2.743-.182C2139.662,2506.416,2138.916,2506.344,2137.763,2505.92Z" transform="translate(-49.503 -60.428)" fill="#989898"/>
    <path id="Path_121" data-name="Path 121" d="M2334.693,2517.763l-.041.036c-.01-.03-.025-.061-.035-.092C2334.641,2517.728,2334.667,2517.743,2334.693,2517.763Z" transform="translate(-116.013 -64.294)" fill="#fbfbfb"/>
    <path id="Path_122" data-name="Path 122" d="M2306.894,2464.025a.322.322,0,0,1-.066.051l.031-.077h.005Z" transform="translate(-106.602 -47.311)" fill="#fcfcfc"/>
  </g>
</svg>
