<svg xmlns="http://www.w3.org/2000/svg" xmlns:xlink="http://www.w3.org/1999/xlink" width="63.158" height="22.907" viewBox="0 0 63.158 22.907">
  <defs>
    <clipPath id="clip-path">
      <rect id="Rectangle_5" data-name="Rectangle 5" width="63.158" height="22.907" fill="none"/>
    </clipPath>
  </defs>
  <g id="Group_7" data-name="Group 7" clip-path="url(#clip-path)">
    <path id="Path_2" data-name="Path 2" d="M90.734,23.388h.5c2.707-.008,5.414,0,8.121-.03,1.36-.017,2.722-.079,4.079-.185a5.809,5.809,0,0,0,4.16-2.166,6.81,6.81,0,0,0,1.485-5.294,4.967,4.967,0,0,0-2.8-4.122c-.125-.063-.245-.138-.43-.243.211-.146.365-.257.524-.361a4.085,4.085,0,0,0,1.917-2.851,8.872,8.872,0,0,0,.086-1.956,4.946,4.946,0,0,0-3.177-4.523,19.725,19.725,0,0,0-1.912-.629,1.678,1.678,0,0,0-.486-.049q-5.808,0-11.616,0c-.141,0-.283.023-.445.037Z" transform="translate(-68.758 -0.74)" fill="#fff"/>
    <path id="Path_3" data-name="Path 3" d="M14.816,12.68c.3-.2.547-.379.807-.538a4.408,4.408,0,0,0,1.453-1.507,6.525,6.525,0,0,0-.8-7.793A5.751,5.751,0,0,0,12.136.948C8.217.869,4.3.921.375.924A2.975,2.975,0,0,0,0,.97v22.3a32.422,32.422,0,0,0,4.707-.028V14.727c.2-.013.363-.029.522-.031.82-.011,1.64-.031,2.46-.024.984.008,1.968.027,2.951.066a1.739,1.739,0,0,1,1.721,1.412,3.782,3.782,0,0,1,.1.678c.1,1.438.18,2.878.3,4.315.059.714.185,1.422.282,2.136h5.392c-.222-.484-.406-.918-.618-1.339a3.133,3.133,0,0,1-.366-1.363c-.017-.869-.039-1.737-.073-2.605-.024-.622-.042-1.246-.116-1.863a3.849,3.849,0,0,0-2.284-3.314,1.658,1.658,0,0,1-.163-.115" transform="translate(0 -0.686)" fill="#fff"/>
    <path id="Path_4" data-name="Path 4" d="M197.1,14.4c-.047.174-.09.314-.124.456A6.682,6.682,0,0,1,184.734,16.6a5.83,5.83,0,0,1-.46-5.42,16.4,16.4,0,0,1,2.1-3.659,35.147,35.147,0,0,0,2.645-3.967,1.853,1.853,0,0,1,.181-.229,14.236,14.236,0,0,1,4.662,2.906,12.124,12.124,0,0,1,3.193,4.491,1.375,1.375,0,0,1,1-.873,6.649,6.649,0,0,1,1.12-.07,4.7,4.7,0,0,1,.6.07,14.913,14.913,0,0,0-4.818-6.318c-2.15-1.682-6.06-3.539-7.413-3.527a24.4,24.4,0,0,1-3.381,5.632c-.4.541-.817,1.071-1.178,1.637A19.839,19.839,0,0,0,181.747,9.4a8.814,8.814,0,0,0-.753,5.6,9.679,9.679,0,0,0,18.962.357c.1-.438.147-.886.234-1.421a3.18,3.18,0,0,1-3.095.475" transform="translate(-137.033 0)" fill="#de1f26"/>
    <path id="Path_5" data-name="Path 5" d="M197.674,57.485c-.5,2.313,2.264,5.073,4.743,4.718a12.039,12.039,0,0,0,0-1.659,2.972,2.972,0,0,1-3.1-3.059Z" transform="translate(-149.752 -43.562)" fill="#de1f26"/>
    <path id="Path_6" data-name="Path 6" d="M249.213,45.55l-.2.872a2.53,2.53,0,0,0,1.751.2.926.926,0,0,0,.795-.816A.971.971,0,0,0,251,44.712c-.186-.1-.391-.166-.578-.264a1.7,1.7,0,0,1-.268-.231,1.561,1.561,0,0,1,1.137.088l.2-.863a2.307,2.307,0,0,0-1.624-.147.964.964,0,0,0-.72.843.936.936,0,0,0,.486.992c.212.121.446.2.661.318a1.5,1.5,0,0,1,.253.235,1.993,1.993,0,0,1-1.326-.133" transform="translate(-188.704 -32.741)" fill="#de1f26"/>
    <path id="Path_7" data-name="Path 7" d="M90.735,23.388V1.014c.162-.014.3-.037.445-.037q5.808,0,11.616,0a1.685,1.685,0,0,1,.486.049,19.7,19.7,0,0,1,1.912.629,4.945,4.945,0,0,1,3.178,4.523,8.889,8.889,0,0,1-.086,1.956,4.086,4.086,0,0,1-1.917,2.851c-.159.1-.313.216-.523.361.185.1.3.179.429.243a4.967,4.967,0,0,1,2.8,4.122,6.811,6.811,0,0,1-1.485,5.294,5.809,5.809,0,0,1-4.16,2.166q-2.034.159-4.079.185c-2.707.033-5.414.023-8.121.03h-.5m4.574-4.074c.14.012.221.025.3.025,1.9,0,3.8,0,5.7,0a7.57,7.57,0,0,0,.93-.068,2.188,2.188,0,0,0,1.793-1.357,3.584,3.584,0,0,0,.306-1.627,2.3,2.3,0,0,0-2.511-2.559c-2.08-.015-4.161-.014-6.241-.016a1.566,1.566,0,0,0-.28.052Zm.032-14.5a35.3,35.3,0,0,0,.045,4.946.454.454,0,0,0,.1.021c1.8,0,3.608.012,5.412-.012a4.216,4.216,0,0,0,1.769-.367,1.9,1.9,0,0,0,1.171-1.581,4.282,4.282,0,0,0-.036-1.172,1.621,1.621,0,0,0-1.658-1.512c-1.389-.108-2.782-.173-4.174-.241-.865-.042-1.732-.056-2.624-.083" transform="translate(-68.759 -0.739)"/>
    <path id="Path_8" data-name="Path 8" d="M14.816,12.68a1.658,1.658,0,0,0,.163.115,3.848,3.848,0,0,1,2.284,3.314c.074.617.091,1.242.116,1.863.034.868.056,1.737.073,2.605a3.133,3.133,0,0,0,.366,1.363c.212.421.4.856.617,1.339H13.044c-.1-.714-.223-1.422-.282-2.136-.118-1.437-.2-2.877-.3-4.315a3.785,3.785,0,0,0-.1-.678,1.739,1.739,0,0,0-1.721-1.412c-.983-.04-1.967-.058-2.951-.066-.82-.007-1.64.013-2.46.024-.16,0-.319.018-.523.031v8.513A32.418,32.418,0,0,1,0,23.269V.971A3.02,3.02,0,0,1,.375.925C4.3.922,8.217.87,12.135.948a5.75,5.75,0,0,1,4.145,1.894,6.525,6.525,0,0,1,.8,7.793,4.408,4.408,0,0,1-1.453,1.507c-.261.159-.51.339-.807.538M4.778,4.9v5.859c.5,0,.975,0,1.447,0,1.526-.008,3.052,0,4.577-.034a2.275,2.275,0,0,0,2.369-2,5.153,5.153,0,0,0,.009-1.706,2.235,2.235,0,0,0-2.23-2.033c-.277-.029-.555-.064-.833-.069Q7.8,4.87,5.49,4.84a7.136,7.136,0,0,0-.712.062" transform="translate(0 -0.686)"/>
    <path id="Path_9" data-name="Path 9" d="M197.1,14.4a3.18,3.18,0,0,0,3.095-.475c-.087.535-.137.983-.234,1.421a9.679,9.679,0,0,1-18.962-.357,8.814,8.814,0,0,1,.753-5.6,19.839,19.839,0,0,1,1.225-2.127c.36-.566.779-1.1,1.178-1.637A24.4,24.4,0,0,0,187.531,0c1.353-.013,5.264,1.845,7.413,3.527a14.913,14.913,0,0,1,4.818,6.318,4.7,4.7,0,0,0-.6-.07,6.649,6.649,0,0,0-1.12.07,1.375,1.375,0,0,0-1,.873,12.124,12.124,0,0,0-3.193-4.491A14.236,14.236,0,0,0,189.2,3.321a1.853,1.853,0,0,0-.181.229,35.147,35.147,0,0,1-2.645,3.967,16.4,16.4,0,0,0-2.1,3.659,5.83,5.83,0,0,0,.46,5.42,6.682,6.682,0,0,0,12.238-1.738c.034-.142.077-.283.124-.456" transform="translate(-137.033 0)" fill="#de1f26"/>
    <path id="Path_10" data-name="Path 10" d="M197.674,57.485h1.639a2.972,2.972,0,0,0,3.1,3.059,12.039,12.039,0,0,1,0,1.659c-2.479.355-5.245-2.406-4.743-4.718" transform="translate(-149.752 -43.562)" fill="#de1f26"/>
    <path id="Path_11" data-name="Path 11" d="M249.213,45.55a1.993,1.993,0,0,0,1.326.133,1.5,1.5,0,0,0-.253-.235c-.216-.115-.45-.2-.661-.318a.936.936,0,0,1-.486-.992.964.964,0,0,1,.72-.843,2.307,2.307,0,0,1,1.624.147l-.2.863a1.561,1.561,0,0,0-1.137-.088,1.7,1.7,0,0,0,.268.231c.188.1.393.163.578.264a.971.971,0,0,1,.564,1.092.926.926,0,0,1-.795.816,2.53,2.53,0,0,1-1.751-.2l.2-.872" transform="translate(-188.704 -32.741)" fill="#de1f26"/>
    <path id="Path_12" data-name="Path 12" d="M109.619,59.153V53.6a1.538,1.538,0,0,1,.28-.052c2.08,0,4.161,0,6.241.016a2.3,2.3,0,0,1,2.511,2.559,3.585,3.585,0,0,1-.306,1.628,2.188,2.188,0,0,1-1.793,1.357,7.575,7.575,0,0,1-.93.068c-1.9.007-3.8,0-5.7,0-.08,0-.161-.013-.3-.025" transform="translate(-83.069 -40.579)" fill="#fff"/>
    <path id="Path_13" data-name="Path 13" d="M109.549,16.818c.893.027,1.759.041,2.624.083,1.392.068,2.785.133,4.174.241a1.621,1.621,0,0,1,1.658,1.512,4.283,4.283,0,0,1,.036,1.172,1.9,1.9,0,0,1-1.171,1.581,4.216,4.216,0,0,1-1.769.367c-1.8.024-3.608.011-5.412.012a.441.441,0,0,1-.1-.021,35.291,35.291,0,0,1-.045-4.946" transform="translate(-82.967 -12.745)" fill="#fff"/>
    <path id="Path_14" data-name="Path 14" d="M19.729,17.213a7.136,7.136,0,0,1,.712-.062q2.313.029,4.626.076c.278.006.556.04.833.069a2.235,2.235,0,0,1,2.23,2.033,5.153,5.153,0,0,1-.009,1.706,2.275,2.275,0,0,1-2.369,2c-1.525.034-3.051.025-4.577.034-.472,0-.944,0-1.447,0Z" transform="translate(-14.951 -12.997)" fill="#fff"/>
  </g>
</svg>
