<svg id="Group_633" data-name="Group 633" xmlns="http://www.w3.org/2000/svg" width="78.264" height="24.269" viewBox="0 0 78.264 24.269">
  <path id="Path_11" data-name="Path 11" d="M523.827,217.625c.664.21,1.344.382,1.991.638a5.471,5.471,0,0,1,3.638,4.806c.241,2.314-.3,4.351-2.507,5.6a1.819,1.819,0,0,0-.239.209,5.4,5.4,0,0,1,3.084,2.984,7.348,7.348,0,0,1,.32,4.264,6.737,6.737,0,0,1-6.095,5.543c-2.374.2-4.769.173-7.156.208-2.121.031-4.244.007-6.5.007v-24.26Zm-8.5,19.851c2.459,0,4.868.1,7.263-.037,1.572-.091,2.452-1.337,2.5-3.018.043-1.7-.678-2.853-2.335-2.975-2.446-.18-4.916-.047-7.423-.047Zm.012-10.335c2,0,3.937.007,5.877-.006a8.355,8.355,0,0,0,1.229-.126,3.114,3.114,0,0,0,.674-.205c1.128-.455,1.565-1.289,1.441-2.726a1.9,1.9,0,0,0-1.805-1.955c-2.453-.2-4.92-.243-7.415-.351Z" transform="translate(-486.635 -217.625)"/>
  <path id="Path_12" data-name="Path 12" d="M418.084,217.625c.338.084.674.173,1.013.253,4.711,1.1,6.665,7.161,3.433,11.061a10.38,10.38,0,0,1-1.9,1.436c2.609,1.059,2.778,3.364,2.818,5.736a31.448,31.448,0,0,0,.112,3.266,6.686,6.686,0,0,0,.684,1.659c.1.245.2.492.335.817h-5.844c-.149-1.174-.34-2.375-.444-3.584-.106-1.231-.077-2.474-.2-3.7a2.011,2.011,0,0,0-1.909-2c-2.107-.1-4.224-.03-6.437-.03v9.35h-5.119V217.625Zm-8.3,10.634c2.215,0,4.337.06,6.453-.019a2.657,2.657,0,0,0,2.737-2.845c.085-1.945-.713-3.208-2.451-3.369-2.045-.189-4.115-.116-6.175-.149a3.493,3.493,0,0,0-.564.078Z" transform="translate(-404.624 -217.625)"/>
  <path id="Path_13" data-name="Path 13" d="M624.763,233.5h5.877a9.4,9.4,0,0,1-7.924,8.733,18.871,18.871,0,0,1-4.836-.039,8.269,8.269,0,0,1-6.942-5.7,15.992,15.992,0,0,1,.276-12.243c1.6-3.685,4.654-5.473,8.6-5.631a17.764,17.764,0,0,1,4.47.414,7.623,7.623,0,0,1,6.242,6.631c.073.406.129.815.182,1.223a1.174,1.174,0,0,1-.046.291H624.78c-.069-.226-.149-.469-.218-.716a3.507,3.507,0,0,0-3.1-2.855,3.9,3.9,0,0,0-4.147,1.735,7.9,7.9,0,0,0-.986,2.617,13.26,13.26,0,0,0,.238,6.392,4.207,4.207,0,0,0,5.306,3.035,3.062,3.062,0,0,0,2.306-1.985C624.418,234.8,624.562,234.167,624.763,233.5Z" transform="translate(-563.795 -218.385)" fill="#dc1f26"/>
  <path id="Path_14" data-name="Path 14" d="M711.782,278.3l.495-2.158c1.484.183,2.869.392,4.262.509.655.055,1.35-.083,1.57-.854.23-.806-.278-1.292-.92-1.611-.922-.456-1.887-.824-2.808-1.282a3.421,3.421,0,0,1-2.112-4.03,3.525,3.525,0,0,1,3-2.84,9.121,9.121,0,0,1,5.333.579l-.5,2.107c-1.045-.161-1.988-.375-2.941-.437-1.2-.078-1.9.314-2.052.978-.153.684.318,1.266,1.433,1.758.834.369,1.693.688,2.5,1.106a3.429,3.429,0,0,1,2.03,3.763,3.281,3.281,0,0,1-2.833,2.97A10.64,10.64,0,0,1,711.782,278.3Z" transform="translate(-642.846 -255.042)" fill="#dc1f26"/>
</svg>
