<svg xmlns="http://www.w3.org/2000/svg" width="122.682" height="30.077" viewBox="0 0 122.682 30.077">
  <g id="Group_725" data-name="Group 725" transform="translate(-7131.5 1657.216)">
    <path id="Path_246" data-name="Path 246" d="M201.91,18.665c-.062.225-.117.407-.161.591a8.66,8.66,0,0,1-15.86,2.252,7.556,7.556,0,0,1-.6-7.025,21.25,21.25,0,0,1,2.715-4.742A45.554,45.554,0,0,0,191.437,4.6a2.4,2.4,0,0,1,.234-.3,18.45,18.45,0,0,1,6.042,3.766,15.712,15.712,0,0,1,4.138,5.821,1.783,1.783,0,0,1,1.293-1.132,8.617,8.617,0,0,1,1.451-.09,6.087,6.087,0,0,1,.772.09,19.328,19.328,0,0,0-6.245-8.188c-2.786-2.18-7.854-4.587-9.608-4.571a31.627,31.627,0,0,1-4.382,7.3c-.517.7-1.059,1.388-1.526,2.122a25.7,25.7,0,0,0-1.588,2.757,11.423,11.423,0,0,0-.975,7.251,12.544,12.544,0,0,0,24.575.463c.126-.567.191-1.148.3-1.842-1.27,1.134-2.61.9-4.011.615" transform="translate(7007.931 -1657)" fill="#de1f26"/>
    <path id="Path_247" data-name="Path 247" d="M197.692,57.485c-.651,3,2.934,6.574,6.147,6.115a15.606,15.606,0,0,0-.006-2.15c-2.52-.192-3.859-1.5-4.017-3.964Z" transform="translate(6996.415 -1696.442)" fill="#de1f26"/>
    <path id="Path_248" data-name="Path 248" d="M249.271,46.244l-.256,1.13a3.279,3.279,0,0,0,2.269.257,1.2,1.2,0,0,0,1.03-1.057,1.259,1.259,0,0,0-.731-1.416c-.241-.131-.506-.215-.75-.342a2.2,2.2,0,0,1-.347-.3,2.023,2.023,0,0,1,1.474.114l.254-1.118a2.989,2.989,0,0,0-2.105-.191,1.249,1.249,0,0,0-.933,1.093,1.213,1.213,0,0,0,.629,1.286c.274.157.578.263.857.412a1.944,1.944,0,0,1,.328.305,2.583,2.583,0,0,1-1.719-.173" transform="translate(6961.148 -1686.644)" fill="#de1f26"/>
    <path id="Path_251" data-name="Path 251" d="M201.91,18.665c1.4.286,2.741.519,4.011-.615-.112.694-.177,1.274-.3,1.842a12.544,12.544,0,0,1-24.575-.463,11.423,11.423,0,0,1,.975-7.251,25.7,25.7,0,0,1,1.588-2.757c.467-.734,1.009-1.42,1.526-2.122A31.627,31.627,0,0,0,189.515,0c1.754-.016,6.822,2.391,9.608,4.571a19.328,19.328,0,0,1,6.245,8.188,6.087,6.087,0,0,0-.772-.09,8.617,8.617,0,0,0-1.451.09,1.783,1.783,0,0,0-1.293,1.132,15.712,15.712,0,0,0-4.138-5.821A18.45,18.45,0,0,0,191.671,4.3a2.4,2.4,0,0,0-.234.3,45.554,45.554,0,0,1-3.428,5.141,21.25,21.25,0,0,0-2.715,4.742,7.556,7.556,0,0,0,.6,7.025,8.66,8.66,0,0,0,15.86-2.252c.044-.185.1-.366.161-.591" transform="translate(7007.931 -1657)" fill="#de1f26"/>
    <path id="Path_252" data-name="Path 252" d="M197.692,57.485h2.124c.158,2.469,1.5,3.773,4.017,3.964a15.606,15.606,0,0,1,.006,2.15c-3.213.46-6.8-3.118-6.147-6.115" transform="translate(6996.415 -1696.442)" fill="#de1f26"/>
    <path id="Path_253" data-name="Path 253" d="M249.271,46.244a2.583,2.583,0,0,0,1.719.173,1.944,1.944,0,0,0-.328-.305c-.279-.149-.583-.255-.857-.412a1.213,1.213,0,0,1-.629-1.286,1.249,1.249,0,0,1,.933-1.093,2.989,2.989,0,0,1,2.105.191l-.254,1.118a2.023,2.023,0,0,0-1.474-.114,2.2,2.2,0,0,0,.347.3c.243.127.509.212.75.342a1.259,1.259,0,0,1,.731,1.416,1.2,1.2,0,0,1-1.03,1.057,3.279,3.279,0,0,1-2.269-.257l.256-1.13" transform="translate(6961.148 -1686.644)" fill="#de1f26"/>
    <path id="Path_257" data-name="Path 257" d="M279.285,53.548h8.387v1.309H284.19v9.171h-1.454V54.857h-3.45Z" transform="translate(6940.379 -1693.74)" fill="#030303"/>
    <path id="Path_258" data-name="Path 258" d="M309.769,66.358H304.2a2.6,2.6,0,0,0,.562,1.806,2.047,2.047,0,0,0,1.6.618,1.794,1.794,0,0,0,1.923-1.543h1.382a3.954,3.954,0,0,1-.444,1.151,3.222,3.222,0,0,1-.727.857,3.091,3.091,0,0,1-.977.537,3.737,3.737,0,0,1-1.2.186,3.653,3.653,0,0,1-1.462-.279,2.988,2.988,0,0,1-1.1-.8,3.648,3.648,0,0,1-.695-1.273,5.486,5.486,0,0,1-.242-1.693,4.953,4.953,0,0,1,.267-1.681,3.649,3.649,0,0,1,.743-1.26,3.2,3.2,0,0,1,1.139-.792,3.763,3.763,0,0,1,1.455-.275,3.816,3.816,0,0,1,1.361.234,2.806,2.806,0,0,1,1.063.707,3.258,3.258,0,0,1,.691,1.2,5.288,5.288,0,0,1,.246,1.7Zm-1.325-1.2a2.331,2.331,0,0,0-.153-.869,1.879,1.879,0,0,0-.424-.65,1.816,1.816,0,0,0-.651-.408,2.37,2.37,0,0,0-.832-.142q-1.842,0-2.133,2.069Z" transform="translate(6924.237 -1699.48)" fill="#030303"/>
    <path id="Path_259" data-name="Path 259" d="M328.972,64.449a2.757,2.757,0,0,1,.214-1.123,2.156,2.156,0,0,1,.614-.812,2.659,2.659,0,0,1,.965-.488,4.65,4.65,0,0,1,1.277-.162,5.791,5.791,0,0,1,1.277.125,2.306,2.306,0,0,1,.917.412,1.768,1.768,0,0,1,.554.748,3.035,3.035,0,0,1,.186,1.131v3.66q0,.792.469.792l.38-.032v1.01c-.1.032-.183.058-.258.077s-.144.035-.206.048a1.1,1.1,0,0,1-.174.024c-.054,0-.113,0-.178,0A1.152,1.152,0,0,1,333.78,68.7a3.439,3.439,0,0,1-2.634,1.236,3.134,3.134,0,0,1-1.018-.157,2.225,2.225,0,0,1-.788-.457,2.032,2.032,0,0,1-.5-.719,2.424,2.424,0,0,1-.178-.953,2.087,2.087,0,0,1,1.277-2.044,10.78,10.78,0,0,1,3-.646l.767-.105v-.372a1.892,1.892,0,0,0-.109-.695,1.026,1.026,0,0,0-.319-.44,1.277,1.277,0,0,0-.517-.235,3.3,3.3,0,0,0-.711-.068,1.989,1.989,0,0,0-1.256.347,1.265,1.265,0,0,0-.44,1.058Zm4.711,1.438-.489.073c-.148.022-.3.044-.449.069s-.311.052-.481.085-.365.073-.586.121a6.2,6.2,0,0,0-.743.222,1.9,1.9,0,0,0-.5.271.892.892,0,0,0-.279.359,1.278,1.278,0,0,0-.085.489,1.074,1.074,0,0,0,.36.864,1.513,1.513,0,0,0,1.014.307,2.565,2.565,0,0,0,.868-.145,2.442,2.442,0,0,0,.711-.388,1.886,1.886,0,0,0,.481-.566,1.405,1.405,0,0,0,.178-.687Z" transform="translate(6906.505 -1699.445)" fill="#030303"/>
    <path id="Path_260" data-name="Path 260" d="M364.55,69.677V64.926a5.507,5.507,0,0,0-.073-.982,1.538,1.538,0,0,0-.242-.626.889.889,0,0,0-.44-.328,2.058,2.058,0,0,0-.659-.093,1.862,1.862,0,0,0-1.462.578,2.37,2.37,0,0,0-.517,1.636v4.565H359.84V64.926a5.237,5.237,0,0,0-.077-.982,1.54,1.54,0,0,0-.246-.622A.921.921,0,0,0,359.08,63a1.926,1.926,0,0,0-.654-.1,2.138,2.138,0,0,0-.828.153,1.708,1.708,0,0,0-.622.436,1.933,1.933,0,0,0-.392.695,2.927,2.927,0,0,0-.137.929v4.565h-1.3V61.961h1.236v1.091a2.916,2.916,0,0,1,1.022-.973,2.87,2.87,0,0,1,1.394-.32,2.432,2.432,0,0,1,1.232.291,2.481,2.481,0,0,1,.877.921,3.306,3.306,0,0,1,1.1-.918,3.087,3.087,0,0,1,1.382-.295,2.705,2.705,0,0,1,1.608.449,1.953,1.953,0,0,1,.784,1.313,8.316,8.316,0,0,1,.072,1.3v4.856Z" transform="translate(6888.331 -1699.374)" fill="#030303"/>
    <path id="Subtraction_2" data-name="Subtraction 2" d="M2.7,29.077A24.431,24.431,0,0,1,0,28.983V.085C.052.078.1.07.155.062A2.071,2.071,0,0,1,.486.025c1.4,0,2.822-.007,4.2-.013C6.185.006,7.737,0,9.265,0c2.509,0,4.563.018,6.463.056A7.459,7.459,0,0,1,21.1,2.51a8.171,8.171,0,0,1,1.509,2.276,8.56,8.56,0,0,1,.54,5.289,8.178,8.178,0,0,1-1.017,2.534,5.7,5.7,0,0,1-1.884,1.954c-.231.141-.457.3-.7.459-.112.077-.228.156-.351.238.056.04.095.069.123.09a.48.48,0,0,0,.088.059A4.8,4.8,0,0,1,21.5,17.143a5.876,5.876,0,0,1,.871,2.562c.085.706.113,1.431.14,2.132v.006q.005.138.011.276c.039.983.068,2.024.095,3.376a4.068,4.068,0,0,0,.474,1.767c.19.377.362.763.546,1.172.082.182.166.37.255.564H16.9c-.039-.288-.082-.579-.124-.862-.093-.625-.189-1.27-.241-1.907-.1-1.188-.176-2.4-.252-3.566-.043-.665-.087-1.351-.135-2.027a4.85,4.85,0,0,0-.132-.879,2.266,2.266,0,0,0-2.23-1.829c-1.147-.046-2.362-.074-3.824-.086l-.458,0c-.649,0-1.309.011-1.948.021l-.782.012c-.139,0-.277.012-.436.023l-.242.017V28.947A27.638,27.638,0,0,1,2.7,29.077ZM7.084,5.1H7.071a3.828,3.828,0,0,0-.383.025l-.1.011-.085.01-.187.022-.127.013v7.593H7.564l.5,0c.566,0,1.14,0,1.695-.006,1.389,0,2.825-.007,4.237-.038a2.932,2.932,0,0,0,3.07-2.6,6.679,6.679,0,0,0,.012-2.211,2.888,2.888,0,0,0-2.891-2.634l-.174-.019c-.3-.032-.6-.065-.906-.071-2.013-.041-4.031-.074-6-.1Z" transform="translate(7132 -1656.716)" fill="#030303" stroke="rgba(0,0,0,0)" stroke-miterlimit="10" stroke-width="1"/>
    <path id="Path_263" data-name="Path 263" d="M90.735,30.021v-29c.21-.018.393-.047.577-.047q7.527,0,15.054,0a2.183,2.183,0,0,1,.63.064,25.539,25.539,0,0,1,2.478.815,6.409,6.409,0,0,1,4.118,5.862,11.521,11.521,0,0,1-.111,2.536A5.3,5.3,0,0,1,111,13.95c-.206.135-.406.279-.678.468.239.136.395.232.557.315a6.437,6.437,0,0,1,3.633,5.342,8.826,8.826,0,0,1-1.925,6.861,7.529,7.529,0,0,1-5.391,2.807q-2.637.206-5.286.239c-3.508.043-7.016.03-10.525.039h-.645m5.927-5.279c.182.015.286.032.39.032,2.463,0,4.927,0,7.39,0a9.811,9.811,0,0,0,1.205-.088,2.836,2.836,0,0,0,2.324-1.759,4.645,4.645,0,0,0,.4-2.109c-.063-2.014-.988-3.3-3.255-3.317-2.7-.019-5.392-.018-8.089-.02a2.03,2.03,0,0,0-.363.067ZM96.7,5.948a45.743,45.743,0,0,0,.058,6.411.589.589,0,0,0,.124.027c2.338,0,4.676.016,7.014-.015a5.464,5.464,0,0,0,2.293-.476,2.457,2.457,0,0,0,1.518-2.049,5.549,5.549,0,0,0-.047-1.52,2.1,2.1,0,0,0-2.149-1.959c-1.8-.14-3.605-.224-5.409-.312-1.121-.055-2.245-.072-3.4-.107" transform="translate(7069.746 -1657.67)" fill="#030303"/>
  </g>
</svg>
