<svg xmlns="http://www.w3.org/2000/svg" width="476.339" height="283.388" viewBox="0 0 476.339 283.388">
  <g id="Group_631" data-name="Group 631" transform="translate(-1992 -2314.365)" opacity="0.03">
    <path id="Path_56" data-name="Path 56" d="M2480.259,2351.8c-1.025-1.32-2.087-2.65-1.441-4.88.528-1.844-1.143-2.987-3.194-3.235-2.022-.249-2.057.655-2.139,2.326-.076,1.462-1.188.416-1.482-.062-1.051-1.711-2.636-1.9-4.4-1.889a15.786,15.786,0,0,1-2.753-.31c-5.261-.888-10.528-2.052-15.774.472.452.63.614,1.534,1.494,2.1a1.234,1.234,0,0,1,.518,1.732,1.3,1.3,0,0,1-1.635.071c-1.768-2.229-3.443-.366-5.17-.03-1.462.284-2.818.294-3.936,1.767a2.459,2.459,0,0,1-3.53-.285c-3.072-4.119-4.515-4.494-8.608-1.7-1.163.8-1.874.634-3.266.162-1.986-.681-3.728-1.3-5.135-2.9-.538-.62-1.452-.279-2.173-.041-2.438.813-5.008.594-7.491,1.011-.641.112-1.311-.462-1.915.112,1.163.868-.863,2.234.528,3.174.518.35,1.823,1.031.782,1.818-.66.493-.767,2.778-2.529,1.214-.34-.3-1.188-.335-1.407.092-1.056,2.092-2.417.95-3.631.309a1.269,1.269,0,0,0-.112,1.341c.254.817,1.188,1.807-.239,2.3a1.722,1.722,0,0,1-2.214-1.219c-.274-1.966-1.254-1.366-2.58-.512.381-.834.781-1.28.69-1.585-.838-2.93-5.866-5.139-8.8-3.941a1.188,1.188,0,0,0-.788,1.123c-.3,2.4-2.98,3.951-4.474,2.316-2.163-2.367-3.8-.579-5.672-.143-.295.072-.67.467-.824.382-1.071-.609-2.234-.067-3.453-.452-2.458-.777.107,2.351-1.519,2.8-.27.076-.437.492-.666.746-.244.269-.625.447-.868.2a.987.987,0,0,1-.168-.914c1.386-1.569.838-3.692,1.635-5.455.981-2.168,1.351-4.514-1.041-6.089-2.088-1.382-4.149-3.067-7.039-1.594-1.641.833-3.261-.27-4.3-1.346a3.01,3.01,0,0,0-2.28-1.188c-1.24.01-1.387,1.158-1.585,1.991a4.211,4.211,0,0,0,.619,3.139c.549.9.178,1.112-.269,2-1.178,2.326-2.9,2.372-4.871,2.458-.436.02-1.1.167-1.03.522.314,1.7-1.209,1.717-2.027,2.341-3.351,2.544-3.631,4.667-.8,7.217-1.025.965-2.4,1.219-3.56,1.869-.762.427-2.366.076-2.209,1.188.187,1.311.782,3.078,2.1,3.51a6.8,6.8,0,0,1,5.023,5.312c-1.25-.061-1.92-.589-1.712-1.849.1-.645.178-1.447-.614-1.26-1.483.346-2.341-.766-3.5-1.132-.975-.31-2.905-1-2.58.279.589,2.3-1.844.37-1.553,1.513a4.258,4.258,0,0,0,.548,1.082c.265.442,1.188.26,1.061,1.275-2.859-.4-2.229-3.484-3.783-4.8-.005,2.545-1.28,5.343,1.65,7.187.1.061.112.314.117.477.092,2.687.513,4.977,4.418,3.291-1.553,1.223-2.544,2.169-1.051,3.906.427.5,0,1.761-.092,2.666-.076.67-.482,1.107-1.208.95-.681-.147-.651-.767-.5-1.224a5.586,5.586,0,0,0-.112-3.449c-.365-1.214-1.782-1.711-2.036-3.1-.6-3.281-3.377-5.739-3.489-9.279a2.658,2.658,0,0,0-2.468-2.316,2.437,2.437,0,0,0-1.711,2.931,6.189,6.189,0,0,1-.117,3.012c-.5,1.315-1.091,2.32.229,3.605.889.874.021,2.981,2.072,3.322a1.155,1.155,0,0,1,.625.959c-.1.681-.782.534-1.229.462a12.387,12.387,0,0,1-3.728-1.493,5.128,5.128,0,0,0-3.941-.147c-1.158.391.178,1.574.112,2.443-.07.893-.746,1.62-.893,1.285-.9-1.986-1.53-.122-2.256.087-1.295.371-2.59.746-3.885,1.117-.66-2.311-1.563-.675-2.483-.2a13.577,13.577,0,0,0-4.083,3.327c-.874,1.041-2.214.711-2.148.142.355-3.154-1.93-2.423-3.905-2.808,1.422,1.575,1,3.54,2.117,5.094.625.878-.218,1.457-1.351,1.223a2.724,2.724,0,0,0-3.271,2.611c.224,2.844-1.02,1.99-2.417,1.422-.437-.183-.894-.671-1.29-.041-.31.478-.081.919.259,1.367.3.4,1.34.2.9,1.259-1.518.381-2.335-.645-2.955-1.732-1.051-1.844-1.382-4.129-3.611-5.226,2.6.645,4.9,1.788,7.552,1.478a2.527,2.527,0,0,0,2.174-1.834,2.2,2.2,0,0,0-.717-2.712,16.337,16.337,0,0,0-6.586-3.565c-1.94-.483-3.783-2.007-6.029-1.336-.157.046-1.386.137-.8-.939.218-.4,1.6-.751.167-1.346-1.32-.543-2.955-1.645-4.012-.9-.812.574-1.483.015-2.047.488-.523-.7-1.229-.488-1.4.091-.609,2.056-2.885,1.686-4.165,2.915-.873.833-2.351,1.392-3.144,2.56-1.97,2.92-4,5.749-5.093,9.238a11.551,11.551,0,0,1-5.577,6.729c-3.291,1.768-3.56,2.3-2.423,5.973a2.1,2.1,0,0,1,.122,1.462c-.564,1.463-.472,2.738,1.107,3.626,1.671.94,2.6-.015,3.692-1.091,1.072-1.056,2.118-1.387,2.7.634.5,1.757,1.285,3.434,1.945,5.145.462,1.2.813,1.168,2.149.6,2.534-1.076,2.788-2.9,2.824-5.088a2.637,2.637,0,0,1,.9-1.945c.99-1.005,1.736-2.245.381-3.656a4.1,4.1,0,0,1,.076-6.145c1.736-1.422,3.4-2.671,3.047-5.3a1.49,1.49,0,0,1,1.345-1.6c.757-.082,1.59-.2,2.108.513a1.845,1.845,0,0,1-.213,2.331,36.518,36.518,0,0,1-2.184,3.1c-1.773,1.97-.96,4.292-.2,6.008a3.169,3.169,0,0,0,4.8,1.386c1.016-.615,2.448-.513,3.667-.833a1.274,1.274,0,0,1,1.493.656c.6.9-.487.8-.777,1.183a1.915,1.915,0,0,1-2.478.569,2.874,2.874,0,0,0-3.209.934c-.731.833-.025,1.645.594,2.407.634.777.264,1.783-.676,1.483-3.331-1.066-2.651,1.544-2.915,3.083-.213,1.269-.36,2.544-1.889,2.508-3.413-.076-6.379,2.483-9.929,1.57-.975-.25-1.966-.32-2.61-1.22-.681-.949.035-1.615.538-2.234s.955-1.076.106-1.772a1.408,1.408,0,0,0-2.036.177c-1.077.919-.894,1.96-.35,3.154.741,1.63.838,2.91-1.625,3.245-1.346.183-3,.29-3.763,2.083-1.828,4.265-5.668,5.947-9.786,7.176-.534.158-1.27-.01-1.326.854-.041.645.462.868.944,1.01,2.408.711,3.093,2.5,3.246,4.794.183,2.718-.051,3.093-2.813,3.007-1.671-.051-3.342-.356-5.013-.361-1.7-.005-3.235.229-2.478,2.733a4.834,4.834,0,0,1-.173,3.493c-.868,1.692-.99,3.4.372,4.667,1.147,1.067,3.032,1.189,4.042,2.606,1.707-1.509,4.063-.6,5.912-1.59,1.158-.614,2.108-2.072,1.894-2.788-.676-2.26.894-3.108,2.1-4.042s2.164-1.767,2.179-3.419a1.193,1.193,0,0,1,1.808-1.107c1.828.949,3.21.087,4.464-.924,1.631-1.31,2.447-.579,3.438.813a13.936,13.936,0,0,0,4.972,4.531c1.691.868,4.067,1.807,3.042,4.677-.127.35-.016.751.361.771a1.224,1.224,0,0,0,.848-.441,1.916,1.916,0,0,0,.345-1.92c-1.072-2.423.609-1.833,2.386-1.595-2.808-2.569-6.2-3.544-8.115-6.413-.656-.976-2.067-1.732-.656-2.829.879-.68,2.575.295,2.793.807.874,2.042,2.671,2.661,4.358,3.479.9.437,1.853,1.041,1.884,1.9.107,3.19,3.144,4.835,3.813,7.7a1.534,1.534,0,0,0,1.59,1.366c.965-.122.792-1.346,1.468-1.874.863-.666-.031-1.026-.432-1.275-1.27-.777-.584-1.961-.711-2.971,1.5.239,2.067-2.377,3.835-1.265,1.254.792,1.244,2.351,1.381,3.438.427,3.428,2.54,5.292,6.267,4.038a1.614,1.614,0,0,1,1.625.127c1.2.945,2.28.711,3.494.005,1.362-.792,1.97-.523,2.255,1.275.407,2.615-1.072,4.515-1.864,6.678a1.19,1.19,0,0,1-1,.594c-2.595-.8-5.149.31-7.694.092a22.905,22.905,0,0,1-7.511-2.082c-2.6-1.188-3.891-.381-4.256,2.448-.182,1.4-.863,1.554-2.306,1.026-3.2-1.168-5.414-4.368-9.308-4.22-.889.035-3.342-.7-1.62-3.2.914-1.325-.645-3.87-1.935-3.585a44,44,0,0,1-8.908.711c-3.372.04-5.749,3.139-9.269,2.483-1.762-.325-3.808-.671-4.4,2-.076.34-.792.584-1.25.787a4.99,4.99,0,0,0-3.037,4.809,3.506,3.506,0,0,1-2.016,3.271c-4.119,1.93-5.957,5.785-8.136,9.36a2.912,2.912,0,0,0-.457,2.9c1.463,2.691.894,5.333-.178,7.877a4.644,4.644,0,0,0,.58,4.672c2.163,2.422,4.829,4.383,5.957,7.608a.791.791,0,0,0,.36.345c3.326,1.96,6.181,5.607,10.787,3.042a.357.357,0,0,1,.243-.046c3.4,1.016,6.384-.294,9.461-1.482,1.554-.6,3.566-.833,4.414,1.188.691,1.651,1.747,1.767,3.209,1.635,3.454-.31,3.971.554,3.393,4-.35,2.093-2.245,4.515.339,6.45,4.033,3.012,4.414,7.634,5.374,11.976a3.515,3.515,0,0,1-1.016,3.367c-2.3,2.428-2.427,6.4-.752,9.385a21.849,21.849,0,0,1,2.981,9.543,6.122,6.122,0,0,0,1.1,3.591c2.346,2.742,2.925,6.064,3.184,9.4a1.976,1.976,0,0,0,2.464,2.047c2.712-.731,5.617-.35,8.177-1.173,5.647-1.808,8.872-6.318,11.152-11.564.422-.975.387-2.128,1.564-2.763,3.022-1.615,3.336-2.54,2.4-5.79-.233-.813-.929-1.666.158-2.508,1.528-1.183,2.833-2.656,4.57-3.576a8.309,8.309,0,0,0,3.2-11.066c-1.223-2.26-1.864-5.191-1.041-7.212,1.778-4.378,5.261-7.724,9.188-10.432,4.692-3.245,6.628-8.278,8.755-13.2a2.112,2.112,0,0,0-.04-1c-.066-.5-.478-.869-.864-.625-2.352,1.483-5.317.229-7.583,1.641-2.133,1.326-2.707-.411-3.494-1.534-.356-.5-.167-1.4-.208-2.123.548.4,1.147.818,1.813.488,2.184-1.092,4.739-1.036,6.866-2.392a55.44,55.44,0,0,1,5.83-3.225,17.811,17.811,0,0,0,7.841-6.745c1.65-2.6,1.3-4.037-1.727-4.906a3.261,3.261,0,0,1-2.285-2.417c-.24-.64.254-1.8-.859-1.819-.888-.01-.513,1.1-.843,1.635a3.917,3.917,0,0,1-3.392,2.2c-1.894.082-1.666-1.213-2.016-2.244-.127-.376-.356-1.061-.762-.666-1.26,1.244-1.249,0-1.529-.686a6.779,6.779,0,0,0-2.006-2.854c-.97-.792-1.62-2.1-.366-3.007,1.138-.823,2.056.132,2.555,1.229,1,2.2,3.144,3.017,5.053,3.865,1.869.828,3.926-.568,6.216,1.488,2.026,1.829,6.024,1.5,9.238,1,1.945-.3,6.892,2.224,7.745,3.967,1.7,3.453,2.153,3.616,5.4,1.7.055,7.349,4.3,13.087,6.907,19.426.543,1.325,1.071,2.016,2.667.447,2.229-2.2,2.6-4.673,2.4-7.435a4.7,4.7,0,0,1,1.575-4.012c2.636-2.6,5.815-4.7,7.547-8.146a1.634,1.634,0,0,1,1.244-.747c1.554.041,2.991.056,3.981-1.493a.692.692,0,0,1,1.214.275c.264,2.016,1.94,3.017,2.885,4.5.711,1.123,2.295,1.8,2.082,3.728-.269,2.4.534,2.763,2.626,1.524.756-.441,1.7-1.234,1.991-.02.564,2.366,2.2,4.393,2.082,6.953-.147,3.037-.365,6.074,2.433,8.293.736.584.776,1.65.949,2.57a6.633,6.633,0,0,0,6,5.353,8.944,8.944,0,0,1-1.691-5.033,2.416,2.416,0,0,0-1.046-1.64,13.424,13.424,0,0,1-4.479-5.191c-.64-1.29-.818-5.022.112-6.074.239-.269.472-.467.823-.208,2.6,1.925,5.607,3.428,6.826,6.745,1.483-1.1,2.95-2.209,4.449-3.281a3.679,3.679,0,0,0,1.508-4,8.14,8.14,0,0,0-3.687-5.78,4.135,4.135,0,0,1-2.163-4.22,3.53,3.53,0,0,1,2.564-2.844c1.523-.5,2.488.264,3.373,1.655-.062-1.32.649-1.57,1.554-1.889a34.968,34.968,0,0,0,7.13-2.931c3.875-2.457,4.5-6.977,6.135-10.847.6-1.438-1.265-1.757-1.088-2.656.656-3.24-1.594-5.14-3.372-7.018-1.254-1.326-1.238-2.118-.366-3.413a3.575,3.575,0,0,1,2.458-1.6.823.823,0,0,0,.732-.889c-.021-.361-.325-.788-.605-.666-1.218.524-2.473-.924-3.788.366s-1.859-.782-2.743-1.25c-.822-.432-.624-1.478.462-1.9.691-.275.432-1.158.849-1.453.93-.655,1.01-2.56,2.346-2.255,1.792.411.178,2.016.589,3.017a2.661,2.661,0,0,1,.015.925c.853.03,1.006-.671,1.437-1.026.919-.747,1.839-1.442,3.205-.934,1.295.482.8,1.508.888,2.346.061.508,0,1.295.513,1.275,3.341-.142,2.311,2.666,2.956,4.3.289.736-.264,2.392.975,1.975,1.163-.386,3.728.324,3.26-2.56a8.214,8.214,0,0,0-2.463-4.875c-1.783-1.651-3.007-3.1-.513-5.129.661-.534.208-1.437.254-2.179.1-1.808,1.488-3.53,2.783-3.266,2.463.508,3-.908,3.722-2.412a23.378,23.378,0,0,0,1.8-4.444c.868-3.555,2.229-7.151.6-10.818a6.616,6.616,0,0,1-.629-3.687c.31-2.087-.98-3.656-2.077-4.9-.8-.909-2.4-3.311-4.373-.736-.2.264-1.925.873-2.352-.686-.106-.391-.289-.909-.786-.833-2.032.305-1.56-.777-1.128-1.909a34.711,34.711,0,0,0,2.615-8.893c.239-2.356,1.245-3.85,3.753-4.179,2.052-.275,4.1-.5,5.693-2.234.66-.717,2.438-.625,2.788.05,1.762,3.428,2.676-.919,4.068-.36.092.035.417-.635.025-.8-2.062-.874-.873-2.316-.776-3.646.142-1.864-.137-3.86,2.209-4.592,2.3-.716,2.514,1.757,3.813,2.6,1.667-2.057.183-4.978,1.555-7.222a12.6,12.6,0,0,1,.853,9.288c-.6,2.2-.147,4.789-1.057,6.8a9.4,9.4,0,0,0-.731,5.667c1.077,5.871,5.652,9.908,8.232,15.078a34.86,34.86,0,0,0,.858-8.791,2.279,2.279,0,0,1,.717-2.077c1.2-.833.94-1.524.091-2.428-.781-.833-1.387-2.513-.518-2.869,2.047-.838.381-1.945.132-2.042-1.782-.691-.884-3.636-3.519-3.829-.945-.071-.193-5.876.574-6.917.635-.863,1.422.32,1.615-.314,1.025-3.4,3.062-2.225,5.185-.981a12.4,12.4,0,0,1,.762-5.885c.665-1.925,1.137-4.134,3.306-5.149.661-.315,1.9.472,1.96-.925a2.976,2.976,0,0,0-1.544-2.473c-1.783-1.28-3.083-3.205-5.541-3.809,2.753-1.574,2.722-3.022-.02-7.5,1.345.325,2.691,1.03,3.413-.656a1.38,1.38,0,0,1,1.168.056c1.108,1.208,2.388.335,3.545.319C2480.661,2353.648,2481.413,2353.277,2480.259,2351.8ZM2292.1,2445.215c.615-.874,1.712-.483,2.387-1C2293.953,2445.56,2293.917,2445.555,2292.1,2445.215Zm5.536-1.52c-.742.549-2.057.315-3.113.442h-.005c-1.666-1.275-2.732-2.59-1.086-4.753a17.949,17.949,0,0,0,1.447-3.439c.939-2.061,2.6-1.533,4.205-1.076.325.092.29.315.279.7a1.623,1.623,0,0,0,2.458,1.681c.741-.319,1.487-.629,2.28-.97-.5-.761-1.092-.086-1.589-.224-.6-.167-1.189-.421-1.254-1.066-.062-.6.584-.858,1.026-.889,1.478-.107,2.412-1.589,3.89-1.554.716.686-.132.853-.29,1.225-.843,2.011-1.173,3.712,1.671,4.5,1.143.32,2.067,1.4,3.124,2.083a2.092,2.092,0,0,1,1.082,2.356,2.048,2.048,0,0,1-2.179,1.387,9.058,9.058,0,0,1-4.444-.671C2302.617,2442.142,2300.158,2441.833,2297.635,2443.7Zm13.534,39.324c-2.219-2.8-1.493-7.019-4.992-8.841.076-3.093-3.2-4.764-3.24-7.791a2.237,2.237,0,0,1,3.128,1.29c1.523,3.225,4.424,5.485,5.551,9.146a15.974,15.974,0,0,0,4.139,5.85c1.93,1.864,1.234,4.46,2.082,6.6A31.875,31.875,0,0,1,2311.169,2483.019Zm15.657-32.2a7.478,7.478,0,0,1-4.931-1.57c-1.55-1.031-.549-3.032,0-4.372.35-.854.3-.976-.28-1.5-2.006-1.8-3.26-4.155-4.6-6.445a1.383,1.383,0,0,1,.03-1.65c1.62-1.605,3.22-3.327,5.688-3.474,1.021-.107,1.96-.275,2.148,1.092.163,1.163-.431,1.458-1.5,1.808-1.641.543-1.747,2.7,0,3.987a4.745,4.745,0,0,1,2.184,3.382c.229,2.529,2.214,4.195,2.839,6.5C2328.807,2450.065,2328.5,2450.649,2326.826,2450.822Z" transform="translate(-37.925 -4.03)" fill="#8e8d8b"/>
    <path id="Path_57" data-name="Path 57" d="M2121.2,2600.938c-.652.7-.84-.076-1.3-.3-.918-.437-1.189-2.107-2.907-1.334-.49.22-1.744-1.26-2.658-1.967.573-.623.95.367,1.368.073-.277-3.55-3.147-5.977-4.354-9.331,1.569.092,1.248,1.411,2.4,2.106-.843-2.25-1.45-4.168-2.29-5.978a1.888,1.888,0,0,1,.005-2.111c1.454-1.841.929-4.005,1.124-6.051.023-.249.049-.681-.062-.733-3.836-1.755-.511-5.789-2.6-8.136-.813-.913.395-1.688.646-2.515,1.081-3.555.6-7.131.617-10.745.028-5.286.423-10.573.422-15.881a5.907,5.907,0,0,0-3.846-5.947c-5.081-1.964-6.616-6.579-8.914-10.669-1.021-1.818-1.683-3.738-3.686-4.966-1.194-.733-1.25-2.537-.376-3.8.6-.872.986-1.2.268-2.433-1.021-1.748.366-3.768,1.436-4.935,1.036-1.131,2.167-2.339,3.137-3.509,1.271-1.533.276-3.6-.013-5.415a13.65,13.65,0,0,0-.791-1.848c-.219-.672-.428-1.411-1.249-1.33a1.514,1.514,0,0,0-1.408,1.229c-.079.574-.476,1.275-.771.932-1.333-1.556-3.457-1.185-5.055-2.588-3.133-2.75-5.055-7.507-10.4-7.234-.622.032-1.293-.986-1.949-1.508-1.411-1.121-2.811-2.223-4.811-1.4a3.258,3.258,0,0,1-2.445-.4c-2.282-.876-4.679-1.534-6.712-2.935-2.048-1.414-5.033-1.982-4.309-5.806.259-1.363-.81-3.295-2-4.5-2.26-2.3-3.316-5.382-5.384-7.807a13.139,13.139,0,0,1-1.537-3.442c-.307-.718-.682-1.593-1.592-1.262-1.081.394-.829,1.529-.376,2.138,2.488,3.343,3.124,7.566,5.356,11.019.106.163-.011.471-.264.871-.979-1.508-3.42-1.869-3.067-4.388a.63.63,0,0,0-.13-.48c-3.875-3.617-3.756-9.022-5.994-13.369a2.85,2.85,0,0,0-1.487-1.652c-2.563-.856-2.9-3.144-3.277-5.284-.369-2.073-1.439-3.942-1.514-6.093-.162-4.66,1.436-8.886,3.093-13.1a6.913,6.913,0,0,0,.6-4.407c-.346-1.392,0-2.466,1.84-1.486.415.221,1.091.487,1.374.307a1.183,1.183,0,0,0,.173-1.619c-1.008-1.41-1-3.568-3.041-4.219l.033.035a4.5,4.5,0,0,1-1.195-5.087c.576-1.916-1.53-3.721-1.53-5.805a4.729,4.729,0,0,1,.346-2.619c.976-1.762-.688-.892-1.539-1.079,1.338-.86,1.1-1.995.828-3.118-.117-.482-.552-.995-.457-1.4.633-2.716-.619-3.75-3.158-3.809-.74-.018-.893-.671-1.071-1.239a7.586,7.586,0,0,0-5.651-5.473,4.669,4.669,0,0,1-2.767-2.95c-.381-1.166-1.355-.64-1.966-1.026-.558-.353-.471.744-.629,1.261a2,2,0,0,1-1.687,1.573,45.161,45.161,0,0,0-5.122,1.643l3.032-4.88c-2.506.451-3.2,3.182-5.41,3.068.263,3.621-3.213,3.373-4.992,4.909a42.335,42.335,0,0,1-6.752,4.249c-1.723,1-3.994,1.047-6.467,1.623,2.262-2.784,5.448-2.961,7.834-4.56a12.728,12.728,0,0,0,3.907-3.474c.934-1.439.708-1.169-.76-2.109-1.174-.753-4.181-.851-2.471-3.8.455-.784.034-1.491-1.13-1.149-.734.217-1.038-.26-1.271-.881-.767-2.039.843-7.138,2.908-7.841,2.352-.8,4.307-2.64,7.111-2.42,1.578.125,1.822-1.708,1.858-2.869.043-1.365-1.044-.661-1.837-.642a9.378,9.378,0,0,1-3.17-.548,1.434,1.434,0,0,1-.839-2.388c.734-1.053.853-1.966-.273-2.774,1.714-1.518,3.879-1.379,5.7-2.166.458-.2,1.641-.364,1.412.666-.214.954-.236,1.619.771,1.584,1.168-.041,2.088-1.292,1.77-2.061-.754-1.823.135-3.616-.391-5.4-.85-2.877.044-3.887,2.956-3.544a4.182,4.182,0,0,0,3.055-.977,31.177,31.177,0,0,1,5.927-2.93c2.107-.957,4.383-.074,6.176-1.46.389-.3,1-.165,1.094.214.425,1.766,2.944,2.079,2.844,4.191-.013.278.253.8.445.823,3.08.452,4.5,3.667,7.623,4.405a7.149,7.149,0,0,1,4,3.807c.725,1.856,2.151,2.944,3.291,4.491,1.855-3.288,5.309-3.291,8.156-3.57,1.176-.115,2.547,1.565,3.513-.8a3.265,3.265,0,0,1,.073,2.6c-.094.431.029,1.19.173,1.138,1.4-.508,2.419.626,3.58.72a2.5,2.5,0,0,1,2.361,1.4,6.022,6.022,0,0,0,4.257,3.252,1.725,1.725,0,0,1,1.636,1.607c.171,1.063-.535,1.133-1.311,1.4-1.261.434-.688,1.1.042,1.57a4.621,4.621,0,0,0,3.207.491c2.2-.314,3.2.356,2.643,2.688-.041.168.2.4.4.764,1.181-.992.726-3.184,2.66-3.408.138-.016.43-.363.014-.516-.51-.187-1.435-.177-.885-1.017.651-.993,1.862-.525,2.829-.619.742-.071.859.531,1.007,1.172.9,3.885,4.484,5.159,7.7,2.763.53-.394,1.029-.543,1.569-.051.71.649,1.4,1.3.363,2.656,1.074-.587,1.689-.947,2.323-1.268,2.14-1.082,2.638-3.036,1.283-5.084-.955-1.444-.246-4.336,1.665-5.912.714-.59,1.264-1.988,2.385-1.5,1.274.557,1.141,2.035.957,3.158-.281,1.708.709,3.8-1.693,4.965.83.6,2.967.14,1.415,1.922a.936.936,0,0,0,.246,1.356c.86.4.538-1.274,1.677-.781a2.059,2.059,0,0,1-.089,2.757c-.518.7-.224,1.266.392,1.729.769.58,1.3.06,1.708-.475.914-1.2,1.777-2.44,2.611-3.7.388-.585.283-1.692,1.368-1.507a4.208,4.208,0,0,1,2.87,2.553,1.584,1.584,0,0,1-.648,2.152,1.636,1.636,0,0,0-1.181,1.91c.211,2.588-3.071,4.9-5.388,3.637-1.1-.6-.957-.581-1.56.506a26.841,26.841,0,0,1-4.023,4.749,2.386,2.386,0,0,1-2,.84c-1.408-.071-2.3.486-3.085,1.978-.555,1.057-2.469,1.455-3.595,2.444a14.745,14.745,0,0,0-4.664,6.148c-.082.237-.034.54-.163.734-1.294,1.945,2.154,1.442,1.608,3.227-.36,1.175-.413,2.468,1.75,2.74,2.538.319,3.466,3.3,5.657,4.431.435.225.8.881,1.183.865,3.762-.159,2.861,2.117,2.246,4.218a3.1,3.1,0,0,0,.377,3.121c.6.685.923,1.907,2.329,1.464,1.313-.414,1.119-1.433,1.138-2.406a11.136,11.136,0,0,0,.048-2.024c-.341-2.015.638-2.95,2.389-3.744,3.125-1.418,3.813-3.751,2.3-6.838-.214-.439-.8-.9-.364-1.342,2.314-2.326,2.537-5.32,2.831-8.317a1.372,1.372,0,0,1,.985-1.074c1.066-.4,5.659,1.575,6.2,2.637.447.869.726,1.835,1.952,2.038.774.128,1.119.631.611,1.483a7.114,7.114,0,0,0-.513,1.657,3.162,3.162,0,0,0,1.626,3.786c.919.425,2.3-.721,3.068-1.768.637-.872,1.142-1.842,1.89-3.072.756,2.915,2.1,5.563,1.941,8.118-.2,3.246,1.262,4.63,3.729,5.76.215.1.51.295.538.481.1.682-1.037.372-.89.9.1.342,1.108-.212,1.185.516.079.745.688.574,1.051.826a1.24,1.24,0,0,1,.4,1.575c-.511,1.609.052,3.462-1.309,4.953-.257.282.058,2.365,1.557,2.18,1.273-.157,1.7-.134,1.44,1.3a1.806,1.806,0,0,0,.531,1.67,1.328,1.328,0,0,1-.127,2.026c-.741.625-1.158-.541-1.526-.567-2.311-.16-4.29-1.985-7.027-.864,1.076-3.066,3.483-4.745,4.33-7.35a2.138,2.138,0,0,0-2.59.532,4.3,4.3,0,0,1-4.422,1.256c-3.522-.692-6.785-.737-9.242,2.508.511.341,1.05-.138,1.615-.281s1.151-.282,1.735-.377a1.7,1.7,0,0,1,1.785.692c.266.392.017.76-.25,1.13-1.585,2.2-.718,4.378,2,5.006.564.13,1.2,0,1.636.793-1.712,1.545-4.441,1.1-6.062,3-.5.588-1.223-.269-1.006-1.061.161-.589.614-1.1.817-1.909-1.718,1.455-3.994,1.381-5.817,2.433-1.185.684-2.224,1.7-1.4,3.272.493.938-.1.981-.685,1.095a25.471,25.471,0,0,1-2.982.5,2.029,2.029,0,0,0-2.173,1.693c-.394,1.884-2.49,2.826-2.543,5.121-.023,1-.956-.4-1.483-.7-.323.764.1,1.466.15,2.193.114,1.611-.056,3.059-1.966,3.838-2.17.886-3.67,2.842-5.719,4.025-1.82,1.05-1.51,3.043-1.23,4.819.236,1.493.616,2.964.837,4.458.141.953-.043,2.067-1,2.368-1.054.331-1.307-.823-1.608-1.561-.5-1.218-1.167-2.322-1.022-3.82.134-1.374-.559-2.429-2.4-2.328-1.434.079-2.742-.9-4.27-.929-1.831-.039-3.583-.307-2.452,2.711a22.554,22.554,0,0,1-3.13-.942c-2.243-1.067-4.047-.24-6.177.659-2.4,1.011-3.1,2.163-2.915,4.706.107,1.43-.9,3-1.238,4.567-.593,2.776.532,5.056,2.192,6.972,1.987,2.293,6.693,1.256,7.88-1.532.663-1.558,3.514-3.03,5.05-2.583,1.261.367.594,1.023.293,1.726-.831,1.945-1.572,3.929-2.355,5.895-.656,1.646.207,1.913,1.552,1.692a12.81,12.81,0,0,1,3.751-.08c2.142.268,2.417,1.353,1.886,3.134a22.87,22.87,0,0,0-.6,2.965,3.48,3.48,0,0,0,4.518,3.89c1.37-.5,2.733-.859,3.766.266,1.235,1.344,2.139.476,2.507-.421,1.33-3.238,4.987-2.565,6.782-4.745,1.1.966-.8,1.553.159,2.1.882.5,1.293-.265,1.737-.945.562-.862,1.144-.278,1.677.15a8.287,8.287,0,0,0,8.069,1.516c.989-.3,1.765-.058,2.768,1.061,1.786,1.994,4.238,3.452,6.27,5.318a3.455,3.455,0,0,0,2.38.674,8.561,8.561,0,0,1,8.625,6.732c.223.97-.791,1.432-.917,2.315,3.366.649,6.713,1.225,9.53,3.412a4.122,4.122,0,0,0,2.454.323c4.042-.18,6.839,2.488,9.966,4.346,1.9,1.126,1.626,3,1.019,4.749a10.056,10.056,0,0,1-2.338,3.285,10.391,10.391,0,0,0-3.127,7.724c.132,3.3-1.369,6.334-2.564,9.359a2.274,2.274,0,0,1-2.085,1.277c-2.342-.133-3.9,1.474-5.731,2.387-1.949.972-3.366,2.443-2.71,5.076.386,1.553-2.468,6.691-3.94,7.052-.995.244-.47.809-.618,1.166-1.005,2.418-1.643,5.108-5.231,4.759-1.652-.161-1.459,1.24-1.18,2.118.876,2.75.42,3.788-2.332,4.6a6.261,6.261,0,0,1-1.472.35c-1.661.062-2.562.908-2.466,2.538.078,1.319-.408,1.96-1.687,1.882a.981.981,0,0,0-1.162.7c-.2.644.21.884.784,1.012.833.187.954,1.036.429,1.277-2.7,1.238-1.145,4.323-2.763,6.073a1.465,1.465,0,0,0,.894,2.384c1.209.372,1.1,1.5.505,2.279a12.984,12.984,0,0,0-1.851,3.485c-.356.956-1.714,1.708-.8,2.859,1.423,1.8,1.186,4.686,3.848,5.675.8.3,1.957.129,2.258,1.323A36.052,36.052,0,0,1,2121.2,2600.938Z" transform="translate(-0.692 -4.518)" fill="#8e8d8b"/>
    <path id="Path_58" data-name="Path 58" d="M2193.753,2336.838c-.058-1.074-.088-1.742-.131-2.409-.057-.9-.813-2.281,1.293-1.428.637.258,1.17-.7,1.355-1.508.365-1.585,1.306-2.053,2.632-1.024a1.91,1.91,0,0,0,2.956-.414c1.117-1.576,2.519-1.49,3.98-1.059,2.106.621,4.308,1.122,6.1,2.59-.729.971-1.611.478-2.3,1.1,2.329-.43,3.483,1.328,5.005,2.381.619.428,1.58.819,1.475,1.576-.124.885-1.179,1.058-1.974,1.344-1.755.634-3.566.2-5.541.126.643,1.108,2.093.292,2.314,1.4.068.34-.439.8-.695,1.218,1.03.281,1.894.465,2.554-.8a1.415,1.415,0,0,1,2.219-.185c.946.807-.385.97-.61,1.468-.552,1.223-2.017,1.424-2.939,2.635,2.365-.169,4.131-1.342,5.912-2.231a3.372,3.372,0,0,1,4.15.348c1.232,1.023,1.192,2.2-.187,2.762-1.252.511-1.8,2.282-3.49,1.865.339,1.194-.65,1.725-1.161,2.55-1.223,1.975-2.622,3.825-3.153,6.25-.277,1.26-.823,2.559-1.124,3.88-.169.744.432.721.869.905,1.02.428.765,1.23.4,1.9-.5.909-1.024.173-1.392-.172-.938-.882-1.363.012-1.816.514-.611.677-.179,1.006.416,1.569.625.593.766,1.678,1.177,2.519.863,1.758-.694,1.3-1.44,1.735-.659.38-.559.957.3,1.207a.61.61,0,0,1,.34,1c-.327.476-.705.213-1.038-.1-.368-.35-.821-.78-1.209-.122a1.3,1.3,0,0,0-.014,1.176c.528.632,1.446,1.118.471,2.019a1.914,1.914,0,0,1-2.566.057c-.867-.634-1.87-1.333-2.548-.229a2.553,2.553,0,0,0,.662,3.258,5.546,5.546,0,0,1,2.228,4.6c-.013.589.33,1.533-1.005,1.585-.972.038-1.6,0-1.926-1.013-.194-.606-.189-1.681-.923-1.6a5.964,5.964,0,0,0-2.934,1.217c-.6.485.045.994.7,1.17,1.5.405,3,.827,4.553,1.256-2.824,3.157-6.6,4.041-10.406,4.658a5.736,5.736,0,0,0-3.99,2.352,5.2,5.2,0,0,1-5.129,2.434c-2.021-.223-4.6,1.917-4.932,3.9-.1.6-.1,1.2-.586,1.583-2.212,1.753-2.924,4.371-3.99,6.787-.257.582-.252,1.314-1.163,1.422a1.614,1.614,0,0,1-1.823-1.027,2.277,2.277,0,0,0-2.257-1.6,2.17,2.17,0,0,1-1.655-1.3c-.273-2.469-2.112-4.551-1.493-7.323.183-.818-.358-2.272-.583-3.434-.863-4.437-.172-5.9,3.672-8.664.967-.7,1.526-1.958,2.477-3.235a6.731,6.731,0,0,1-3.174-1.532c-.411-.4-1.149-.75-.8-1.4.422-.792,1.2-.4,1.775-.1a9.758,9.758,0,0,1,1.447,1.136c.342-1.023-.259-1.826-.441-2.662-.145-.667-.331-1.991-1.555-.744a.724.724,0,0,1-1.113-.044c-.455-.412-.356-.786-.051-1.311,1.409-2.429,2.617-4.917.994-7.748,1.9-1.682-.525-3.454.124-5.276.505-1.417-2.458-3.806-4.456-3.619-1.229.115-2.334-.574-3.666-.134-.721.24-2-1.253-1.676-1.817.71-1.252.084-1.816-.425-2.756-.45-.833.543-1.233,1.167-1.1,1.224.269,2.412-.465,3.723-.005a5.835,5.835,0,0,1-4.044-3.112c-.769-1.463-.488-2.414.958-2.637,1.993-.308,3.914-1.32,5.947-.985,1.855.306,2.539-.889,3.409-2.032.511-.669.344-1.167-.357-1.349-2-.518-.912-1.639-.2-2.01,1.728-.905,2.976-3.047,5.514-2.139,1.062.38,1.285-.792,1.509-1.593.286-1.027.427-2.02,1.993-1.244.852.423.284-1.335,1.4-1.287a10.759,10.759,0,0,0,4.217-.26c.844-.3,1,.576.7,1.355a1.962,1.962,0,0,0,1.465,2.613c1.362.363,1.427-.953,1.467-2,.023-.584.141-1.383.708-1.5.789-.16,1.066.6,1.295,1.274A3.957,3.957,0,0,0,2193.753,2336.838Z" transform="translate(-26.937 -2.293)" fill="#8e8d8b"/>
    <path id="Path_59" data-name="Path 59" d="M2492.051,2604.184c-1.042.3-1.219,1.176-2.12.839l1.8-3.676-.286-.216c-.9.807-1.785,1.624-2.7,2.413-.278.241-.378.9-.925.575a1.324,1.324,0,0,1-.407-.83c-.877-4.428-4.6-6.509-8.846-5.008-2.856,1.008-6.146,1.015-8.243,3.753-.2.259-.961.174-1.444.113a7.174,7.174,0,0,0-5.264,1.322,3.369,3.369,0,0,1-3.323.654c-1.372-.591-2.819-1.082-1.394-3.261,1.291-1.974.613-4.485.276-6.671-.26-1.687-.877-3.422-1.251-5.1s.509-3.582.528-5.391c.036-3.285,2.656-4.11,4.863-4.86,1.792-.608,3.514-1.557,5.492-1.743,1.649-.155,2.264-1.675,2.8-2.976.669-1.621.6-1.508,2.2-1.795.6-.107,1.191-1.053,1.5-1.744a8.5,8.5,0,0,1,2.5-2.764,1.565,1.565,0,0,1,2.577.14c.937,1.127,1.747,1.456,2.585-.418.652-1.458,2.323-2.393,3.451-3.474,2.62-2.508,4.5,1.008,6.714-.053,1.012-.484.881.614.568,1.24-1.713,3.422-1.724,3.42,1.323,5.439.485.321.99.614,1.492.908,3.041,1.78,3.088,1.672,4.113-1.875.739-2.557-.167-5.477,1.774-7.746.138.07.393.124.41.219.6,3.406,3.839,5.652,4.119,9.137.2,2.457,1.286,3.941,3.27,5.439,1.518,1.146,2.172,3.439,3.2,5.229.206.359.254.893.548,1.1,3.328,2.36,2.618,6.05,2.184,9a16.58,16.58,0,0,1-3.878,9.105,18.774,18.774,0,0,0-4.386,8.433c-.288,1.291-.816,2-2.139,1.967a3.631,3.631,0,0,0-2.478,1.1c-1,.841-1.98,2-3.086.067-.172-.3-.675-.313-1.149-.2-3.576.814-5.745-.8-5.9-4.588C2493.063,2606.544,2491.127,2605.963,2492.051,2604.184Z" transform="translate(-74.378 -39.536)" fill="#8e8d8b"/>
    <path id="Path_60" data-name="Path 60" d="M2183.663,2321.615c-.295,1.351-1.692,1.767-2.865,2.255-1.016.426-2.905-.447-2.626,2,.051.436-1.7,1.153-2.676,1.609a16.2,16.2,0,0,0-5.526,3.8c-1.483,1.676-3.788,1.021-5.805,1.585.915.807,1.087,1.5-.3,1.859,1.077,1.955-1.1,2.463-1.64,3.7a.863.863,0,0,1-.971.614c-2.335-.451-2.483,2.443-4.3,2.8-.107.02-.233.624-.178.66,1.214.721,1.219,1.772,0,2.042-1,.223-2.219,2.316-3.484-.02-.33-.6-2.255-1.006-2.95-.615-1.372.767-2.179.015-3.144-.462-.686-.34-1.884-.254-1.787-1.4a2.147,2.147,0,0,1,2.153-1.828c1.473-.066,2.214-.27,1.661-1.945a.893.893,0,0,1,.747-1.133.972.972,0,0,1,1.127.788c.2.614.153,1.371,1.524,1.722-1.179-1.087,1-2.712-1.61-3.444-1.031-.289.686-2.392,1.371-2.483,3.4-.452,3.611-2.448,3.144-5.165a1.8,1.8,0,0,1,1.143-2.067c.924-.264,1.595.361,2.087,1.072a10.765,10.765,0,0,1,.752,1.529c.645-.594-.457-2.113,1.2-2.1,2.433.757,2.813.661,3.641-.965-1.061.147-2.092.284-3.124.427-1.549-.671-3.331-.609-4.748-1.793-.894-.746-1.372-1.4-.991-2.539.3-.9.706-1.7-.092-2.708-.462-.584.371-1.173.991-1.472a5.325,5.325,0,0,1,2.981-.422c1.2.244,2.012,1.453,2.428-.812.163-.9,1.2-1.508,1.93-.065.619,1.239,1.32,1.051,1.579-.138.254-1.157,1.229-1.29,1.945-1.656,1.757-.888,3.8-.279,5.622-.365,3.408-.162,6.78,1.463,9.533,3.641A3.907,3.907,0,0,1,2183.663,2321.615Z" transform="translate(-24.494)" fill="#8e8d8c"/>
    <path id="Path_61" data-name="Path 61" d="M2144.591,2371.154c.054,1.664-.091,2.088-2.085,1.7-2.954-.575-5.406-2.007-7.965-3.3-1.174-.6-1.633-1.619-.453-2.75.146-.14.492-.277.474-.35-1.091-4.508,2.758-5.828,5.194-8.045a2.441,2.441,0,0,1,.922-.407c.854-.265,1.822-.351,2.292.489.63,1.128-.565,1.377-1.206,1.8-2.17,1.444-2.179,1.429-1.726,4.081.724-3.015,2.555-4.019,4.86-4.5,2.08-.435,2.54-.051,2.024,1.941-.127.49-.24.985-.405,1.462-.576,1.67.315,1.924,1.668,1.76,2.949-.355,3.41.085,3.8,3.025.1.775-.529,3.091,1.8,1.491.368-.254.645.141.782.427.536,1.116-.671,1.255-1.728,2.074a5.764,5.764,0,0,1,3.26.74c.833.4,1.046.82.412,1.51-.6.649-.793,1.03.38.753.474-.112.55.242.663.556-1.413.375.206,2.154-1.63,2.917-1.719.714-.177,2.77.918,3.367,1.732.945,1.934,3.093,3.743,3.94.713.334-.293,1.014-.671,1.526-.871,1.181-2.824,1.212-2.948,3.149-1.474-.65-1.315-2.008-1.855-2.954-.3-.528-.684-1.444-1.4-1.19-.455.161-.807,1.022-.924,1.624a2.5,2.5,0,0,0,.479,2.139c1.573,1.965,1.636,3.943-.2,5.789l-2.965-2.471c-.4.835.187,1.305.385,1.852.264.729,1.393,1.484.451,2.192-.715.538-1.849-.232-2.177-.8-.962-1.665-3.5-1.893-3.409-4.732.062-1.922-2.5-2.361-4.365-2.613-.953-.129-2.465.2-2.155-1.295.242-1.17,1.228-1.946,2.894-1.184,1.491.681,3.213.675,3.64-1.663a2.29,2.29,0,0,1,1.694-1.718,2.647,2.647,0,0,0,1.989-2.872,3.61,3.61,0,0,0-2.324-3.264c-1.157-.345-.408-.386-.418-1.011A8.255,8.255,0,0,0,2144.591,2371.154Z" transform="translate(-22.577 -6.938)" fill="#8e8d8b"/>
    <path id="Path_62" data-name="Path 62" d="M2101.618,2351.706c.719-.13,1.52-.943,2.115-.348.79.788-.73,1.287-.616,2.151,1.27-.233,2.746-.994,2.6,1.456-.06.992.439.958,2.2-.539,1.039,1.575-.278,3-.5,4.707,1.85-.847,1.793-2.437,2.275-3.706.316-.834.347-2.042,1.687-1.691s1.509,1.434,1.158,2.634a16.449,16.449,0,0,1-1.355,4.031c-1.468,2.288-.109,3.762.861,5.409.357.6.837,1.032.349,1.771-.5.762-.975.2-1.512.063-1.179-.29-1.222-.2-.912.938a1.1,1.1,0,0,1-1.145,1.53c-.812-.005-1.961-.1-2.375-.626-1.982-2.506-4.334-1.453-6.629-.907a8.73,8.73,0,0,1-3,.271,3.981,3.981,0,0,1-1.082-.417c.885-2.348-1.318-3.14-2.172-4.639-.808-1.418.313-2.5,2.067-2.3a6.491,6.491,0,0,1,2.661.747c.494.295,1.2.715,1.5-.056.292-.741-.383-1.264-1.027-1.471-.794-.256-1.676-.243-2.465-.507s-2.005-.285-1.756-1.671c.226-1.264,1.285-.769,2.043-.906.216-.039.424-.122.708-.206-.479-.978-2.558-1.046-1.934-1.938.915-1.307,1.96-3.021,4.061-2.944A2.137,2.137,0,0,1,2101.618,2351.706Z" transform="translate(-16.173 -5.872)" fill="#8f8e8c"/>
    <path id="Path_63" data-name="Path 63" d="M2517.591,2556.439c-2.419-.225-4.616-.555-6.262-2.826-1.542-2.129-2.908-1.826-4.415.6-.4.635-.88.609-1.5.54-2.577-.291-4.707-1.116-5.676-3.859-.562-1.589-1.729-2.87-3.549-2.784-1.619.076-2.724-2.34-4.534-.813-.235-.328-.708-.7-.662-.979.245-1.489-.731-2.127-1.728-2.819-.7-.481-.174-.829.208-1.148a2.471,2.471,0,0,1,2.567-.4c1,.314,1.466.827,1.308,1.8-.178,1.1.649,1.564,1.3,1.958.966.587,1.279-.567,1.7-1.042a3.232,3.232,0,0,1,4.2-.937,47.314,47.314,0,0,0,6.984,2.18c2.495.619,3.507,3.323,5.924,3.979-1.373,3.216,2.035,3.457,3.155,5.126C2516.923,2555.478,2517.736,2555.558,2517.591,2556.439Z" transform="translate(-79.342 -36.308)" fill="#8f8e8c"/>
    <path id="Path_64" data-name="Path 64" d="M2453.788,2537.542c1.044-1.018,2.752-2.124,3.644-3.694,1.064-1.875,3.215-2.666,4-4.758.4-1.058,1.523-.366,1.788.213.383.84,2.468.645,1.45,2.173-1.295,1.946-1.423,3.7.353,5.378.319.3.529.455.143.967a15.243,15.243,0,0,0-2.85,5.968c-.246,1.125-.878,2.31-2.531,1.316-.435-.262-1.132-.08-1.708-.115-3.691-.228-5.624-1.722-6.544-5.212C2451.183,2538.454,2451.169,2537.158,2453.788,2537.542Z" transform="translate(-73.345 -34.196)" fill="#8f8e8c"/>
    <path id="Path_65" data-name="Path 65" d="M2341.936,2564.295a6.966,6.966,0,0,1,1.392,6.422c-.771,3.831-2.276,7.411-3.192,11.169-.466,1.915-1.336,3.135-3.309,3.64a2.081,2.081,0,0,1-2.417-.863,5.235,5.235,0,0,1-.583-5.516,5.618,5.618,0,0,0,.767-4.7,2.855,2.855,0,0,1,2.152-3.677C2339.521,2569.872,2341.28,2567.832,2341.936,2564.295Z" transform="translate(-54.491 -39.905)" fill="#8f8e8c"/>
    <path id="Path_66" data-name="Path 66" d="M2331.225,2378.263a14.334,14.334,0,0,1-3.134-2.117c-2.4-1.691-2.216-2.993-1.229-5.121.744-1.6-.175-3.705,1.4-5.134a.983.983,0,0,0,.291-.688c-.193-3.3,2.744-4.346,4.476-6.253a1.566,1.566,0,0,1,1.355-.576,3.68,3.68,0,0,0,4.07-1.858,1.584,1.584,0,0,1,2.03-.6c.955.375.951,1.259,1.04,2.119.11,1.066-.594,1.119-1.337,1.423a15.3,15.3,0,0,0-9.838,11.776,5.544,5.544,0,0,0,1.766,5.538c.364.316.851.627.613,1.258C2332.443,2378.772,2331.917,2378.39,2331.225,2378.263Z" transform="translate(-53.356 -6.612)" fill="#8e8d8c"/>
    <path id="Path_67" data-name="Path 67" d="M2147.752,2330.2c-.449-1.282-2.434-.995-2.055-2.214.532-1.711.906-3.839,2.593-4.708,1.271-.654,1.381-2.838,3.339-2.378a.621.621,0,0,0,.2-.386c-.016-.426-1.512-1.061.113-1.215.8-.076,1.1.815,1.078,1.468-.061,1.79-.045,3.441,1.487,4.8.451.4.2,1.491-.275,2.123a1.4,1.4,0,0,0-.152,1.783c.369.659.4,1.781-.427,1.97-1.712.387-2.658,1.677-3.894,2.65a3.493,3.493,0,0,1-3.673.543c-1.155-.5-.956-1.611-.933-2.611C2145.184,2330.376,2146.406,2330.148,2147.752,2330.2Z" transform="translate(-24.448 -0.787)" fill="#8f8e8c"/>
    <path id="Path_68" data-name="Path 68" d="M2493.221,2453.61c3.488,2.816,1.833,6.444,2.1,9.733a.646.646,0,0,1-.043.25c-.413,1.2,1.472,3.017-.384,3.529a15.97,15.97,0,0,1-3.436,1.033c-.491.024-1.13-.438-1.173.694-.02.541-.387,1.664-1.368,1.511-1.1-.173-.705-1.372-1.124-2.2-.829.306-1.64.673-2.49.9-1.34.364-2.554.606-1.492,2.512.352.633.066,1.656-.029,2.49-.077.679-.295,1.407-1.206,1.309-.815-.089-.679-.862-.787-1.4-.14-.7.418-1.739-1.052-1.665-.313.016-.245-.637-.042-.864,1.771-1.967,2.522-5.111,5.957-5.177.412-.008.984-.052,1.2-.313,1.09-1.305,1.749-2.707,3.537-3.7,1.747-.971,1.53-3.882.827-6.076A2.122,2.122,0,0,1,2493.221,2453.61Z" transform="translate(-78.001 -22.233)" fill="#8e8e8c"/>
    <path id="Path_69" data-name="Path 69" d="M2100.581,2350.667l-2.2.841c-3.06-1.248-4.7,1.358-6.271,2.876-1.275,1.234-2.612,1.067-3.875,1.617-.466.2-1-.045-.825-.519.467-1.237-1.37-2.282-.233-3.484,1.381-1.459,2.792-2.889,4.211-4.312.411-.411,1.044-.692.982-1.377-.116-1.295.626-1.432,1.681-1.586C2097.988,2344.145,2100.543,2346.422,2100.581,2350.667Z" transform="translate(-15.137 -4.833)" fill="#8f8e8c"/>
    <path id="Path_70" data-name="Path 70" d="M2426.66,2531.147c1.589.432,3.1.542,4.49,2,2.152,2.269,5.385,3.667,7.087,6.165,1.587,2.331,5,4.021,4.035,7.8-.185.725-.3,1.171-1.091,1.414-.747.229-1.1,0-1.724-.42-3.267-2.19-5.12-5.49-6.941-8.751a18.246,18.246,0,0,0-5.191-6.33A1.446,1.446,0,0,1,2426.66,2531.147Z" transform="translate(-69.38 -34.613)" fill="#8e8d8c"/>
    <path id="Path_71" data-name="Path 71" d="M2250.369,2437.643c1.808-.7,1.214-2.821,2.763-3.7.547-.312-.158-1.679-.66-1.953-2.526-1.382-2.322-3.728-2.262-5.972a2.125,2.125,0,0,1,1.682-2.234c.438-.077,1.513-.355,1.084.658-.9,2.118,1.763.5,1.73,1.8-.027,1.026-1.581,1.866-.7,2.724,2.049,1.993,2.407,5.271,5.229,6.649a.925.925,0,0,1,.146,1.535c-1,.682.44,2.747-1.712,2.707a27.34,27.34,0,0,0-7.663,1.248l2.38-2.664Z" transform="translate(-41.195 -17.455)" fill="#8f8e8c"/>
    <path id="Path_72" data-name="Path 72" d="M2145.778,2350.834h3.264c1.648,0,2.795.7,2.67,2.453a2.841,2.841,0,0,1-3.624,2.487,17.266,17.266,0,0,0-5.014-.874c-1.606-.107-2.795-1.165-4.159-1.767-1.425-.63-.847-2.043-.156-3.037,1.082-1.554,1.893-2.879-.6-3.918-.9-.377-.855-1.545-1.064-2.412-.084-.347.251-.595.633-.619.979-.064,2.145.083,2.3,1.094.254,1.7,2.711.725,2.709,2.527,0,.356.619.65.283,1.114-1.2,1.659-.878,2.292,1.537,2.926a8.491,8.491,0,0,0,1.22.141Z" transform="translate(-23.164 -4.593)" fill="#8f8e8c"/>
    <path id="Path_73" data-name="Path 73" d="M2276.178,2352.587c.483-.61-.171-1.6.646-1.833.7-.2,1.145.509,1.623.986,1.218,1.216,1.6,3.233,4.517,3.718-3.029.841-2.42,2.87-2.9,4.388-.493,1.569-.827,3.188-1.331,5.184a31.5,31.5,0,0,1-2.342-2.563c-.418-.572-1.729-1.318.018-2,.384-.15.221-.428-.211-.616-1.954-.851-2.458-2.924-3.508-4.495-.617-.925-1.724-2.353-.249-3.438C2273.679,2351.012,2274.972,2351.624,2276.178,2352.587Z" transform="translate(-44.66 -5.804)" fill="#8f8e8c"/>
    <path id="Path_74" data-name="Path 74" d="M2112.717,2345.626a36.067,36.067,0,0,1-3.958-.849c-.443-.147-1.168-.565-.96-1.294.168-.589.777-.574,1.281-.5,1.415.2.446-.768.631-1.078.786-1.323,1.925-2.778,3.536-2.648,1.145.092,1.705,1.564,1.9,2.818a6.286,6.286,0,0,1,.133,1.242c-.022.523-.121,1,.6,1.144.639.13.8-.3,1.169-.664,1.186-1.2.59-3.712,3.045-3.963.792.657-.32,1.26-.158,1.988.2.885-1.276,2.68,1.351,1.927.518-.149.788.527.7,1.084-.215,1.4-3.1,3.328-4.518,2.826a4.708,4.708,0,0,0-4.34.288,2.247,2.247,0,0,1-1.219.239c-.907-.044-2.171.055-2.228-1.118-.055-1.156,1.2-.841,1.971-.989A7.81,7.81,0,0,0,2112.717,2345.626Z" transform="translate(-18.483 -3.973)" fill="#8f8e8c"/>
    <path id="Path_75" data-name="Path 75" d="M2547.316,2621.093c.212.808-.406,1.24-.733,1.81-1.911,3.335-4.886,5.9-6.576,9.447-.617,1.294-1.756,3.062-4.224,1.541-1.585-.977-1.488-1.578-.7-2.729a12.657,12.657,0,0,1,3.7-4.038c2.613-1.619,4.2-4.21,5.624-6.882.26-.489.384-1.771,1.175-.953C2546.144,2619.878,2547.9,2619.49,2547.316,2621.093Z" transform="translate(-86.623 -48.643)" fill="#8f8e8c"/>
    <path id="Path_76" data-name="Path 76" d="M2549.9,2601.722a3.986,3.986,0,0,1,2.213,3.154c.154,1.659,1.888,2.35,2.706,3.669.618,1,1.389-.425,2.273-.517a1.866,1.866,0,0,1-.169,2.286c-1.665,1.964-2.089,4.561-3.544,6.606-.389.546-.6,1.622-1.616,1.183-1.3-.559-.085-1.206.054-1.817.093-.4.35-1.1.229-1.174-2.362-1.47-.914-3.037-.309-4.72a4.784,4.784,0,0,0-.621-4.1A6.727,6.727,0,0,1,2549.9,2601.722Z" transform="translate(-89.068 -45.881)" fill="#908f8e"/>
    <path id="Path_77" data-name="Path 77" d="M2229.849,2405.6c-.674-.893-1.661-.213-1.751-.953-.088-.721.633-1.1,1.253-1.427a.909.909,0,0,1,1.427.534c.44,1.761.519.652,1.411.2,1.424-.719,3.324-.543,5.028-.65,1.224-.078.889,1.231,1.258,1.828a1.965,1.965,0,0,1-.833,2.392,7.738,7.738,0,0,1-7.968,1.19c-.32-.13-.76-.464-.382-.586C2231.5,2407.415,2225.714,2405.844,2229.849,2405.6Z" transform="translate(-37.695 -14.162)" fill="#8f8f8d"/>
    <path id="Path_78" data-name="Path 78" d="M2433.534,2335.712l-.661-3.361c1.361.839,3.613-.478,3.792,2.256.12,1.833-1.189,1.382-2.214,1.344-.154.951.813.706,1.132,1.292-.938.692-2.171.925-2.924,2.032-1.06,1.557-2.187.1-3.3-.239-1.643-.5-1.87-2.069-2.6-3.245-.4-.641.043-1.36.339-1.917.913-1.716,2.01,1.944,3.062-.076.729-1.4,1.338-1.166,2.487.874A11.359,11.359,0,0,0,2433.534,2335.712Z" transform="translate(-69.391 -2.872)" fill="#908f8d"/>
    <path id="Path_79" data-name="Path 79" d="M2120.542,2364.571c-.947-1.541-.826-3.477-2.153-4.817a1.508,1.508,0,0,1,.356-2.029c.677-.431.984.107,1.423.553.86.872,1.123.178,1.19-.614.262-3.109,1.015-3.611,3.956-2.439,1.6.638.141,1.56-.149,1.868-.593.63-1.1.918-.6,1.962a2.852,2.852,0,0,1-1.889,4.2C2121.789,2363.475,2121.431,2364.332,2120.542,2364.571Z" transform="translate(-20.141 -6.431)" fill="#8f8e8c"/>
    <path id="Path_80" data-name="Path 80" d="M2479.225,2538.4c-.867,2.159-2.15,1.881-3.285,1.97-.793.062-2.1-.4-2.173.635-.1,1.41,1.442.562,2.316,1.125-2.152,1.376-2.157,3.076-.534,4.832.724.783-.247.609-.387.665-.6.236-1.256,1.229-1.855.019-.318-.641-.582-1.31-.918-2.075a6.45,6.45,0,0,0-.588,3.025.746.746,0,0,1-.757.816.6.6,0,0,1-.692-.585c.238-2.245-.76-4.34.136-6.811,1.038-2.86,2.954-2.86,5.043-2.93A7.062,7.062,0,0,0,2479.225,2538.4Z" transform="translate(-76.337 -35.77)" fill="#8f8e8d"/>
    <path id="Path_81" data-name="Path 81" d="M2485.024,2415.34c3.469,4.153,4.837,9.558,8.465,13.684-.907.192-1.372-1.217-2.1-.481-.565.573-.169,1.453-.094,2.192a5.19,5.19,0,0,0,1.8,2.964c.5.526,1.31.818,1.034,1.843-.89-.495-1.92-1.517-2.321.845C2490.711,2428.774,2486.027,2422.7,2485.024,2415.34Z" transform="translate(-78.719 -16.122)" fill="#908f8e"/>
    <path id="Path_82" data-name="Path 82" d="M2493.365,2442.287c2.441.71,3.117,3.883,5.937,2.875.162-.058.97,1.094,1.125,1.764.17.738-.7.746-1.2.982-.364.17-.93.4-.977.673-.281,1.646-1.111,1.139-2.118.73-1.435-.582-1.54-.5-1.273,1.065.107.624-.3.694-.558.921-.371.327-.681.326-.873-.275-.287-.893-1.334-1.69-.415-2.715C2494.6,2446.533,2494.211,2444.577,2493.365,2442.287Z" transform="translate(-79.935 -20.425)" fill="#908f8e"/>
    <path id="Path_83" data-name="Path 83" d="M2128.713,2362.077c-.752-.028-1.156-.288-.852-.936.6-1.286.641-2.747,1.406-4,1.618-2.65,4.124-3.1,6.418-1.06.366.326.621.74.24,1.03-1.446,1.1-2.17,3.452-4.553,2.945-.884-.188-.922.343-1.277.751A15.1,15.1,0,0,1,2128.713,2362.077Z" transform="translate(-21.676 -6.457)" fill="#8f8e8c"/>
    <path id="Path_84" data-name="Path 84" d="M2365.833,2329.774c1.715.64,4.218.757,3.647,3.3-.3,1.336,1.99,2.514.262,3.273-1.687.74-3.378-.608-4.857-1.449a2.644,2.644,0,0,1-1.279-3.5C2364.051,2330.171,2364.9,2330,2365.833,2329.774Z" transform="translate(-59.296 -2.46)" fill="#8f8e8c"/>
    <path id="Path_85" data-name="Path 85" d="M2288.98,2350.5c.1,1.554-2.861,3.844-4.04,3.256a9.671,9.671,0,0,1-3.745-2.665c-.653-.87-.93-1.429.015-2.185.6-.48.763-1.476,1.929-.264.842.875,2.75-.383,4.041.533C2287.831,2349.632,2288.847,2349.676,2288.98,2350.5Z" transform="translate(-46.08 -5.38)" fill="#908f8e"/>
    <path id="Path_86" data-name="Path 86" d="M2109.111,2337.572c-.477-.867.51-1.328.223-2.012-.54-.2-.759.234-.951.555-1.1,1.838-2.41,2.529-4.521,1.363-.908-.5-1.016-1.132-.368-1.379,3-1.145,5.179-4.168,8.8-3.882.412.033.931-.651,1.2.223a1.088,1.088,0,0,1-.3,1.119C2112,2335.011,2110.964,2336.6,2109.111,2337.572Z" transform="translate(-17.736 -2.815)" fill="#8e8e8c"/>
    <path id="Path_87" data-name="Path 87" d="M2130.65,2396a8.786,8.786,0,0,1-1.354.64c-.714.2-1.575,1.458-2.1.344-.371-.789-1.394-2.137.176-3.064a5.241,5.241,0,0,0,.887-.888c.864-.864,1.19-2.252,2.557-2.625.042,1.541,1.591,2.277,1.953,3.635a8.789,8.789,0,0,1,.349,2.22c0,.661,1.594,1.409.04,1.932-.924.312-1.533-.4-1.743-1.329A.959.959,0,0,0,2130.65,2396Z" transform="translate(-21.479 -12.14)" fill="#8f8f8d"/>
    <path id="Path_88" data-name="Path 88" d="M2243.86,2439.692c-.853-.181-2-.286-1.034-1.818.224-.353.759-.86.671-1.006-1.292-2.141.807-2.808,1.673-4,.787-1.085,1.847-.779,2.688-.3.747.425,1.585,1.182.409,2.146-.366.3-.29.731-.327,1.149A4.38,4.38,0,0,1,2243.86,2439.692Z" transform="translate(-39.989 -18.803)" fill="#908f8d"/>
    <path id="Path_89" data-name="Path 89" d="M2132.793,2333.816c.273-1.221-.771-1.732-1.7-2.245-.627-.347-.905-1.277-.493-1.258,2.308.107,1.548-1.531,1.859-2.691.408-1.526,1.675-1.024,2.346-.391,2.15,2.028,1.466,6.7-1.077,8.029a1.118,1.118,0,0,1-.924.055C2132.256,2334.977,2132.473,2334.462,2132.793,2333.816Z" transform="translate(-22.099 -1.956)" fill="#908f8d"/>
    <path id="Path_90" data-name="Path 90" d="M2126.8,2345.159c.354-.7,1.48-.59,1.643-1.67.079-.526.479-1.271,1.075-.188.265.481.626.572.768-.13.509-2.514,1.807-.529,2.508-.283,1.267.444.636,1.445.1,2.146-.85,1.118-1.765,2.191-2.719,3.224a1.92,1.92,0,0,1-2.351.15c-.831-.372-.576-1.128-.164-1.688C2128.729,2345.264,2126.483,2346.165,2126.8,2345.159Z" transform="translate(-21.518 -4.398)" fill="#908f8e"/>
    <path id="Path_91" data-name="Path 91" d="M2475.171,2517.565a5.043,5.043,0,0,0-4.294-1.995c-1.138.019-1.428-1.084-1.951-1.777-1.468-1.946-.084-3.845.348-5.707.208-.9,1.336-.228,2.033-.416.732-.2.36.688.438,1.1a4.528,4.528,0,0,1-.389,3.591c-.562.886-.683,2.109,1.139,2.087C2474.191,2514.431,2474.938,2515.473,2475.171,2517.565Z" transform="translate(-76.044 -30.854)" fill="#929290"/>
    <path id="Path_92" data-name="Path 92" d="M2445.992,2553.547c.67-.506,1.238-1.234,1.571-1.139,3.065.868,6.458.457,9.256,2.05.724.413,2.832.087,2.229,1.653-.5,1.3-2-.014-3.082.091-1.749.17-3.332-1.03-5.147-.968C2449.1,2555.292,2447.707,2554.26,2445.992,2553.547Z" transform="translate(-72.487 -38.006)" fill="#8f8e8d"/>
    <path id="Path_93" data-name="Path 93" d="M2379.419,2334.281c-.013.7-3.34,3.814-3.9,3.581-.687-.284-.847-1.028-1-1.659-.333-1.361.007-2.846-.816-4.137a.777.777,0,0,1,.365-1.076c1.445-.318,2.449.843,3.683,1.266A2.439,2.439,0,0,1,2379.419,2334.281Z" transform="translate(-60.93 -2.646)" fill="#908f8e"/>
    <path id="Path_94" data-name="Path 94" d="M2511.184,2627.043c-.66,2.47-1.092,4.552-3.5,5.7-1.6.764-1.84-.082-1.938-1.114a36.5,36.5,0,0,1,.02-4.255c.016-.755.631-1.277,1.092-.765C2508.091,2627.984,2509.488,2627.1,2511.184,2627.043Z" transform="translate(-82.017 -49.822)" fill="#90908e"/>
    <path id="Path_95" data-name="Path 95" d="M2108.314,2496.163c1.974-2.175,4.073-2.494,7.293-.647,2.523,1.447,4.783,3.349,7.644,5.4-2.292.376-3.575,1.043-5.092-1.26C2116.007,2496.382,2112.481,2495.06,2108.314,2496.163Z" transform="translate(-18.571 -28.731)" fill="#919190"/>
    <path id="Path_96" data-name="Path 96" d="M2472.987,2526.323c.758-1.5,1.462-2.555,3.017-2.375a1.158,1.158,0,0,0,1.04-.433c.569-.492.992-1.715,1.946-.982,1.137.873,1.173,2.4,1.127,3.673-.035.949-.985,1.687-1.957,1.97a1.177,1.177,0,0,1-1.47-.726C2476.253,2525.071,2474.753,2525.66,2472.987,2526.323Z" transform="translate(-76.797 -33.201)" fill="#929290"/>
    <path id="Path_97" data-name="Path 97" d="M2362.69,2328.258a3.977,3.977,0,0,1-2.592-3.361,2.345,2.345,0,0,1,1.405-2.656c.589-.2,3.916,3.122,3.925,3.767C2365.436,2326.521,2363.571,2328.219,2362.69,2328.258Z" transform="translate(-58.769 -1.256)" fill="#91908e"/>
    <path id="Path_98" data-name="Path 98" d="M2125.9,2504.786c1.222-.3,3.6.046,1.369-2.454,2.852.1,5.452-.015,7.3,2.739C2131.619,2505.044,2128.905,2506.384,2125.9,2504.786Z" transform="translate(-21.378 -30.012)" fill="#929290"/>
    <path id="Path_99" data-name="Path 99" d="M2150.905,2362.643c-.27-1.18-.021-2.056,1.4-1.955,1.818.13,2.546,1.363,2.735,3.014.065.559-.063.862-.8.863C2151.729,2364.568,2150.928,2364.157,2150.905,2362.643Z" transform="translate(-25.356 -7.395)" fill="#8e8d8c"/>
    <path id="Path_100" data-name="Path 100" d="M2050.525,2428.093c-.046,1.292,1.05,2.022,1.491,3.068.174.411.484,1.019.029,1.391-.475.388-.985.01-1.292-.371-1.382-1.72-3.649-2.812-4.076-5.556,1.47.534,2.543,1.387,3.88,1.5Z" transform="translate(-8.73 -17.924)" fill="#90908e"/>
    <path id="Path_101" data-name="Path 101" d="M2402.368,2527.182c.095,1.517-.368,2.294-1.588,2.44-1.129.135-1.544-.552-1.391-1.521.2-1.282-.192-3.289,1.366-3.482S2401.826,2526.519,2402.368,2527.182Z" transform="translate(-65.041 -33.568)" fill="#908f8e"/>
    <path id="Path_102" data-name="Path 102" d="M2114.829,2374.528c1.839-.425,1.629-3.115,3.533-2.174,1.037.512,2.2,2.156,1.064,3.367C2117.753,2377.5,2116.727,2375.211,2114.829,2374.528Z" transform="translate(-19.612 -9.227)" fill="#919090"/>
    <path id="Path_103" data-name="Path 103" d="M2123.784,2333.287c-1.18.977-.875,3.625-3.316,2.977a1.406,1.406,0,0,1-.939-2.016C2120.4,2332.125,2122.193,2333.213,2123.784,2333.287Z" transform="translate(-20.34 -2.966)" fill="#979695"/>
    <path id="Path_104" data-name="Path 104" d="M2138.974,2337.155c.293-1.1.378-2.687,1.808-2.571,1.076.087,1.589,1.487,1.418,2.63-.152,1.017-.622,1.848-2.042,1.631C2139,2338.669,2138.71,2338.189,2138.974,2337.155Z" transform="translate(-23.452 -3.227)" fill="#929290"/>
    <path id="Path_105" data-name="Path 105" d="M2470.108,2497.927c-1.728-2.611-1.652-4.283.168-5.82.31-.261.579-.677,1.064-.416a.964.964,0,0,1,.42,1.3C2471.216,2494.606,2470.678,2496.223,2470.108,2497.927Z" transform="translate(-76.138 -28.299)" fill="#959595"/>
    <path id="Path_106" data-name="Path 106" d="M2442.041,2333.458c1.754,0,2.979-.014,4.2.007.607.01,1.288.182,1.342.845a1.191,1.191,0,0,1-1.119,1.176A4.281,4.281,0,0,1,2442.041,2333.458Z" transform="translate(-71.856 -3.048)" fill="#8f8f8d"/>
    <path id="Path_107" data-name="Path 107" d="M2134.5,2349.421c.768.016,1.46.235,1.4,1.081a2.493,2.493,0,0,1-2.08,2.2c-1.1.25-.943-.8-1.073-1.519C2132.469,2349.67,2133.59,2349.652,2134.5,2349.421Z" transform="translate(-22.465 -5.597)" fill="#8d8d8b"/>
    <path id="Path_108" data-name="Path 108" d="M2144.927,2649.823c1.777-1.7,4.023-.544,6.005-.99-.839.867-2.128.855-3.039,1.871C2147.011,2651.689,2145.7,2650.915,2144.927,2649.823Z" transform="translate(-24.417 -53.403)" fill="#b4b4b3"/>
    <path id="Path_109" data-name="Path 109" d="M2278.5,2471.311c1.922-.417,3.224-1.237,4.434-.15.275.248.379,1.664-.2,1.776C2281.3,2473.213,2280.2,2472.218,2278.5,2471.311Z" transform="translate(-45.744 -24.949)" fill="#989897"/>
    <path id="Path_110" data-name="Path 110" d="M2016.061,2398.994c-.781-.025-1.115-.488-1.094-.969.076-1.813,1.924-1.434,2.886-2.166.294-.224,1.065.193.941.522C2018.3,2397.7,2016.727,2397.931,2016.061,2398.994Z" transform="translate(-3.667 -13.002)" fill="#989898"/>
    <path id="Path_111" data-name="Path 111" d="M2451.972,2503.924c.918,0,1.312.34,1.119,1.086-.24.926-.677,1.786-1.75,1.9a1.086,1.086,0,0,1-1.267-1.22C2450.161,2504.476,2451.094,2504.084,2451.972,2503.924Z" transform="translate(-73.138 -30.266)" fill="#909090"/>
    <path id="Path_112" data-name="Path 112" d="M2272.489,2468.537a11.405,11.405,0,0,1-.263-1.735c.018-.808-.929-1.764.335-2.408.386-.2.805-.411,1.093.02a4.133,4.133,0,0,1,.255,2.658C2273.877,2467.735,2273.3,2467.988,2272.489,2468.537Z" transform="translate(-44.691 -23.918)" fill="#949494"/>
    <path id="Path_113" data-name="Path 113" d="M2160.387,2638.674c.587-.037,1,.166.928.661-.2,1.375-1.476,1.4-2.441,1.735-.561.192-.674-.318-.617-.76C2158.421,2638.989,2159.706,2639.16,2160.387,2638.674Z" transform="translate(-26.543 -51.78)" fill="#adadad"/>
    <path id="Path_114" data-name="Path 114" d="M2486.154,2474.9c-.628-.132-.928-.438-.961-.856-.117-1.505,1.265-1.235,2.057-1.617a.639.639,0,0,1,.921.53C2488.262,2474.5,2485.991,2473.391,2486.154,2474.9Z" transform="translate(-78.745 -25.227)" fill="#8f8f8e"/>
    <path id="Path_115" data-name="Path 115" d="M2272.963,2462.691c-.672-.294-.67-.914-.618-1.466.057-.6.386-1.21,1.074-1.1.655.1.478.782.394,1.224C2273.714,2461.873,2273.71,2462.528,2272.963,2462.691Z" transform="translate(-44.758 -23.271)" fill="#aaaaa9"/>
    <path id="Path_116" data-name="Path 116" d="M2298.261,2476.106c1.168-1.137,1.917-.443,2.624-.6a1.332,1.332,0,0,1,1.447.461C2301.1,2477.251,2299.925,2475.986,2298.261,2476.106Z" transform="translate(-48.899 -25.718)" fill="#a2a2a2"/>
    <path id="Path_117" data-name="Path 117" d="M2315.738,2476.319a1.778,1.778,0,0,1-2.266,1.045c-.3-.1-.6-.474-.313-.78C2313.876,2475.833,2314.75,2476.038,2315.738,2476.319Z" transform="translate(-51.259 -25.818)" fill="#9b9b9b"/>
    <path id="Path_118" data-name="Path 118" d="M2119.848,2504.689a2.141,2.141,0,0,1,2.568.307c.37.344-.019.652-.3.743A1.783,1.783,0,0,1,2119.848,2504.689Z" transform="translate(-20.413 -30.342)" fill="#a5a5a5"/>
    <path id="Path_119" data-name="Path 119" d="M1992,2405.72c.659-.931,1.266-1.524,2.313-1.177a.685.685,0,0,1,.124.619A2.367,2.367,0,0,1,1992,2405.72Z" transform="translate(0 -14.382)" fill="#9e9e9e"/>
    <path id="Path_120" data-name="Path 120" d="M2137.763,2505.92c1.073-1.027,1.827-.974,2.743-.182C2139.662,2506.416,2138.916,2506.344,2137.763,2505.92Z" transform="translate(-23.273 -30.461)" fill="#989898"/>
    <path id="Path_121" data-name="Path 121" d="M2334.693,2517.763l-.041.036c-.01-.03-.025-.061-.035-.092C2334.641,2517.728,2334.667,2517.743,2334.693,2517.763Z" transform="translate(-54.704 -32.467)" fill="#fbfbfb"/>
    <path id="Path_122" data-name="Path 122" d="M2306.894,2464.025a.322.322,0,0,1-.066.051l.031-.077h.005Z" transform="translate(-50.267 -23.891)" fill="#fcfcfc"/>
  </g>
</svg>
